<svg width="605" height="220" viewBox="0 0 605 220" fill="none" xmlns="http://www.w3.org/2000/svg">
<path d="M605 3.59766H563V215.598H605V3.59766Z" fill="#1C1D20"/>
<path d="M496 3.59766H454V96.5977H496V3.59766Z" fill="#1C1D20"/>
<path d="M563 138.598L563 96.5977L454 96.5977L454 138.598L563 138.598Z" fill="#1C1D20"/>
<path d="M235.496 96.4309C238.514 81.4559 246.008 68.5626 257.808 57.9525C267.642 49.122 279.17 43.9848 292.53 42.2389V0C267.065 1.88027 245.228 10.9794 227.155 27.5325C207.216 45.6301 195.62 68.6969 192.195 96.4309H235.496Z" fill="#1C1D20"/>
<path d="M369.47 96.4325H412.975C412.432 69.4373 401.48 46.7733 380.049 28.105C361.128 11.6526 339.359 2.45273 314.877 0.203125V42.4084C327.728 44.3223 338.85 49.4258 348.243 57.9878C360.043 68.5643 367.029 81.4576 369.47 96.4325Z" fill="#1C1D20"/>
<path d="M235.057 119.969H191.857C194.943 149.046 206.709 172.784 227.732 191.553C246.077 208.073 267.711 217.44 292.532 219.455V177.25C278.697 175.47 266.829 170.064 256.86 161.1C244.517 149.852 237.193 136.253 235.057 119.969Z" fill="#1C1D20"/>
<path d="M349.023 160.729C339.257 169.559 327.864 174.965 314.877 176.98V219.218C339.189 216.868 360.823 207.4 379.846 190.947C402.022 171.607 413.009 148.07 413.009 119.934H369.843C368.487 135.849 361.569 149.246 349.023 160.729Z" fill="#1C1D20"/>
<path d="M234.277 109.965C234.277 105.331 234.684 100.799 235.498 96.4336H192.163C191.688 100.731 191.451 105.096 191.451 109.562C191.451 113.054 191.552 116.579 191.892 119.971H235.091C234.616 116.714 234.277 113.356 234.277 109.965Z" fill="#F3CB30"/>
<path d="M370.418 110.232C370.486 113.556 370.248 116.779 369.875 119.969H413.007C413.279 116.376 413.278 112.75 413.245 109.057C413.177 104.792 413.38 100.528 412.973 96.432L369.502 96.3984C370.282 100.864 370.35 105.531 370.418 110.232Z" fill="#F3CB30"/>
<path d="M496 45H454V67H496V45Z" fill="#F3CB30"/>
<path d="M151 3.59766H109V215.598H151V3.59766Z" fill="#1C1D20"/>
<path d="M42 3.59766H0V96.5977H42V3.59766Z" fill="#1C1D20"/>
<path d="M109 138.598L109 96.5977L0 96.5977L-1.83588e-06 138.598L109 138.598Z" fill="#1C1D20"/>
<path d="M151 163H109V185H151V163Z" fill="#F3CB30"/>
</svg>
