<svg width="52" height="52" viewBox="0 0 52 52" fill="none" xmlns="http://www.w3.org/2000/svg">
<g clip-path="url(#clip0)">
<path d="M26.0104 36.2655C25.3903 35.7959 24.6288 35.6407 23.9185 35.7731C23.8069 35.1001 23.4485 34.5049 22.9026 34.0914C22.3368 33.6629 21.6382 33.4805 20.9351 33.5775C20.7609 33.6015 20.5917 33.6422 20.429 33.6981C20.2748 33.1695 19.9562 32.684 19.4845 32.3267C18.7074 31.7382 17.7085 31.644 16.8663 31.9904C16.6986 31.4857 16.3837 31.0433 15.9506 30.7153C15.3849 30.2868 14.686 30.1045 13.9832 30.2013C13.4131 30.2801 12.8957 30.535 12.4919 30.9302L9.70385 30.7448L11.4127 16.863L14.4748 17.0711C14.4922 17.0722 14.5095 17.0728 14.5266 17.0728C14.8108 17.0728 15.0733 16.914 15.2042 16.6584L16.3518 14.4193C16.6426 13.8525 17.299 13.5644 17.9127 13.7343L19.6169 14.2055C20.022 14.3173 20.4419 14.0798 20.5541 13.6743C20.6663 13.2689 20.4284 12.8493 20.023 12.7371L18.3191 12.266C17.013 11.9044 15.6155 12.5175 14.9965 13.7241L14.0776 15.517L11.5993 15.3486L11.658 14.8717C11.8457 13.3473 10.7583 11.9546 9.23392 11.7669L3.36485 11.0448C2.94661 10.9936 2.56718 11.2903 2.51579 11.7077C2.4644 12.1252 2.76126 12.5054 3.17868 12.5568L9.04776 13.2793C9.3823 13.3204 9.68079 13.4894 9.88818 13.7551C10.0956 14.0208 10.1872 14.3514 10.1459 14.6859L8.13055 31.0577C8.04554 31.7482 7.41443 32.2405 6.72391 32.156L0.854842 31.4335C0.436812 31.3825 0.0571729 31.6789 0.0057825 32.0964C-0.0456079 32.5139 0.251258 32.8941 0.668678 32.9455L6.53775 33.668C6.65272 33.6821 6.76697 33.689 6.88001 33.689C7.90884 33.689 8.83701 33.1174 9.31791 32.2461L11.4037 32.3847C11.1544 32.8674 11.0588 33.4137 11.1346 33.9628C11.2316 34.6657 11.5967 35.2889 12.1624 35.7173C12.6288 36.0706 13.1856 36.2566 13.7608 36.2566C13.8832 36.2566 14.0064 36.2482 14.1298 36.2312C14.1377 36.2301 14.1455 36.2285 14.1533 36.2273C14.1543 36.2353 14.1549 36.2431 14.1559 36.251C14.253 36.9539 14.618 37.5771 15.1837 38.0055C15.6626 38.3681 16.2257 38.5432 16.7846 38.5432C16.9156 38.5432 17.0463 38.5326 17.1757 38.5135C17.2634 39.1968 17.6139 39.8459 18.2052 40.2937C18.6841 40.6564 19.2471 40.8314 19.806 40.8314C19.9366 40.8314 20.0669 40.8209 20.1959 40.8019C20.197 40.8103 20.1976 40.8189 20.1988 40.8273C20.2959 41.5302 20.6609 42.1534 21.2267 42.5818C21.6932 42.935 22.2499 43.1211 22.8251 43.1211C22.9475 43.1211 23.0707 43.1126 23.194 43.0957C23.897 42.9986 24.5201 42.6336 24.9485 42.0679L26.5242 39.9874C27.4088 38.8196 27.1782 37.1499 26.0104 36.2655ZM13.9215 34.7222C13.6218 34.7636 13.3236 34.6857 13.0823 34.5029C12.841 34.3202 12.6853 34.0543 12.6439 33.7545C12.6024 33.4546 12.6803 33.1566 12.8631 32.9152L13.4434 32.149C13.6261 31.9077 13.892 31.752 14.1918 31.7106C14.4917 31.6694 14.7897 31.747 15.0311 31.9298C15.2724 32.1125 15.4281 32.3784 15.4695 32.6782C15.511 32.9781 15.4331 33.276 15.2504 33.5175L14.67 34.2836C14.4872 34.5249 14.2214 34.6807 13.9215 34.7222ZM16.1037 36.7911C15.8624 36.6084 15.7067 36.3425 15.6652 36.0427C15.6238 35.7428 15.7017 35.4448 15.8845 35.2034L16.4647 34.4373C16.4647 34.4373 16.4648 34.4372 16.4648 34.4371L16.9772 33.7605C17.1998 33.4666 17.539 33.3119 17.882 33.3119C18.1204 33.3119 18.3606 33.3866 18.5648 33.5413C19.063 33.9186 19.1614 34.6308 18.7841 35.129L17.6914 36.5719C17.3141 37.0701 16.6018 37.1684 16.1037 36.7911ZM19.1252 39.0793C18.8838 38.8966 18.7281 38.6307 18.6867 38.3308C18.6453 38.0311 18.7231 37.7331 18.9057 37.4919C18.9058 37.4918 18.9058 37.4917 18.9059 37.4916L19.9986 36.0486L20.3951 35.525C20.5778 35.2837 20.8437 35.128 21.1436 35.0866C21.4436 35.0454 21.7415 35.123 21.9829 35.3059C22.4809 35.683 22.5793 36.3948 22.2025 36.893L20.7129 38.8599C20.7128 38.86 20.7127 38.8601 20.7127 38.8602C20.3353 39.3582 19.6234 39.4566 19.1252 39.0793ZM25.3099 39.0677L23.7342 41.1482C23.5515 41.3895 23.2856 41.5452 22.9858 41.5867C22.6857 41.628 22.3878 41.5502 22.1465 41.3675C21.9052 41.1848 21.7495 40.9189 21.7081 40.6191C21.6666 40.3192 21.7445 40.0212 21.9274 39.7798L23.4167 37.8133C23.417 37.813 23.4172 37.8126 23.4175 37.8123L23.5031 37.6993C23.6858 37.458 23.9517 37.3023 24.2516 37.2608C24.5515 37.2197 24.8495 37.2973 25.0909 37.4801C25.5888 37.8572 25.6872 38.5696 25.3099 39.0677Z" fill="#282828"/>
<path d="M51.9948 32.0964C51.9434 31.6789 51.5636 31.3825 51.1457 31.4335L45.2767 32.156C44.5852 32.241 43.9551 31.7482 43.8701 31.0577L43.81 30.5691L43.7961 30.4559L41.8548 14.6859C41.8136 14.3513 41.9052 14.0208 42.1126 13.7551C42.32 13.4894 42.6184 13.3204 42.953 13.2792L48.8221 12.5567C49.2396 12.5053 49.5363 12.1252 49.485 11.7077C49.4336 11.2902 49.0538 10.9938 48.6359 11.0448L42.7668 11.7673C41.3325 11.9439 40.2854 13.1875 40.323 14.6038L38.843 14.786L34.2599 12.2068C33.6109 11.8412 32.8752 11.6842 32.1323 11.7525C32.1307 11.7526 32.1292 11.753 32.1277 11.7531L30.7482 11.8806C30.3292 11.9193 30.0211 12.2903 30.0599 12.7093C30.0986 13.1281 30.469 13.4357 30.8885 13.3976L32.2719 13.2696C32.7048 13.2296 33.1338 13.3212 33.5124 13.5343L38.2642 16.2084C38.4129 16.3065 38.5938 16.3514 38.7769 16.3289L40.4959 16.1174L41.7568 26.3592L42.1928 29.9011L39.4509 29.9033C39.2681 29.9034 39.0916 29.9693 38.9536 30.0887L38.7414 30.2538L31.8577 24.321C33.4308 23.8687 34.9304 22.7748 36.3325 21.053C36.598 20.7268 36.549 20.247 36.2228 19.9813C35.8966 19.7157 35.4167 19.7648 35.1511 20.091C33.584 22.0156 31.9362 23.0062 30.2536 23.0353C27.8022 23.0814 26.001 21.0487 25.9844 21.0297C25.8346 20.8565 25.615 20.7606 25.3861 20.7662C25.1572 20.7727 24.9434 20.882 24.8038 21.0635L22.7577 23.7264C21.6796 25.1296 19.843 25.6524 18.1875 25.027L17.969 24.9445C17.7772 24.8719 17.699 24.722 17.6695 24.6391C17.6401 24.5561 17.6059 24.3904 17.7089 24.2131L23.0495 15.021C23.3949 14.4265 24.0099 14.0337 24.6947 13.9704L27.8566 13.678C28.2755 13.6392 28.5837 13.2682 28.5449 12.8493C28.5061 12.4305 28.1351 12.1224 27.7162 12.161L24.5543 12.4534C23.3797 12.5621 22.3247 13.2359 21.7321 14.2558L16.3916 23.4478C16.0909 23.9654 16.0334 24.5856 16.234 25.1496C16.4346 25.7136 16.8708 26.1582 17.4306 26.3697L17.6491 26.4522C18.2934 26.6956 18.9573 26.8131 19.6124 26.8131C21.2834 26.813 22.8952 26.0478 23.9656 24.6547L25.4922 22.6679C26.3103 23.373 27.8365 24.4172 29.7847 24.5455L39.7321 33.119C39.911 33.2731 40.0192 33.4876 40.0366 33.723C40.0541 33.9584 39.9789 34.1866 39.8251 34.3653L39.4374 34.8149C38.9504 35.3789 38.0944 35.4416 37.5293 34.9548C37.4977 34.9276 37.4641 34.9042 37.4296 34.8831L34.8473 32.6565C34.5289 32.3818 34.0478 32.4174 33.773 32.736C33.4983 33.0546 33.5339 33.5356 33.8525 33.8103L35.951 35.6197L34.9938 36.7306C34.6996 37.0718 34.257 37.2441 33.8103 37.1916C33.5429 37.1601 33.2925 37.0495 33.0863 36.8717C33.0827 36.8686 33.0787 36.8659 33.0751 36.8629L30.6757 34.794C30.3571 34.5194 29.8762 34.555 29.6013 34.8736C29.3266 35.1922 29.3623 35.6732 29.6809 35.9479L31.5145 37.5289L30.5515 38.6472C30.2573 38.9885 29.8137 39.1608 29.3668 39.1082C28.9489 39.0588 28.5705 39.358 28.5214 39.7758C28.4724 40.1936 28.7712 40.5721 29.189 40.6212C29.3018 40.6344 29.4144 40.641 29.5265 40.641C30.3583 40.641 31.1544 40.2807 31.7057 39.6416L32.7351 38.4461C33.0164 38.5802 33.3187 38.6678 33.6323 38.7047C34.583 38.8164 35.5227 38.4503 36.1477 37.7253L37.1789 36.5286C38.3192 37.0695 39.7277 36.8101 40.591 35.81L40.9791 35.3597C41.3988 34.8726 41.6036 34.2511 41.556 33.6099C41.5084 32.9687 41.2137 32.3844 40.7268 31.965L40.1016 31.4263L42.3869 31.4243C42.6366 32.7406 43.7949 33.6891 45.1204 33.6891C45.2334 33.6891 45.3478 33.6821 45.4627 33.668L51.3318 32.9455C51.7493 32.894 52.0461 32.514 51.9948 32.0964Z" fill="#282828"/>
<path d="M47.1249 26.5977C45.8929 26.5977 44.8906 27.5999 44.8906 28.8318C44.8906 30.0638 45.8929 31.0661 47.1249 31.0661C48.3568 31.0661 49.3591 30.0638 49.3591 28.8318C49.3591 27.5999 48.3568 26.5977 47.1249 26.5977ZM47.1249 29.5427C46.733 29.5427 46.4141 29.2238 46.4141 28.8318C46.4141 28.4399 46.733 28.1211 47.1249 28.1211C47.5168 28.1211 47.8356 28.4399 47.8356 28.8318C47.8356 29.2238 47.5168 29.5427 47.1249 29.5427Z" fill="#282828"/>
<path d="M7.02694 28.8318C7.02694 27.5999 6.02472 26.5977 4.79277 26.5977C3.56081 26.5977 2.55859 27.5999 2.55859 28.8318C2.55859 30.0638 3.56081 31.0661 4.79277 31.0661C6.02472 31.0661 7.02694 30.0638 7.02694 28.8318ZM4.08203 28.8318C4.08203 28.4399 4.40084 28.1211 4.79277 28.1211C5.1847 28.1211 5.5035 28.4399 5.5035 28.8318C5.5035 29.2238 5.1847 29.5427 4.79277 29.5427C4.40084 29.5427 4.08203 29.2238 4.08203 28.8318Z" fill="#282828"/>
</g>
<defs>
<clipPath id="clip0">
<rect width="52" height="52" fill="white"/>
</clipPath>
</defs>
</svg>
