<svg width="224" height="160" viewBox="0 0 224 160" fill="none" xmlns="http://www.w3.org/2000/svg">
<rect width="224" height="160" fill="white"/>
<path d="M193.961 68.9738L187.97 75.7057V68.9738H183.622V85.9603H187.97V78.7941L194.396 85.9603H200L192.101 77.0569L199.42 68.9738H193.961Z" fill="#EF3124"/>
<path d="M175.941 75.3196H169.95V68.9738H165.602V85.9603H169.95V79.2526H175.941V85.9603H180.289V68.9738H175.941V75.3196Z" fill="#EF3124"/>
<path d="M49.7986 78.1668C49.702 81.3276 49.2913 81.9549 47.5038 81.9549V85.9361H48.156C52.6007 85.9361 53.6635 83.6439 53.8326 78.5528L54.0017 72.9068H58.1565V85.9361H62.5046V68.9738H50.0643L49.7986 78.1668Z" fill="#EF3124"/>
<path d="M73.3506 74.1373H70.2103V68.9738H65.8623V85.9361H73.3989C78.1335 85.9361 79.8244 82.8718 79.8244 79.9764C79.8244 76.2365 77.4813 74.1373 73.3506 74.1373ZM73.0124 82.2204H70.2103V77.9014H73.0124C74.5101 77.9014 75.428 78.5528 75.428 79.9764C75.428 81.5206 74.5584 82.2204 73.0124 82.2204Z" fill="#EF3124"/>
<path d="M93.9796 68.5874V62.2899H89.6315V68.5874C84.6554 68.9976 81.2977 72.5445 81.2977 77.4426C81.2977 82.3889 84.6554 85.9117 89.6315 86.346V92.74H93.9796V86.346C98.9557 85.9599 102.313 82.3889 102.313 77.4426C102.313 72.4962 98.9557 68.9735 93.9796 68.5874ZM89.6315 82.2441C87.2159 81.9063 85.7182 80.0967 85.7182 77.4426C85.7182 74.7884 87.2159 72.9788 89.6315 72.641V82.2441ZM93.9796 82.2441V72.6651C96.3952 72.9788 97.917 74.7884 97.917 77.4426C97.917 80.0967 96.3952 81.9063 93.9796 82.2441Z" fill="#EF3124"/>
<path d="M118.619 80.7244V75.0301C118.619 70.88 115.962 68.25 111.493 68.25C106.879 68.25 104.439 71.0248 104.222 73.9202H108.618C108.763 73.2928 109.44 72.2071 111.493 72.2071C113.184 72.2071 114.271 72.9792 114.271 75.0301H109.947C106.082 75.0301 103.787 77.0569 103.787 80.4349C103.787 83.9576 106.299 86.3705 109.923 86.3705C112.58 86.3705 114.053 85.1158 114.681 84.1748C115.261 85.3088 116.517 85.9603 118.184 85.9603H119.682V82.0273C118.909 82.0273 118.619 81.6654 118.619 80.7244ZM114.271 79.6145C114.271 81.5689 112.894 82.6788 111.082 82.6788C109.512 82.6788 108.28 82.0997 108.28 80.4107C108.28 78.7459 109.633 78.4805 110.816 78.4805H114.295V79.6145H114.271Z" fill="#EF3124"/>
<path d="M137.219 71.3863H132.363V66.5848H143.62V62.2899H127.798V85.9599H137.219C142.436 85.9599 145.432 83.3782 145.432 78.6007C145.432 74.1128 142.46 71.3863 137.219 71.3863ZM137.025 81.665H132.387V75.5123H137.025C139.441 75.5123 140.794 76.6222 140.794 78.5766C140.794 80.6034 139.441 81.665 137.025 81.665Z" fill="#EF3124"/>
<path d="M162.075 80.7244V75.0301C162.075 70.88 159.418 68.25 154.949 68.25C150.335 68.25 147.896 71.0248 147.678 73.9202H152.075C152.219 73.2928 152.896 72.2071 154.949 72.2071C156.64 72.2071 157.727 72.9792 157.727 75.0301H153.403C149.538 75.0301 147.243 77.0569 147.243 80.4349C147.243 83.9576 149.756 86.3705 153.379 86.3705C156.036 86.3705 157.51 85.1158 158.138 84.1748C158.717 85.3088 159.974 85.9603 161.64 85.9603H163.138V82.0273C162.365 82.0273 162.075 81.6654 162.075 80.7244ZM157.727 79.6145C157.727 81.5689 156.35 82.6788 154.538 82.6788C152.968 82.6788 151.736 82.0997 151.736 80.4107C151.736 78.7459 153.089 78.4805 154.273 78.4805H157.751V79.6145H157.727Z" fill="#EF3124"/>
<path d="M47.238 93.1743H24V98H47.238V93.1743Z" fill="#EF3124"/>
<path d="M39.8463 65.5228C39.1699 63.5683 38.4211 62 35.7881 62C33.1792 62 32.3821 63.5442 31.6816 65.5228L24.4831 85.9595H29.2418L30.9086 81.1097H40.0878L41.6338 85.9595H46.7066L39.8463 65.5228ZM32.3096 76.9838L35.5707 67.3083H35.6915L38.7593 76.9838H32.3096Z" fill="#EF3124"/>
</svg>
