<svg width="44" height="44" viewBox="0 0 44 44" fill="none" xmlns="http://www.w3.org/2000/svg">
<g clip-path="url(#clip0)">
<path d="M31.0483 9.59108C31.0483 6.50076 33.4853 4.03125 36.5667 4.03125C39.657 4.03125 42.1265 6.46824 42.1265 9.54958C42.1265 12.6332 39.6132 15.1094 36.5667 15.1094C33.5201 15.1094 31.0483 12.6747 31.0483 9.59108ZM31.335 9.54958C31.335 12.4406 33.6757 14.7812 36.5667 14.7812C39.4519 14.7812 41.7983 12.4878 41.7983 9.59108C41.7983 6.70008 39.4577 4.35943 36.5667 4.35943C33.7258 4.35943 31.335 6.65002 31.335 9.54958Z" fill="#282828" stroke="black"/>
<mask id="path-2-inside-1" fill="white">
<path d="M38.4757 10.5046C38.4342 10.3801 38.4342 10.2971 38.3512 10.1726C38.3097 10.0896 38.2682 9.96504 38.1852 9.88202C38.1022 9.79901 38.0607 9.716 37.9777 9.63299C37.8947 9.54998 37.8117 9.46697 37.6871 9.42546C37.6041 9.34245 37.4796 9.30094 37.3966 9.25944C37.2721 9.21793 37.1891 9.13492 37.0646 9.09342C36.94 9.05191 36.8155 9.0104 36.7325 8.9689C36.691 8.9689 36.608 8.92739 36.5665 8.88589C36.525 8.84438 36.442 8.84438 36.4005 8.80287C36.359 8.76137 36.276 8.76137 36.2344 8.71986C36.1929 8.67836 36.1514 8.63685 36.1099 8.59535C36.0684 8.55384 36.0269 8.51233 36.0269 8.42932C35.9854 8.38782 35.9854 8.30481 35.9854 8.2633C35.9854 8.18029 35.9854 8.13878 35.9854 8.05577C35.9854 8.01427 36.0269 7.93125 36.0269 7.88975C36.0684 7.84824 36.0684 7.76523 36.1099 7.72372C36.1514 7.68222 36.1929 7.64071 36.2344 7.59921C36.276 7.5577 36.359 7.5162 36.442 7.5162C36.525 7.47469 36.5665 7.47469 36.6495 7.47469C36.691 7.47469 36.7325 7.47469 36.774 7.47469C36.8155 7.47469 36.857 7.47469 36.8985 7.47469C36.9815 7.47469 37.0231 7.47469 37.1061 7.5162C37.1891 7.5162 37.2721 7.5577 37.3136 7.5577C37.3551 7.5577 37.4381 7.59921 37.4796 7.59921C37.5626 7.59921 37.6041 7.64071 37.6456 7.64071L37.8532 7.72372L37.8947 7.47469L37.9777 6.8106V6.64458L37.8117 6.60307C37.7702 6.60307 37.6871 6.56156 37.6456 6.56156C37.6041 6.56156 37.5626 6.52006 37.4796 6.52006C37.4381 6.52006 37.3551 6.47855 37.2721 6.47855C37.1891 6.47855 37.1476 6.43705 37.0646 6.43705H37.0231V5.85597V5.64844H36.8155H36.2344H36.0269V5.85597V6.47855H35.9854C35.8609 6.52006 35.7364 6.56156 35.6119 6.64458C35.4873 6.68608 35.4043 6.76909 35.3213 6.8521C35.2383 6.93512 35.1553 7.01813 35.0723 7.14264C34.9893 7.22566 34.9478 7.35017 34.9063 7.47469C34.8648 7.59921 34.8233 7.72373 34.7817 7.84824C34.7402 7.97276 34.7402 8.13878 34.7402 8.2633C34.7402 8.38782 34.7402 8.47083 34.7817 8.59535C34.8233 8.71986 34.8232 8.80287 34.9063 8.92739C34.9478 9.0104 35.0308 9.13492 35.0723 9.21793C35.1553 9.30094 35.1968 9.38396 35.2798 9.46697C35.3628 9.54998 35.4458 9.63299 35.5704 9.6745C35.6534 9.75751 35.7779 9.79901 35.8609 9.84052C35.9854 9.88202 36.1099 9.96504 36.1929 10.0065C36.3175 10.048 36.442 10.0896 36.525 10.1311C36.5665 10.1311 36.6495 10.1726 36.691 10.2141C36.7325 10.2556 36.8155 10.2556 36.857 10.2971C36.8985 10.3386 36.94 10.3801 36.9815 10.3801C37.0231 10.4216 37.0646 10.4631 37.1061 10.5046C37.1476 10.5461 37.1476 10.5876 37.1891 10.6706C37.1891 10.7121 37.2306 10.7952 37.2306 10.8782C37.2306 10.9612 37.2306 11.0027 37.2306 11.0857C37.2306 11.1272 37.1891 11.2102 37.1476 11.2517C37.1061 11.2932 37.0646 11.3347 37.0231 11.3762C36.9815 11.4177 36.94 11.4592 36.857 11.5007C36.8155 11.5423 36.7325 11.5423 36.691 11.5838C36.6495 11.5838 36.5665 11.6253 36.4835 11.6253C36.442 11.6253 36.4005 11.6253 36.3175 11.6253C36.2759 11.6253 36.1929 11.6253 36.1514 11.6253C36.0684 11.6253 35.9854 11.6253 35.9439 11.6253C35.8609 11.6253 35.7779 11.5838 35.7364 11.5838C35.6534 11.5838 35.5704 11.5423 35.4873 11.5007C35.4043 11.4592 35.3213 11.4592 35.2383 11.4177C35.1968 11.4177 35.1553 11.3762 35.1138 11.3762C35.0723 11.3762 35.0308 11.3347 34.9893 11.3347L34.7402 11.2102L34.6987 11.5007L34.6157 12.2479V12.3724L34.7402 12.4139C34.9063 12.3724 34.9893 12.4139 35.1138 12.4554C35.1968 12.4969 35.3213 12.5384 35.4043 12.5384C35.4873 12.5799 35.6119 12.5799 35.7364 12.6214C35.8609 12.6629 35.9439 12.6629 36.0684 12.6629H36.1514V13.2855V13.493H36.359H36.94H37.1476V13.2855V12.6214H37.1891C37.3136 12.5799 37.4381 12.5384 37.5626 12.4554C37.6871 12.4139 37.7702 12.3309 37.8947 12.2479C37.9777 12.1648 38.0607 12.0818 38.1437 11.9573C38.2267 11.8743 38.2682 11.7498 38.3512 11.6253C38.3927 11.5007 38.4342 11.3762 38.4757 11.2517C38.5173 11.1272 38.5173 11.0027 38.5173 10.8367C38.5173 10.7121 38.5173 10.6291 38.4757 10.5046Z"/>
</mask>
<path d="M38.4757 10.5046C38.4342 10.3801 38.4342 10.2971 38.3512 10.1726C38.3097 10.0896 38.2682 9.96504 38.1852 9.88202C38.1022 9.79901 38.0607 9.716 37.9777 9.63299C37.8947 9.54998 37.8117 9.46697 37.6871 9.42546C37.6041 9.34245 37.4796 9.30094 37.3966 9.25944C37.2721 9.21793 37.1891 9.13492 37.0646 9.09342C36.94 9.05191 36.8155 9.0104 36.7325 8.9689C36.691 8.9689 36.608 8.92739 36.5665 8.88589C36.525 8.84438 36.442 8.84438 36.4005 8.80287C36.359 8.76137 36.276 8.76137 36.2344 8.71986C36.1929 8.67836 36.1514 8.63685 36.1099 8.59535C36.0684 8.55384 36.0269 8.51233 36.0269 8.42932C35.9854 8.38782 35.9854 8.30481 35.9854 8.2633C35.9854 8.18029 35.9854 8.13878 35.9854 8.05577C35.9854 8.01427 36.0269 7.93125 36.0269 7.88975C36.0684 7.84824 36.0684 7.76523 36.1099 7.72372C36.1514 7.68222 36.1929 7.64071 36.2344 7.59921C36.276 7.5577 36.359 7.5162 36.442 7.5162C36.525 7.47469 36.5665 7.47469 36.6495 7.47469C36.691 7.47469 36.7325 7.47469 36.774 7.47469C36.8155 7.47469 36.857 7.47469 36.8985 7.47469C36.9815 7.47469 37.0231 7.47469 37.1061 7.5162C37.1891 7.5162 37.2721 7.5577 37.3136 7.5577C37.3551 7.5577 37.4381 7.59921 37.4796 7.59921C37.5626 7.59921 37.6041 7.64071 37.6456 7.64071L37.8532 7.72372L37.8947 7.47469L37.9777 6.8106V6.64458L37.8117 6.60307C37.7702 6.60307 37.6871 6.56156 37.6456 6.56156C37.6041 6.56156 37.5626 6.52006 37.4796 6.52006C37.4381 6.52006 37.3551 6.47855 37.2721 6.47855C37.1891 6.47855 37.1476 6.43705 37.0646 6.43705H37.0231V5.85597V5.64844H36.8155H36.2344H36.0269V5.85597V6.47855H35.9854C35.8609 6.52006 35.7364 6.56156 35.6119 6.64458C35.4873 6.68608 35.4043 6.76909 35.3213 6.8521C35.2383 6.93512 35.1553 7.01813 35.0723 7.14264C34.9893 7.22566 34.9478 7.35017 34.9063 7.47469C34.8648 7.59921 34.8233 7.72373 34.7817 7.84824C34.7402 7.97276 34.7402 8.13878 34.7402 8.2633C34.7402 8.38782 34.7402 8.47083 34.7817 8.59535C34.8233 8.71986 34.8232 8.80287 34.9063 8.92739C34.9478 9.0104 35.0308 9.13492 35.0723 9.21793C35.1553 9.30094 35.1968 9.38396 35.2798 9.46697C35.3628 9.54998 35.4458 9.63299 35.5704 9.6745C35.6534 9.75751 35.7779 9.79901 35.8609 9.84052C35.9854 9.88202 36.1099 9.96504 36.1929 10.0065C36.3175 10.048 36.442 10.0896 36.525 10.1311C36.5665 10.1311 36.6495 10.1726 36.691 10.2141C36.7325 10.2556 36.8155 10.2556 36.857 10.2971C36.8985 10.3386 36.94 10.3801 36.9815 10.3801C37.0231 10.4216 37.0646 10.4631 37.1061 10.5046C37.1476 10.5461 37.1476 10.5876 37.1891 10.6706C37.1891 10.7121 37.2306 10.7952 37.2306 10.8782C37.2306 10.9612 37.2306 11.0027 37.2306 11.0857C37.2306 11.1272 37.1891 11.2102 37.1476 11.2517C37.1061 11.2932 37.0646 11.3347 37.0231 11.3762C36.9815 11.4177 36.94 11.4592 36.857 11.5007C36.8155 11.5423 36.7325 11.5423 36.691 11.5838C36.6495 11.5838 36.5665 11.6253 36.4835 11.6253C36.442 11.6253 36.4005 11.6253 36.3175 11.6253C36.2759 11.6253 36.1929 11.6253 36.1514 11.6253C36.0684 11.6253 35.9854 11.6253 35.9439 11.6253C35.8609 11.6253 35.7779 11.5838 35.7364 11.5838C35.6534 11.5838 35.5704 11.5423 35.4873 11.5007C35.4043 11.4592 35.3213 11.4592 35.2383 11.4177C35.1968 11.4177 35.1553 11.3762 35.1138 11.3762C35.0723 11.3762 35.0308 11.3347 34.9893 11.3347L34.7402 11.2102L34.6987 11.5007L34.6157 12.2479V12.3724L34.7402 12.4139C34.9063 12.3724 34.9893 12.4139 35.1138 12.4554C35.1968 12.4969 35.3213 12.5384 35.4043 12.5384C35.4873 12.5799 35.6119 12.5799 35.7364 12.6214C35.8609 12.6629 35.9439 12.6629 36.0684 12.6629H36.1514V13.2855V13.493H36.359H36.94H37.1476V13.2855V12.6214H37.1891C37.3136 12.5799 37.4381 12.5384 37.5626 12.4554C37.6871 12.4139 37.7702 12.3309 37.8947 12.2479C37.9777 12.1648 38.0607 12.0818 38.1437 11.9573C38.2267 11.8743 38.2682 11.7498 38.3512 11.6253C38.3927 11.5007 38.4342 11.3762 38.4757 11.2517C38.5173 11.1272 38.5173 11.0027 38.5173 10.8367C38.5173 10.7121 38.5173 10.6291 38.4757 10.5046Z" fill="#282828" stroke="black" stroke-width="2" mask="url(#path-2-inside-1)"/>
<path d="M25.7902 22.0862L26.0628 22.1996L26.2938 22.0157L33.0038 16.6726C33.0389 16.6505 33.0951 16.6352 33.1563 16.6424C33.2205 16.6499 33.2471 16.6758 33.254 16.6855C33.2785 16.7198 33.2965 16.7795 33.2888 16.8449C33.2813 16.9091 33.2554 16.9357 33.2457 16.9426L33.2355 16.9499L33.2257 16.9577L26.2213 22.5115C26.2188 22.5129 26.2128 22.5161 26.2023 22.52C26.1861 22.5261 26.1649 22.5316 26.1407 22.5348C26.089 22.5415 26.0543 22.5339 26.0445 22.5304L17.333 18.9213L17.0767 18.8152L16.851 18.9764L7.85197 25.4042C7.79645 25.4401 7.76843 25.4412 7.7613 25.4412C7.72293 25.4412 7.69778 25.4334 7.68399 25.4265C7.6734 25.4212 7.66253 25.4135 7.65047 25.3934L7.6402 25.3762L7.62859 25.36C7.61098 25.3353 7.60103 25.2997 7.6094 25.2551C7.61799 25.2093 7.64356 25.1692 7.67837 25.1444L16.9756 18.5034L16.9757 18.5036L16.985 18.4966C16.9954 18.4888 17.0188 18.4769 17.0515 18.4722C17.0821 18.4678 17.1061 18.4719 17.1202 18.4772L25.7902 22.0862Z" fill="#282828" stroke="black"/>
<path d="M39.8021 39.1429V39.6429H40.3021H43.3735C43.4296 39.6429 43.4632 39.6639 43.4791 39.6805C43.4924 39.6944 43.5033 39.7142 43.4991 39.7518L43.4961 39.7793V39.807C43.4961 39.8609 43.4763 39.8999 43.4506 39.9256C43.4248 39.9514 43.3859 39.9711 43.332 39.9711H39.5965H33.4951H29.9256H23.8243H20.2548H14.1535H10.501H4.39961H0.664092C0.610184 39.9711 0.571263 39.9514 0.545518 39.9256C0.519773 39.8999 0.5 39.8609 0.5 39.807C0.5 39.7531 0.519773 39.7142 0.545517 39.6885C0.571261 39.6627 0.610183 39.6429 0.664092 39.6429H3.77702H4.27702V39.1429V29.4721C4.27702 29.4182 4.2968 29.3793 4.32254 29.3535C4.34829 29.3278 4.38721 29.308 4.44111 29.308H10.584C10.6379 29.308 10.6768 29.3278 10.7025 29.3535C10.7283 29.3793 10.7481 29.4182 10.7481 29.4721V39.1429V39.6429H11.2481H13.4894H13.9894V39.1429V25.5706C13.9894 25.5167 14.0091 25.4778 14.0349 25.452C14.0606 25.4263 14.0995 25.4065 14.1535 25.4065H20.2548C20.3087 25.4065 20.3476 25.4263 20.3734 25.452C20.3991 25.4778 20.4189 25.5167 20.4189 25.5706V39.1429V39.6429H20.9189H23.1602H23.6602V39.1429V26.5667C23.6602 26.5128 23.68 26.4739 23.7057 26.4481C23.7315 26.4224 23.7704 26.4026 23.8243 26.4026H29.9671C30.0211 26.4026 30.06 26.4224 30.0857 26.4481C30.1115 26.4739 30.1312 26.5128 30.1312 26.5667V39.1429V39.6429H30.6312H32.8725H33.3725V39.1429V19.9258C33.3725 19.8719 33.3923 19.833 33.4181 19.8072C33.4438 19.7815 33.4827 19.7617 33.5366 19.7617H39.638C39.6919 19.7617 39.7308 19.7815 39.7566 19.8072C39.7823 19.833 39.8021 19.8719 39.8021 19.9258V39.1429ZM9.87837 39.6429H10.3784V39.1429V30.1362V29.6362H9.87837H5.10521H4.60521V30.1362V39.1429V39.6429H5.10521H9.87837ZM19.5907 39.6429H20.0907V39.1429V26.2347V25.7347H19.5907H14.8176H14.3176V26.2347V39.1429V39.6429H14.8176H19.5907ZM29.2615 39.6429H29.7615V39.1429V27.2308V26.7308H29.2615H24.4884H23.9884V27.2308V39.1429V39.6429H24.4884H29.2615ZM38.9739 39.6429H39.4739V39.1429V20.5899V20.0899H38.9739H34.2007H33.7007V20.5899V39.1429V39.6429H34.2007H38.9739Z" fill="#282828" stroke="black"/>
</g>
<defs>
<clipPath id="clip0">
<rect width="44" height="44" fill="white"/>
</clipPath>
</defs>
</svg>
