<svg width="48" height="48" viewBox="0 0 48 48" fill="none" xmlns="http://www.w3.org/2000/svg">
<path d="M27.9343 25.8984C28.0055 25.9701 28.0411 26.0776 28.1123 26.1493C28.4684 26.3645 28.8244 26.5437 29.1805 26.7589C29.679 27.0457 29.7502 27.4759 29.3942 27.942C28.8957 28.5157 28.3972 29.1252 27.863 29.6989C27.685 29.8781 27.4358 29.9499 27.1865 30.0216C26.866 30.0933 26.5812 30.1291 26.1895 30.2008C26.3319 30.3084 26.4387 30.3801 26.5456 30.4518C27.2933 31.0972 27.3289 31.4199 26.6524 32.1728C25.6554 33.3201 24.694 34.4316 23.697 35.5789C23.5545 35.7223 23.4477 36.0091 23.4833 36.1884C23.6614 37.4074 23.3409 38.4113 22.4507 39.2718C22.3439 39.3794 22.2727 39.5228 22.1658 39.6304C21.881 39.9172 21.8454 40.2399 21.9522 40.6343C22.1302 41.2796 22.0234 41.4589 21.4537 41.8174C20.8484 42.176 20.243 42.5345 19.6377 42.8572C19.3884 42.9648 19.1036 42.9648 18.8187 43.0006H18.7831C17.1096 42.8214 15.8277 42.0684 14.9019 40.5984C14.4034 39.8455 13.7624 39.2001 13.1927 38.483C12.9791 38.2321 12.8723 37.9452 12.9079 37.5867C12.9435 37.3357 12.9435 37.0489 13.0147 36.7979C13.1571 36.2243 13.0147 35.7582 12.6942 35.2921C11.9821 34.324 11.6972 33.1767 11.3411 32.0294C11.2699 31.8142 11.0563 31.5991 10.8426 31.4916C10.1661 31.133 9.41833 30.8462 8.74178 30.4877C8.38571 30.3084 8.06524 30.0574 7.81599 29.7347C7.10383 28.9459 6.4629 28.0855 6.10682 27.0815C6.10682 27.0098 6 26.9023 6 26.7947C6.14243 25.8267 6.14243 24.8228 6.4629 23.9264C6.74776 23.1018 7.31748 22.3488 7.78038 21.5959C7.92281 21.3808 8.13645 21.2015 8.3501 21.094C8.813 20.8788 9.2759 20.7354 9.73879 20.5562C9.91683 20.4845 10.0949 20.4486 10.2373 20.4844C11.5904 20.5562 12.9435 20.6637 14.2966 20.7713C14.5102 20.8071 14.7595 20.9505 14.9375 21.094C15.4716 21.5959 15.9701 22.0979 16.4686 22.5998C16.5754 22.5281 16.6467 22.5281 16.6823 22.4923C17.2876 21.8469 17.9285 21.9186 18.6051 22.3488C19.2104 22.7074 19.8157 23.1018 20.7059 22.9584C20.4211 22.8508 20.243 22.7432 20.0294 22.6715C19.6377 22.4923 19.4953 22.2054 19.5665 21.7752C19.6377 21.3449 19.7089 20.8788 19.8157 20.4486C19.9226 19.9108 20.065 19.7315 20.6347 19.6239C20.8484 19.5881 21.062 19.5522 21.3469 19.5164C21.24 19.3013 21.1332 19.1579 21.0264 18.9069C20.3142 19.6957 19.5309 19.5164 18.7119 19.0503C18.7475 19.373 18.7475 19.5881 18.8187 19.8032C18.9612 20.2693 18.8187 20.592 18.427 20.8788C18.3558 20.9505 18.2846 21.0223 18.2134 21.094C17.1808 22.062 16.3618 21.9903 15.3648 20.9506C14.9731 20.5203 14.6882 20.0901 14.8663 19.373C14.2253 19.5522 13.6556 19.6957 13.0859 19.8032C12.7654 19.8749 12.445 19.8391 12.1245 19.7674C11.7328 19.6957 11.3767 19.5164 11.0207 19.373C10.4866 19.1579 10.3085 18.6918 10.629 18.2257C11.0919 17.6161 11.5548 16.9708 12.0177 16.3613C12.4094 15.8593 12.8723 16.0744 13.3708 16.2896C13.4776 16.0027 13.62 15.7517 13.7268 15.5008C13.9405 15.0347 14.2253 14.9271 14.6882 14.9988C15.0087 15.0347 15.3648 14.9988 15.6496 14.8913C16.2906 14.6403 16.8603 14.2817 17.4656 13.9591C17.6081 13.8874 17.7505 13.8515 17.9285 13.8156C18.1422 13.7798 18.3202 13.7798 18.5339 13.7439C18.9612 13.7081 19.4597 13.7439 19.8157 13.5647C20.1718 13.3854 20.3855 12.9193 20.7059 12.5608C20.3855 12.4173 20.1006 12.2739 19.7801 12.1664C19.7089 12.1305 19.5665 12.2381 19.4953 12.3456C19.2816 12.6325 19.1036 12.9193 18.8899 13.2061C18.5695 13.6364 17.9641 13.6722 17.7505 13.1703C17.3944 12.3815 16.7891 12.2022 16.0413 12.1305C15.7209 12.0947 15.4004 11.9513 15.3292 11.5927C15.2224 11.2342 15.436 10.9832 15.6496 10.7322C16.7535 9.54904 18.1066 8.83197 19.6021 8.36587C19.8513 8.29416 20.2074 8.36587 20.4567 8.47343C22.0234 9.22636 23.5545 10.0151 25.0857 10.8039C25.3349 10.9473 25.5129 10.9473 25.7266 10.7322C25.9046 10.5171 26.1183 10.3737 26.3675 10.1944C27.0085 9.72831 27.507 9.1905 27.6494 8.36587C27.7562 7.86391 28.1123 7.68465 28.6108 7.79221C29.2161 7.89977 29.6434 7.89977 29.5366 6.93172C29.501 6.53733 29.4654 6.17879 29.4654 5.7844C29.4654 5.17488 29.8927 4.8522 30.4624 5.06732C31.495 5.42586 31.0742 0.998712 32 1.50066C32.7122 1.89506 36.7567 3.95612 37.3264 4.63735C37.7181 5.10344 38.1098 5.49784 38.6795 5.64125C39.3205 5.82052 39.7834 6.25076 40.2107 6.75272C41.2077 8.0076 43.7166 10.7322 44.5 12.1305C44.8917 12.8117 44.4483 12.5003 45 13.5003C45.178 13.823 44.7864 14.1418 45 14.5003C45.4273 15.1457 42.3197 17.7596 42.747 18.4049C42.8538 18.5842 42.9607 18.871 42.925 19.0861C42.8538 20.0183 42.7826 20.9506 42.6402 21.8827C42.6046 22.1696 42.3197 22.4564 42.1061 22.6715C41.8212 22.9225 41.75 23.1376 42.1417 23.3169C42.6402 23.6037 42.8894 23.9981 42.8894 24.6076C42.8894 25.0737 42.9963 25.5398 42.9963 26.0059C43.0319 26.6513 42.8182 26.9023 42.1417 26.9381C41.9992 26.9381 41.8568 26.9381 41.6432 26.9381C41.9992 27.5835 42.2841 28.1572 42.6046 28.7308C42.9607 29.4479 42.8182 29.8064 42.0705 30.0216C41.6788 30.1291 41.2515 30.2367 40.8598 30.3801C40.4681 30.4877 40.1477 30.4159 39.8984 30.0933C39.4711 29.5196 39.0082 28.9818 38.5097 28.444C38.118 28.0496 38.0112 27.6194 38.2248 27.0815C38.2605 26.974 38.2961 26.8306 38.2961 26.723C38.0824 26.5796 37.9044 26.4362 37.7263 26.3286C37.3703 26.7589 37.0142 27.1891 36.6581 27.6194C36.5869 27.6911 36.5869 27.8345 36.5869 27.942C36.5513 28.1213 36.5513 28.3006 36.5869 28.4798C36.7293 29.412 36.302 30.0574 35.6611 30.6669C35.1982 31.0613 34.7353 31.0255 34.4504 30.4877C33.9519 29.5913 33.5603 28.695 33.0261 27.8345C32.7057 27.2967 32.1716 26.9023 31.7443 26.4362C31.495 26.4003 31.3526 26.4003 31.2458 26.4003C30.5336 26.3286 29.8215 26.3286 29.1093 26.2211C28.7176 26.1852 28.3259 26.0059 27.9343 25.8984C27.2221 25.6832 26.51 25.504 25.7266 25.2889C26.0115 25.9342 27.0797 26.1852 27.9343 25.8984ZM12.3025 18.3332C12.3025 18.3691 12.3381 18.4049 12.3381 18.4408C12.5518 18.4049 12.7298 18.4049 12.9435 18.3691C13.7268 18.2257 14.5458 18.0464 15.3292 17.903C15.8633 17.8313 16.1838 18.1181 16.1838 18.6559C16.1838 18.9427 16.1838 19.2296 16.1838 19.5164C16.1838 19.8749 16.5754 20.2693 16.8603 20.2335C17.1808 20.1976 17.3588 19.8391 17.2876 19.4088C17.2164 18.9786 17.1452 18.5483 17.074 18.1181C17.0027 17.5086 17.43 17.1142 17.9997 17.2935C18.1778 17.3652 18.3914 17.401 18.5695 17.5086C19.3528 17.9388 20.065 18.0464 20.7771 17.3652C21.0976 17.0783 21.4537 17.2217 21.7385 17.5086C21.8454 17.6161 22.0234 17.7237 22.2014 17.7596C22.5931 17.8313 22.8424 18.1181 22.8068 18.5483C22.7712 18.871 22.6999 19.2296 22.6643 19.5522C22.4863 20.6279 22.5931 20.7354 21.3469 20.9506C21.2044 20.9864 21.062 21.1657 21.0264 21.3091C20.9908 21.4166 21.1332 21.6318 21.24 21.6676C21.5605 21.8469 21.9166 21.9545 22.2727 22.1337C22.7356 22.3488 22.8424 22.8149 22.5219 23.2452C22.2727 23.5679 22.0234 23.8906 21.7385 24.1774C21.6317 24.285 21.4181 24.4284 21.24 24.4284C20.243 24.4284 19.246 24.5359 18.3914 23.8906C17.8573 23.4962 17.43 23.532 16.9671 23.9981C16.6111 24.3567 16.2906 24.3208 15.9345 23.9623C15.2936 23.4245 14.6882 22.8149 14.0473 22.2771C13.9405 22.2054 13.7981 22.1337 13.6556 22.0979C12.6942 22.0262 11.7328 21.9545 10.7714 21.9186C9.70319 21.8827 8.813 22.1696 8.3501 23.281C8.20767 23.6037 7.99402 23.8547 7.85159 24.1774C7.3887 25.2171 7.10383 26.2928 7.74477 27.3325C8.31449 28.2647 8.88421 29.1969 10.0237 29.5913C10.5934 29.7706 11.0919 30.0933 11.6616 30.3084C12.1601 30.4877 12.445 30.8103 12.5874 31.3481C12.9079 32.4238 13.1571 33.5711 13.8337 34.5033C14.4034 35.2921 14.617 36.1167 14.3678 37.0847C14.3322 37.1565 14.3322 37.2282 14.3322 37.2999C14.3678 37.515 14.4034 37.7301 14.5102 37.8735C15.3292 38.8774 16.1482 39.8455 16.9671 40.8494C17.074 40.957 17.1808 41.1004 17.3232 41.1362C18.2846 41.4589 19.246 41.7099 20.1718 40.9211C20.3855 40.706 20.5635 40.5984 20.4211 40.2757C20.2786 39.8813 20.3855 39.5228 20.6703 39.236C20.8127 39.0926 20.9196 38.8774 21.062 38.734C21.881 37.9094 22.2014 36.9772 22.0234 35.794C21.9878 35.543 22.1302 35.1845 22.3083 34.9694C23.056 34.0372 23.875 33.1408 24.6584 32.2445C24.7652 32.1369 24.8364 32.0294 24.9788 31.8501C24.7652 31.886 24.6228 31.9218 24.5159 31.9218C23.875 32.0652 23.7326 31.9935 23.3765 31.4557C23.1272 31.0972 22.9136 30.7386 22.6287 30.4518C21.4537 29.2328 20.7771 27.6552 19.9938 26.1852C19.7801 25.755 19.9226 25.3247 20.3855 25.1454C20.7059 25.0379 21.0264 24.8586 21.3469 24.8228C21.5961 24.7869 21.9166 24.8586 22.1658 24.9662C23.2697 25.6474 24.1242 26.5437 24.6228 27.7628C24.7296 28.0496 24.9076 28.3006 25.0857 28.5516C25.1569 28.6591 25.2637 28.7667 25.3705 28.7667C26.3319 28.8742 27.2577 28.3364 27.7918 27.3684C27.1865 27.2967 26.6168 27.2608 26.0471 27.1891C25.8334 27.1533 25.6198 27.1174 25.4417 27.0098C25.05 26.6872 24.6584 26.3286 24.3023 26.0059C24.0174 25.7191 23.9818 25.3964 24.1955 25.0379C24.4091 24.7152 24.5871 24.4284 24.8008 24.1415C25.1569 23.6396 25.3705 23.532 25.9758 23.7471C27.7918 24.3925 29.6434 24.9303 31.6018 24.8945C31.8155 24.8945 32.0647 24.9662 32.2072 25.1096C33.0261 25.8267 33.8807 26.5079 34.308 27.5835C34.4504 27.9779 34.6997 28.3364 34.9133 28.695C35.0202 28.193 35.0202 27.7269 35.0558 27.2608C35.0914 27.0457 35.1982 26.8664 35.305 26.6872C35.5899 26.3286 35.9104 26.0059 36.1952 25.6115C36.6225 25.0379 36.9786 24.3925 37.4415 23.8189C37.5839 23.6396 37.9756 23.4962 38.1892 23.532C38.4029 23.6037 38.6165 23.8906 38.6877 24.1415C38.7946 24.4284 38.759 24.7869 38.7946 25.1096C38.8302 25.2171 38.9014 25.3606 39.0082 25.4323C39.6135 25.7191 39.7204 25.8984 39.5423 26.5796C39.5067 26.7947 39.3999 26.974 39.3999 27.1891C39.3999 27.3325 39.3999 27.5476 39.5067 27.6552C39.7916 28.0137 40.0764 28.3723 40.3969 28.7308C40.4681 28.8025 40.6462 28.8384 40.753 28.8742C40.6818 28.5157 40.5393 28.2647 40.3969 28.0137C40.2545 27.7628 40.112 27.5118 39.9696 27.225C39.5423 26.3645 40.0052 25.504 40.931 25.4681C41.0378 25.4681 41.1447 25.4323 41.2515 25.4323C41.2871 24.9662 41.2871 24.5718 40.8242 24.2491C39.8984 23.6396 39.8628 22.5998 40.6818 21.811C40.8598 21.6318 41.0378 21.3808 41.0735 21.1298C41.1803 20.5562 41.2159 19.9825 41.2515 19.4447C41.2515 19.2296 41.1803 18.9427 41.0735 18.7635C40.4681 17.7596 44.6053 14.0042 44 13.0003C43.6083 12.3191 43.3591 12.9552 44 12.3098C43.181 11.27 40.753 8.57591 39.9696 7.50029C39.6491 7.07005 39.0341 6.14371 38.5 6.00029C37.7878 5.78517 33.9273 3.60951 33.5 3C32.681 1.81683 32.1716 7.11099 30.7473 6.82415C30.6404 7.39782 30.9965 8.04318 30.3556 8.54514C29.8571 8.93953 29.4298 9.44148 28.7888 9.22636C28.4684 9.72831 28.2547 10.2303 27.8987 10.5529C27.3289 11.1266 26.6524 11.5927 26.0471 12.1305C25.6554 12.4532 25.2993 12.5249 24.872 12.3098C23.2697 11.4851 21.6317 10.6964 20.0294 9.90758C19.887 9.83587 19.7445 9.72831 19.6377 9.76417C18.8543 10.0869 18.1066 10.4454 17.3232 10.8039C17.6793 11.019 17.9285 11.1983 18.2134 11.3776C18.3202 11.2342 18.4626 11.019 18.6051 10.8039C18.8187 10.4812 19.1748 10.3737 19.4953 10.5171C20.3498 10.8756 21.24 11.0908 21.9166 11.8078C22.4151 12.3456 22.4507 12.6683 21.9166 13.1703C21.8454 13.242 21.7385 13.3137 21.6317 13.3854C21.9878 13.6722 22.1658 13.9949 21.9878 14.3534C21.8454 14.7478 21.4893 14.7837 21.1332 14.7837C20.5279 14.8195 19.8869 14.8913 19.2816 14.963C18.8187 15.0347 18.3202 15.0705 17.8929 15.2139C17.0383 15.5366 16.255 15.9669 15.4004 16.3613C15.3292 16.3971 15.1868 16.433 15.1155 16.3971C14.7595 16.2896 14.617 16.433 14.5102 16.7557C14.4746 16.8991 14.4034 17.0425 14.3322 17.15C14.0829 17.7596 13.7624 17.903 13.1927 17.652C12.801 17.4727 12.5874 17.5086 12.3738 17.903C12.4094 18.1539 12.3381 18.2257 12.3025 18.3332ZM22.0234 26.5437C21.9522 26.5796 21.881 26.6513 21.8098 26.6872C22.237 27.4042 22.6643 28.1213 23.1272 28.8384C23.4477 29.3403 23.9106 29.7347 24.2311 30.2367C24.4447 30.5594 24.6228 30.5952 24.8364 30.4877C24.6228 30.2725 24.3735 30.0933 24.1955 29.8423C23.7682 29.1611 23.4477 28.444 23.0204 27.7986C22.7356 27.3325 22.3439 26.9381 22.0234 26.5437Z" fill="#9A9A9A"/>
<circle cx="24" cy="24" r="23.3" stroke="#9A9A9A" stroke-width="1.4"/>
</svg>
