<svg width="48" height="48" viewBox="0 0 48 48" fill="none" xmlns="http://www.w3.org/2000/svg">
<g clip-path="url(#clip0)">
<path d="M48 46.209H46.4517V47.7503H48V46.209Z" fill="#282828"/>
<path d="M37.9355 40.0452H31.392L29.249 26.9441H30.9677V22.3202H28.4934L27.233 14.6137H28.6452V9.98979H27.2818C27.6666 9.38175 27.871 8.6057 27.871 7.67783C27.871 2.43355 23.6686 0.852946 23.4906 0.788212L22.6126 0.470703L22.4625 1.38701C22.2093 2.92292 21.7192 3.635 21.2462 4.32396C20.6965 5.12313 20.129 5.94926 20.129 7.67783C20.129 8.62188 20.3094 9.39099 20.6625 9.98979H19.3548V14.6137H20.767L19.5066 22.3202H17.0323V26.9441H18.7502L16.6072 40.0452H10.0645V46.2104H0V47.7517H44.9032V46.2104H37.9355V40.0452ZM15.5992 46.2104H11.6129V41.5865H16.3556L15.5992 46.2104ZM22.5236 5.1948C22.9347 4.59677 23.4255 3.88238 23.7646 2.6686C24.7587 3.32597 26.3226 4.81487 26.3226 7.67783C26.3226 9.29852 25.6281 9.98979 24 9.98979C22.776 9.98979 21.6774 9.81331 21.6774 7.67783C21.6774 6.42553 22.032 5.90996 22.5236 5.1948ZM20.9032 11.5311H27.0968V13.0724H20.9032V11.5311ZM25.7365 18.4469L21.216 21.4625L22.1288 15.8814L25.7365 18.4469ZM23.0098 14.6137H25.6645L26.0129 16.7492L23.0098 14.6137ZM26.5099 19.7863L26.9241 22.3202H22.711L26.5099 19.7863ZM18.5806 25.4028V23.8615H29.4194V25.4028H18.5806ZM28.6908 33.1209L20.6245 26.9441H27.6805L28.6908 33.1209ZM20.071 28.4646L28.6359 35.0229L17.784 42.4489L20.071 28.4646ZM17.1685 46.2104L17.448 44.5011L17.4705 44.5335L29.2397 36.4794L30.8315 46.2104H17.1685ZM36.3871 46.2104H32.4008L31.6444 41.5865H36.3871V46.2104Z" fill="#282828"/>
<path d="M34.8389 43.127H33.2905V44.6683H34.8389V43.127Z" fill="#282828"/>
<path d="M14.7095 43.127H13.1611V44.6683H14.7095V43.127Z" fill="#282828"/>
</g>
<defs>
<clipPath id="clip0">
<rect width="48" height="47.7804" fill="white" transform="translate(0 0.21875)"/>
</clipPath>
</defs>
</svg>
