<svg viewBox="0 0 32 32" xmlns="http://www.w3.org/2000/svg" id="insta">
        <g clip-path="url(#clip0)">
        <path fill-rule="evenodd" clip-rule="evenodd" d="M16 21.703a5.712 5.712 0 0 1-5.705-5.705A5.712 5.712 0 0 1 16 10.294a5.712 5.712 0 0 1 5.705 5.704A5.712 5.712 0 0 1 16 21.703zm0-8.997a3.299 3.299 0 0 0-3.295 3.293A3.3 3.3 0 0 0 16 19.294 3.298 3.298 0 0 0 19.294 16 3.298 3.298 0 0 0 16 12.706z"></path>
        <path d="M21.888 11.473c-.744 0-1.35-.605-1.35-1.35 0-.744.606-1.35 1.35-1.35a1.35 1.35 0 0 1 0 2.7z"></path>
        <path fill-rule="evenodd" clip-rule="evenodd" d="M21.488 27.075a5.593 5.593 0 0 0 5.587-5.588V10.512a5.594 5.594 0 0 0-5.587-5.588H10.512a5.594 5.594 0 0 0-5.588 5.588v10.975a5.594 5.594 0 0 0 5.588 5.588h10.976zm0-19.741H10.512a3.18 3.18 0 0 0-3.177 3.177v10.975a3.181 3.181 0 0 0 3.177 3.178h10.976a3.181 3.181 0 0 0 3.177-3.178V10.511a3.18 3.18 0 0 0-3.177-3.177z"></path>
        </g>
        
  </svg>