<svg width="121" height="27" viewBox="0 0 121 27" fill="none" xmlns="http://www.w3.org/2000/svg">
<path d="M120.024 18.0044H113.963V22.3363H120.024V18.0044Z" fill="#282828"/>
<path d="M103.397 0.454834H99.0332V22.3366H103.397V0.454834Z" fill="#282828"/>
<path d="M111.632 0.45459H107.268V10.0105H111.632V0.45459Z" fill="#282828"/>
<path d="M111.632 12.3259H107.268V22.3366H111.632V12.3259Z" fill="#282828"/>
<path d="M37.716 6.76528C38.6274 7.69901 39.2093 8.78546 39.4687 10.0108H43.9067C43.6157 7.54975 42.5886 5.42544 40.8254 3.65865C38.6905 1.52046 36.1 0.454834 33.0713 0.454834H30.9785V4.78676H33.0117C34.8661 4.78676 36.44 5.46015 37.716 6.76528Z" fill="#282828"/>
<path d="M28.6436 0.454834H24.2793V10.0108H28.6436V0.454834Z" fill="#282828"/>
<path d="M76.5517 10.0107C76.8637 8.46262 77.6384 7.12972 78.8583 6.03286C79.8748 5.11996 81.0667 4.58888 82.4479 4.40838V0.041748C79.8153 0.236129 77.5577 1.1768 75.6893 2.88805C73.6281 4.75897 72.4292 7.14361 72.0752 10.0107H76.5517Z" fill="#282828"/>
<path d="M90.4016 10.0109H94.8991C94.843 7.22014 93.7108 4.87715 91.4953 2.94722C89.5393 1.24639 87.2888 0.295307 84.7578 0.0627441V4.42591C86.0864 4.62376 87.2362 5.15137 88.2072 6.0365C89.4271 7.12989 90.1492 8.46279 90.4016 10.0109Z" fill="#282828"/>
<path d="M8.72856 0.454834H4.36426V10.0108H8.72856V0.454834Z" fill="#282828"/>
<path d="M56.9845 10.0106C56.5428 9.73642 56.0661 9.5108 55.5543 9.33724L53.423 8.44864L52.5045 8.05294C51.7088 7.69542 51.2881 7.14351 51.2881 6.27227C51.2881 5.73772 51.4879 5.28301 51.9051 4.8873C52.3047 4.51242 52.7639 4.33193 53.2792 4.33193C53.8576 4.33193 54.3168 4.50895 54.6744 4.8873C55.032 5.28301 55.2142 5.73772 55.2142 6.27227H59.5785C59.5785 4.52978 58.9616 3.04762 57.7452 1.81885C56.5148 0.614384 55.039 0 53.2827 0C51.53 0 50.0332 0.614384 48.7993 1.83968C47.5443 3.06498 46.9238 4.5506 46.9238 6.27227C46.9238 7.71971 47.3445 8.96584 48.1578 10.0106H56.9845Z" fill="#282828"/>
<path d="M20.71 0.454834H16.3457V10.0108H20.71V0.454834Z" fill="#282828"/>
<path d="M51.629 12.3259L53.7603 13.3152C55.1345 13.8289 55.8321 14.6793 55.8321 15.8664C55.8321 16.5988 55.5727 17.1924 55.0749 17.6853C54.5982 18.1817 53.9777 18.4385 53.2801 18.4385C52.5615 18.4385 51.9656 18.1817 51.4643 17.6853C50.9665 17.1924 50.7071 16.578 50.7071 15.8456H46.2832C46.2832 17.7651 46.9598 19.3861 48.3549 20.7329C49.7291 22.0797 51.3661 22.7704 53.2801 22.7704C55.2151 22.7704 56.8276 22.0971 58.1842 20.7537C59.5198 19.4278 60.1964 17.786 60.1964 15.8664C60.1964 14.5683 59.8809 13.3881 59.2464 12.3259H51.629Z" fill="#282828"/>
<path d="M76.507 12.4438H72.041C72.36 15.4498 73.5764 17.9039 75.7498 19.8442C77.6462 21.552 79.8827 22.5204 82.4487 22.7287V18.3655C81.0185 18.1816 79.7916 17.6227 78.761 16.6959C77.485 15.5331 76.7278 14.1273 76.507 12.4438Z" fill="#282828"/>
<path d="M9.5874 17.0536C9.03003 16.3802 8.72856 15.5888 8.72856 14.6793V12.3259H4.36426V14.7002C4.36426 16.8765 5.14247 18.7579 6.67786 20.3199C8.03448 21.7048 9.60843 22.5171 11.3822 22.7323V18.2615C10.646 18.0428 10.0466 17.6298 9.5874 17.0536Z" fill="#282828"/>
<path d="M88.2878 16.6581C87.2782 17.571 86.1004 18.1298 84.7578 18.3381V22.7047C87.2712 22.4617 89.5077 21.4829 91.4743 19.782C93.7669 17.7827 94.9026 15.3495 94.9026 12.4407H90.4402C90.3 14.086 89.5848 15.4709 88.2878 16.6581Z" fill="#282828"/>
<path d="M16.3459 12.3259V14.721C16.3459 15.5506 16.0865 16.3038 15.5502 16.9772C15.0313 17.6506 14.4144 18.0845 13.7168 18.3032V22.7739C15.3714 22.7739 16.9453 22.0033 18.3826 20.4795C19.939 18.8377 20.7137 16.9182 20.7137 14.721V12.3259H16.3459Z" fill="#282828"/>
<path d="M39.5795 12.3259C39.4183 13.7595 38.8189 15.0299 37.7532 16.0851C36.4982 17.3521 34.9418 18.0046 33.0874 18.0046H30.9736V22.3366H33.0664C36.0951 22.3366 38.6891 21.2675 40.8205 19.1327C42.738 17.2132 43.7826 14.9327 43.9579 12.3259H39.5795Z" fill="#282828"/>
<path d="M28.6436 12.3259H24.2793V22.3366H28.6436V12.3259Z" fill="#282828"/>
<path d="M8.7321 10.011H0V12.3262H8.7321V10.011Z" fill="#F3CB30"/>
<path d="M20.7106 10.011H16.3428V12.3227H20.7106V10.011Z" fill="#F3CB30"/>
<path d="M28.6436 10.011H24.2793V12.3262H28.6436V10.011Z" fill="#F3CB30"/>
<path fill-rule="evenodd" clip-rule="evenodd" d="M39.579 12.3262L43.9643 12.3297L43.9047 10.011H39.4668L39.579 12.3262Z" fill="#F3CB30"/>
<path fill-rule="evenodd" clip-rule="evenodd" d="M51.6286 12.3262H59.2495C59.2495 12.3262 58.5904 11.396 58.3065 11.1113C58.0226 10.8232 56.9849 10.011 56.9849 10.011H48.1582C48.1582 10.011 49.4833 11.0836 49.96 11.396C50.3596 11.6563 51.6286 12.3262 51.6286 12.3262Z" fill="#F3CB30"/>
<path d="M103.397 4.27319H99.0332V6.56759H103.397V4.27319Z" fill="#F3CB30"/>
<path d="M113.962 17.9944H111.631V26.6721H113.962V17.9944Z" fill="#F3CB30"/>
<path d="M76.4254 11.4098C76.4254 10.9308 76.4675 10.4622 76.5516 10.011H72.0717C72.0226 10.4553 71.998 10.9065 71.998 11.3682C71.998 11.7292 72.0086 12.0936 72.0436 12.4442H76.5096C76.4605 12.1075 76.4254 11.7604 76.4254 11.4098Z" fill="#F3CB30"/>
<path d="M90.4999 11.4377C90.5069 11.7813 90.4824 12.1145 90.4438 12.4443H94.9028C94.9308 12.0729 94.9308 11.698 94.9273 11.3162C94.9203 10.8753 94.9413 10.4345 94.8993 10.011L90.4053 10.0076C90.4859 10.4692 90.4929 10.9517 90.4999 11.4377Z" fill="#F3CB30"/>
<path d="M111.632 10.011H107.268V12.3262H111.632V10.011Z" fill="#F3CB30"/>
</svg>
