<svg width="86" height="19" viewBox="0 0 86 19" fill="none" xmlns="http://www.w3.org/2000/svg">
<path d="M85.5012 12.8257H81.1836V15.9116H85.5012V12.8257Z" fill="white"/>
<path d="M73.6578 0.323975H70.5488V15.9118H73.6578V0.323975Z" fill="white"/>
<path d="M79.523 0.323975H76.4141V7.13126H79.523V0.323975Z" fill="white"/>
<path d="M79.523 8.78052H76.4141V15.9117H79.523V8.78052Z" fill="white"/>
<path d="M26.8679 4.81931C27.5172 5.48446 27.9317 6.25841 28.1165 7.13126H31.2779C31.0706 5.37813 30.339 3.86485 29.0829 2.60626C27.5621 1.08309 25.7167 0.323975 23.5592 0.323975H22.0684V3.40988H23.5167C24.8377 3.40988 25.9589 3.88958 26.8679 4.81931Z" fill="white"/>
<path d="M20.4049 0.323975H17.2959V7.13126H20.4049V0.323975Z" fill="white"/>
<path d="M54.5326 7.13108C54.7549 6.02826 55.3067 5.07875 56.1758 4.29739C56.8999 3.64707 57.749 3.26875 58.7329 3.14017V0.029541C56.8575 0.168011 55.2493 0.838108 53.9183 2.05714C52.45 3.38991 51.596 5.08865 51.3438 7.13108H54.5326Z" fill="white"/>
<path d="M64.3993 7.13138H67.6032C67.5632 5.14334 66.7567 3.47429 65.1785 2.09948C63.785 0.887862 62.1819 0.210347 60.3789 0.0446777V3.15284C61.3253 3.29378 62.1444 3.66963 62.8361 4.30016C63.7051 5.07905 64.2195 6.02856 64.3993 7.13138Z" fill="white"/>
<path d="M6.21834 0.323975H3.10938V7.13126H6.21834V0.323975Z" fill="white"/>
<path d="M40.5946 7.13121C40.2799 6.93587 39.9403 6.77515 39.5757 6.65151L38.0575 6.01851L37.4032 5.73662C36.8364 5.48193 36.5367 5.08878 36.5367 4.46813C36.5367 4.08734 36.679 3.76342 36.9762 3.48153C37.2609 3.21449 37.588 3.08591 37.9551 3.08591C38.3671 3.08591 38.6943 3.21201 38.949 3.48153C39.2037 3.76342 39.3335 4.08734 39.3335 4.46813H42.4425C42.4425 3.22685 42.003 2.17101 41.1365 1.29568C40.26 0.437664 39.2087 0 37.9576 0C36.709 0 35.6427 0.437665 34.7637 1.31052C33.8697 2.18338 33.4277 3.24168 33.4277 4.46813C33.4277 5.49924 33.7274 6.38694 34.3067 7.13121H40.5946Z" fill="white"/>
<path d="M14.7545 0.323975H11.6455V7.13126H14.7545V0.323975Z" fill="white"/>
<path d="M36.7789 8.78052L38.2971 9.48523C39.276 9.85119 39.773 10.457 39.773 11.3027C39.773 11.8244 39.5882 12.2472 39.2336 12.5983C38.894 12.9519 38.452 13.1349 37.955 13.1349C37.4431 13.1349 37.0186 12.9519 36.6615 12.5983C36.3069 12.2472 36.1221 11.8096 36.1221 11.2878H32.9707C32.9707 12.6552 33.4527 13.8099 34.4465 14.7694C35.4254 15.7288 36.5916 16.2208 37.955 16.2208C39.3335 16.2208 40.4822 15.7411 41.4486 14.7842C42.4 13.8396 42.8819 12.67 42.8819 11.3027C42.8819 10.3779 42.6572 9.53716 42.2052 8.78052H36.7789Z" fill="white"/>
<path d="M54.5007 8.8645H51.3193C51.5466 11.0058 52.4131 12.754 53.9613 14.1363C55.3123 15.3528 56.9055 16.0427 58.7334 16.1911V13.0829C57.7146 12.9518 56.8406 12.5537 56.1064 11.8935C55.1974 11.0652 54.658 10.0638 54.5007 8.8645Z" fill="white"/>
<path d="M6.83015 12.1483C6.4331 11.6686 6.21834 11.1048 6.21834 10.457V8.78052H3.10938V10.4718C3.10938 12.0222 3.66374 13.3624 4.7575 14.4751C5.7239 15.4617 6.84513 16.0403 8.1087 16.1936V13.0088C7.58429 12.853 7.15728 12.5588 6.83015 12.1483Z" fill="white"/>
<path d="M62.8936 11.8666C62.1744 12.5169 61.3353 12.915 60.3789 13.0634V16.174C62.1694 16.0009 63.7626 15.3036 65.1635 14.092C66.7966 12.6678 67.6057 10.9344 67.6057 8.8623H64.4268C64.3269 10.0344 63.8175 11.021 62.8936 11.8666Z" fill="white"/>
<path d="M11.6453 8.78052V10.4867C11.6453 11.0776 11.4605 11.6142 11.0785 12.0939C10.7089 12.5736 10.2694 12.8827 9.77246 13.0385V16.2233C10.9511 16.2233 12.0723 15.6744 13.0962 14.5888C14.2049 13.4193 14.7568 12.0519 14.7568 10.4867V8.78052H11.6453Z" fill="white"/>
<path d="M28.196 8.78052C28.0811 9.80173 27.6541 10.7067 26.8949 11.4584C26.001 12.361 24.8922 12.8258 23.5712 12.8258H22.0654V15.9117H23.5562C25.7138 15.9117 27.5617 15.1501 29.08 13.6294C30.4459 12.2621 31.1901 10.6375 31.3149 8.78052H28.196Z" fill="white"/>
<path d="M20.4049 8.78052H17.2959V15.9117H20.4049V8.78052Z" fill="white"/>
<path d="M6.22043 7.13159H0V8.78087H6.22043V7.13159Z" fill="#F3CB30"/>
<path d="M14.7531 7.13159H11.6416V8.7784H14.7531V7.13159Z" fill="#F3CB30"/>
<path d="M20.4049 7.13159H17.2959V8.78087H20.4049V7.13159Z" fill="#F3CB30"/>
<path fill-rule="evenodd" clip-rule="evenodd" d="M28.1951 8.78087L31.3191 8.78334L31.2766 7.13159H28.1152L28.1951 8.78087Z" fill="#F3CB30"/>
<path fill-rule="evenodd" clip-rule="evenodd" d="M36.7788 8.78087H42.2077C42.2077 8.78087 41.7382 8.11819 41.5359 7.91543C41.3337 7.7102 40.5945 7.13159 40.5945 7.13159H34.3066C34.3066 7.13159 35.2506 7.89565 35.5902 8.11819C35.8749 8.30364 36.7788 8.78087 36.7788 8.78087Z" fill="#F3CB30"/>
<path d="M73.6568 3.04395H70.5479V4.67839H73.6568V3.04395Z" fill="#F3CB30"/>
<path d="M81.1831 12.8186H79.5225V19.0003H81.1831V12.8186Z" fill="#F3CB30"/>
<path d="M54.443 8.12808C54.443 7.78685 54.4729 7.45304 54.5329 7.13159H51.3415C51.3065 7.4481 51.2891 7.76954 51.2891 8.09841C51.2891 8.35557 51.2966 8.6152 51.3215 8.86494H54.5029C54.4679 8.62509 54.443 8.37782 54.443 8.12808Z" fill="#F3CB30"/>
<path d="M64.4688 8.14789C64.4738 8.39269 64.4563 8.63007 64.4288 8.86497H67.6052C67.6252 8.60039 67.6252 8.33335 67.6227 8.06135C67.6177 7.74732 67.6327 7.43329 67.6027 7.13162L64.4014 7.12915C64.4588 7.45802 64.4638 7.80172 64.4688 8.14789Z" fill="#F3CB30"/>
<path d="M79.523 7.13159H76.4141V8.78087H79.523V7.13159Z" fill="#F3CB30"/>
</svg>
