<svg width="32" height="48" viewBox="0 0 32 48" fill="none" xmlns="http://www.w3.org/2000/svg">
<path d="M10 44.0904C10 46.0655 8.20914 47.6667 6 47.6667C3.79086 47.6667 2 46.0655 2 44.0904C2 42.1153 4.69931 39.6946 6 37C7.14829 39.6077 10 42.1153 10 44.0904Z" fill="#282828"/>
<rect x="2" y="29.0001" width="28" height="1" fill="#282828"/>
<path fill-rule="evenodd" clip-rule="evenodd" d="M9.35552 9.73462L8.91101 11.462L27.0401 16.1174L27.4847 14.3901L9.35552 9.73462ZM26.801 17.0885C27.3319 17.2249 27.8694 16.9072 28.0061 16.3762L28.4506 14.6489C28.5892 14.1101 28.2626 13.5573 27.7238 13.419L8.63622 8.51741L7.69325 12.1818L26.801 17.0885Z" fill="#282828"/>
<rect width="1" height="16" transform="matrix(0.984808 -0.173648 0.166956 0.985964 16 13.6737)" fill="#282828"/>
<rect width="1" height="16" transform="matrix(0.984808 0.173648 -0.166956 0.985964 13.6719 13.5)" fill="#282828"/>
<rect x="25" y="16.5" width="1" height="7" fill="#282828"/>
<rect x="5.5" y="16.5" width="1" height="12.5" fill="#282828"/>
<path fill-rule="evenodd" clip-rule="evenodd" d="M26.5 24H24.5V29H26.5V24ZM24.5 23C23.9477 23 23.5 23.4477 23.5 24V30H27.5V24C27.5 23.4477 27.0523 23 26.5 23H24.5Z" fill="#282828"/>
<rect x="12.5" y="24" width="5.5" height="1" fill="#282828"/>
<rect x="13.5" y="19.5" width="4" height="1" fill="#282828"/>
<rect width="6" height="1" transform="matrix(0.707107 -0.707107 0.692929 0.721006 12.5 24.2426)" fill="#282828"/>
<path fill-rule="evenodd" clip-rule="evenodd" d="M7.45288 4.28546C7.7559 4.05819 8.16131 4.02164 8.50009 4.19103L9.85707 4.86952C10.2834 5.0827 10.5 5.56718 10.3746 6.02706L7.61126 16.1594C7.46813 16.6842 6.93172 16.9983 6.40396 16.8664L5.21379 16.5689C4.81057 16.4681 4.51174 16.1283 4.46318 15.7156L3.53714 7.84424C3.49551 7.49041 3.64527 7.14116 3.93029 6.9274L7.45288 4.28546ZM9.40986 5.76394L8.05288 5.08546L4.53029 7.7274L5.45633 15.5987L6.6465 15.8963L9.40986 5.76394Z" fill="#282828"/>
</svg>
