<svg width="48" height="48" viewBox="0 0 48 48" fill="none" xmlns="http://www.w3.org/2000/svg">
<path d="M48 17.0323V15.4839H32.5161V17.0323H34.0645V24H32.5161V25.5484H34.0645V32.5161H31.6645L28.7311 4.64516H30.1935V0H20.9032V4.64516H22.3657L19.4323 32.5161H18.1665L6.16103 18.2594C5.99768 16.704 4.69471 15.4839 3.09677 15.4839C1.3889 15.4839 0 16.8728 0 18.5806C0 20.0199 0.990194 21.2214 2.32258 21.5675V46.4516H0V48H44.9032V46.4516H43.3548V38.7097H48V32.5161H46.4516V25.5484H48V24H46.4516V17.0323H48ZM35.6129 17.0323H44.9032V24H35.6129V17.0323ZM35.6129 25.5484H44.9032V32.5161H35.6129V25.5484ZM30.0604 32.0625L23.5463 25.5484H29.3745L30.0604 32.0625ZM29.1383 23.3048L24.1897 17.8065H28.5592L29.1383 23.3048ZM23.5154 8.51613L23.9226 4.64516H27.1742L27.5814 8.51613H23.5154ZM27.7448 10.0645L28.2813 15.1626L24.713 10.0645H27.7448ZM27.1579 16.2581H22.7001L23.2831 10.7218L27.1579 16.2581ZM22.4516 1.54839H28.6452V3.09677H28.5677H22.529H22.4516V1.54839ZM22.4926 18.2346L27.6813 24H21.8857L22.4926 18.2346ZM21.6875 25.879L28.3246 32.5161H20.9884L21.6875 25.879ZM16.1419 32.5161H12.7943L11.7298 30.9677H14.8382L16.1419 32.5161ZM11.2227 26.6741L13.5345 29.4194H10.6653L10.3231 28.9215L11.2227 26.6741ZM10.0924 25.3308L9.26942 27.3879L6.45523 23.2947L9.46297 24.5837L10.0924 25.3308ZM5.74297 20.1662L7.24413 21.9492L5.01445 20.9938C5.304 20.7623 5.55097 20.4852 5.74297 20.1662ZM1.54839 18.5806C1.54839 17.7267 2.24284 17.0323 3.09677 17.0323C3.95071 17.0323 4.64516 17.7267 4.64516 18.5806C4.64516 19.4346 3.95071 20.129 3.09677 20.129C2.24284 20.129 1.54839 19.4346 1.54839 18.5806ZM10.0645 46.4516H3.87097V22.2697L8.57806 29.1159L8.57187 29.1321L8.59587 29.1414L10.9154 32.5161H5.41935V38.7097H10.0645V46.4516ZM17.8065 43.3548H17.0323V44.9032H17.8065V46.4516H11.6129V44.9032H15.4839V43.3548H11.6129V38.7097H17.8065V43.3548ZM34.0645 46.4516H19.3548V38.7097H34.0645V46.4516ZM41.8064 43.3548H41.0323V44.9032H41.8064V46.4516H35.6129V44.9032H39.4839V43.3548H35.6129V38.7097H41.8064V43.3548ZM46.4516 37.1613H6.96774V34.0645H19.2697H31.8271H46.4516V37.1613Z" fill="#282828"/>
</svg>
