<svg width="46" height="45" viewBox="0 0 46 45" fill="none" xmlns="http://www.w3.org/2000/svg">
<path d="M1.70996 3.10938V30.5652" stroke="#282828" stroke-width="1.5" stroke-linecap="round"/>
<path d="M20.1611 3.10938V12.2613" stroke="#282828" stroke-width="1.5" stroke-linecap="round"/>
<path d="M1 2.9375L21.0483 2.9375" stroke="#282828" stroke-width="1.5" stroke-linecap="round"/>
<path d="M1 9.97656L21.0483 9.97656" stroke="#282828" stroke-width="1.5" stroke-linecap="round"/>
<path d="M1 17.0195L7.20965 17.0195" stroke="#282828" stroke-width="1.5" stroke-linecap="round"/>
<path d="M3.48389 1L7.20967 1" stroke="#282828" stroke-width="1.5" stroke-linecap="round"/>
<path d="M1 24.0586L7.20965 24.0586" stroke="#282828" stroke-width="1.5" stroke-linecap="round"/>
<path d="M1 31.0977L7.20965 31.0977" stroke="#282828" stroke-width="1.5" stroke-linecap="round"/>
<path d="M10.0483 14.5469V42.0027" stroke="#282828" stroke-width="1.5" stroke-linecap="round"/>
<path d="M28.5 14.5469V20.1788" stroke="#282828" stroke-width="1.5" stroke-linecap="round"/>
<path d="M9.33838 14.375L29.3867 14.375" stroke="#282828" stroke-width="1.5" stroke-linecap="round"/>
<path d="M9.33838 21.4141L23.7093 21.4141" stroke="#282828" stroke-width="1.5" stroke-linecap="round"/>
<path d="M9.33838 28.457L17.677 28.457" stroke="#282828" stroke-width="1.5" stroke-linecap="round"/>
<path d="M11.8223 12.4375L15.5481 12.4375" stroke="#282828" stroke-width="1.5" stroke-linecap="round"/>
<path d="M9.33838 35.4961L15.548 35.4961" stroke="#282828" stroke-width="1.5" stroke-linecap="round"/>
<path d="M9.33838 42.5352L19.0964 42.5352" stroke="#282828" stroke-width="1.5" stroke-linecap="round"/>
<path d="M44.29 3.10938L44.29 31.0932" stroke="#282828" stroke-width="1.5" stroke-linecap="round"/>
<path d="M25.8389 3.10938V12.2613" stroke="#282828" stroke-width="1.5" stroke-linecap="round"/>
<path d="M45 2.9375L24.9517 2.9375" stroke="#282828" stroke-width="1.5" stroke-linecap="round"/>
<path d="M45 9.97656L24.9517 9.97656" stroke="#282828" stroke-width="1.5" stroke-linecap="round"/>
<path d="M45 17.0195L31.3388 17.0195" stroke="#282828" stroke-width="1.5" stroke-linecap="round"/>
<path d="M31.3389 1L27.6131 1" stroke="#282828" stroke-width="1.5" stroke-linecap="round"/>
<path d="M45 24.0586L40.5645 24.0586" stroke="#282828" stroke-width="1.5" stroke-linecap="round"/>
<path d="M45 31.0977L43.7581 31.0977" stroke="#282828" stroke-width="1.5" stroke-linecap="round"/>
<path d="M41.5882 33.3816C41.5882 39.377 36.6871 44.2475 30.6286 44.2475C24.57 44.2475 19.6689 39.377 19.6689 33.3816C19.6689 27.3861 24.57 22.5156 30.6286 22.5156C36.6871 22.5156 41.5882 27.3861 41.5882 33.3816Z" stroke="#282828" stroke-width="1.5"/>
<path fill-rule="evenodd" clip-rule="evenodd" d="M30.562 24.9375C30.9417 24.9375 31.2495 25.2453 31.2495 25.625L31.2495 41.3219C31.2495 41.7016 30.9417 42.0094 30.562 42.0094C30.1823 42.0094 29.8745 41.7016 29.8745 41.3219L29.8745 25.625C29.8745 25.2453 30.1823 24.9375 30.562 24.9375Z" fill="#282828"/>
<path fill-rule="evenodd" clip-rule="evenodd" d="M30.6182 27.9101C29.1149 27.9101 27.9347 28.8467 27.9347 30.3026C27.9347 30.8996 28.2037 31.3036 28.7208 31.6631C29.279 32.0512 30.0479 32.3302 30.9375 32.647C30.9541 32.6528 30.9707 32.6588 30.9873 32.6647C31.8155 32.9595 32.7532 33.2933 33.4779 33.7971C34.2581 34.3396 34.8541 35.1236 34.8541 36.2866C34.8541 37.2054 34.5005 38.1854 33.7279 38.9108C32.9453 39.6455 31.7941 40.063 30.3067 39.9646C27.2062 39.7595 26.1162 37.3276 26.1162 35.9346C26.1162 35.5549 26.424 35.2471 26.8037 35.2471C27.1834 35.2471 27.4912 35.5549 27.4912 35.9346C27.4912 36.7709 28.1754 38.4456 30.3974 38.5926C31.5713 38.6702 32.3274 38.3397 32.7867 37.9084C33.256 37.4678 33.4791 36.8638 33.4791 36.2866C33.4791 35.6897 33.2101 35.2856 32.693 34.9261C32.1348 34.538 31.3659 34.2591 30.4763 33.9423C30.4598 33.9364 30.4432 33.9305 30.4266 33.9246C29.5983 33.6297 28.6606 33.2959 27.9359 32.7921C27.1557 32.2497 26.5598 31.4657 26.5598 30.3026C26.5598 27.8866 28.5731 26.5352 30.6182 26.5352C32.2579 26.5352 34.103 27.4555 34.6512 29.4133C34.7536 29.7789 34.5402 30.1583 34.1745 30.2607C33.8089 30.3631 33.4295 30.1497 33.3271 29.784C32.9882 28.5738 31.8172 27.9101 30.6182 27.9101Z" fill="#282828"/>
</svg>
