<svg width="224" height="160" viewBox="0 0 224 160" fill="none" xmlns="http://www.w3.org/2000/svg">
<rect width="224" height="160" fill="white"/>
<path d="M70.6683 69.1916C70.6683 69.1916 68.1017 56.7317 70.6683 44.0078C70.715 44.1632 59.8887 55.8151 56 69.1916C56 69.2071 70.7927 69.3314 70.6683 69.1916Z" fill="#2C3D8C"/>
<path d="M56.3579 93.9913L58.9711 119.626L64.3065 110.692C64.3065 110.692 80.6547 133.251 101.172 135.845C101.141 135.814 100.207 42.1478 100.207 42.1478C100.207 42.1478 94.2653 41.9769 94.2653 36.384C94.3586 30.1852 100.876 31.3348 100.876 31.3348V27.28C100.876 27.28 90.361 26.7051 90.2366 36.3529C90.2366 44.82 96.6608 45.4259 96.6608 45.4259V57.6838H85.9901V63.401H96.7074V111.19C96.7074 111.19 79.877 114.856 71.0884 101.915L81.9769 94.0379L56.3579 93.9913Z" fill="#2C3D8C"/>
<path d="M150.434 102.256H159.549L162.442 93.9283L158.662 93.9594L158.585 64.0993C158.585 64.0993 158.289 61.8 155.069 61.8C152.549 61.8 152.067 64.0216 152.067 64.0216L152.098 93.8351L150.465 93.9128L150.434 95.6839H147.774V53.0843C147.774 53.0843 147.805 51.1268 143.543 51.0802C138.877 50.9715 138.985 53.3018 138.985 53.3018V95.5596C138.985 95.5596 138.954 72.178 138.985 72.1469C135.952 71.945 133.09 73.2811 133.09 73.2811V35.5443C133.09 35.5443 132.499 33.7266 128.393 33.7266C124.286 33.7266 124.099 36.2745 124.099 36.2745V83.9698H119.06V88.1179L131.395 91.862V95.5596C131.395 95.5596 126.993 95.5907 126.215 95.5907C125.437 95.5907 125.39 95.715 124.862 96.0412C123.462 96.9112 120.755 98.9309 119.728 102.178V116.083H124.737V103.017L127.848 99.6455H138.845V102.085H148.661V99.7232H150.403L150.434 102.256Z" fill="black"/>
<path d="M138.846 84.0931H134.692V76.5892L135.486 75.7969H138.877C138.877 75.7814 138.892 84.0309 138.846 84.0931Z" fill="white"/>
<path d="M138.846 85.7852H134.692V88.1155L136.699 88.97H138.954C138.954 88.97 138.768 85.7852 138.846 85.7852Z" fill="white"/>
<path d="M131.473 86.5268V85.75H129.062V86.418C129.062 86.418 131.55 86.5268 131.473 86.5268Z" fill="white"/>
<path d="M134.692 92.2656V95.5592H138.846V93.1512L134.692 92.2656Z" fill="white"/>
<path d="M114.098 135.997C116.042 135.997 119.822 131.227 119.822 129.953V32.869C119.822 32.869 120.709 31.4863 123.711 31.4863C126.713 31.4863 163.22 43.4179 163.22 79.8186C163.22 116.219 131.55 128.337 131.55 128.337C131.55 128.337 119.993 131.336 119.666 135.779C119.806 136.276 122.886 135.779 122.886 135.779C122.886 135.779 167 127.452 167 79.5079C167 31.5484 119.309 20.9995 103.427 24.666C103.427 24.7748 102.54 24.5573 101.094 26.5459C99.6472 28.55 99.9894 34.6556 99.9894 34.6556V134.552C99.9894 134.552 99.8805 135.888 101.436 135.888C102.976 135.888 112.153 135.997 114.098 135.997Z" fill="#F9EB55"/>
<path d="M134.77 60.9297H152.705C152.705 60.9297 149.407 65.7458 148.552 65.7458C147.696 65.7458 146.374 62.1881 145.581 62.1881C144.803 62.1881 144.321 65.6215 143.699 65.6215C143.061 65.6215 142.812 62.1415 142.112 62.1415C141.412 62.1415 140.603 65.8701 139.888 65.8856C139.172 65.8856 134.77 60.9297 134.77 60.9297Z" fill="black"/>
<path d="M134.77 60.9297H152.705C152.705 60.9297 149.407 65.7458 148.552 65.7458C147.696 65.7458 146.374 62.1881 145.581 62.1881C144.803 62.1881 144.321 65.6215 143.699 65.6215C143.061 65.6215 142.812 62.1415 142.112 62.1415C141.412 62.1415 140.603 65.8701 139.888 65.8856C139.172 65.8856 134.77 60.9297 134.77 60.9297Z" stroke="white" stroke-width="2" stroke-miterlimit="10"/>
<path d="M148.801 69.2539H162.287C162.287 69.2539 160 72.5165 159.316 72.5165C158.647 72.5165 157.092 70.155 156.718 70.155C156.345 70.155 155.878 72.5631 155.303 72.5631C154.743 72.5631 154.525 70.1239 153.887 70.1239C153.249 70.1239 152.41 73.1224 151.694 73.1224C151.025 73.0913 148.801 69.2539 148.801 69.2539Z" fill="black"/>
<path d="M148.801 69.2539H162.287C162.287 69.2539 160 72.5165 159.316 72.5165C158.647 72.5165 157.092 70.155 156.718 70.155C156.345 70.155 155.878 72.5631 155.303 72.5631C154.743 72.5631 154.525 70.1239 153.887 70.1239C153.249 70.1239 152.41 73.1224 151.694 73.1224C151.025 73.0913 148.801 69.2539 148.801 69.2539Z" stroke="white" stroke-width="2" stroke-miterlimit="10"/>
<path d="M133.106 48.5305C133.806 48.4218 138.053 43.8076 138.053 43.8076L119.822 43.6367C119.822 43.6367 123.913 48.8568 124.831 48.7946C125.733 48.7325 126.106 44.8951 126.884 44.9107C127.662 44.9262 128.626 48.515 129.217 48.515C129.809 48.515 130.586 45.0039 131.364 45.0039C132.126 45.0194 132.406 48.6393 133.106 48.5305Z" fill="black"/>
<path d="M133.106 48.5305C133.806 48.4218 138.053 43.8076 138.053 43.8076L119.822 43.6367C119.822 43.6367 123.913 48.8568 124.831 48.7946C125.733 48.7325 126.106 44.8951 126.884 44.9107C127.662 44.9262 128.626 48.515 129.217 48.515C129.809 48.515 130.586 45.0039 131.364 45.0039C132.126 45.0194 132.406 48.6393 133.106 48.5305Z" stroke="white" stroke-width="2" stroke-miterlimit="10"/>
<path d="M123.54 56.8086H133.51L133.479 59.2167C133.479 59.2167 131.628 61.5781 131.115 61.6247C130.586 61.6558 130.71 58.704 130.228 58.6884C129.746 58.6729 129.264 60.9567 128.75 61.0033C128.222 61.0344 127.786 58.2224 127.179 58.3622C126.557 58.4865 126.091 62.6035 125.406 62.5258C124.691 62.4326 123.54 56.8086 123.54 56.8086Z" fill="black"/>
<path d="M123.54 56.8086H133.51L133.479 59.2167C133.479 59.2167 131.628 61.5781 131.115 61.6247C130.586 61.6558 130.71 58.704 130.228 58.6884C129.746 58.6729 129.264 60.9567 128.75 61.0033C128.222 61.0344 127.786 58.2224 127.179 58.3622C126.557 58.4865 126.091 62.6035 125.406 62.5258C124.691 62.4326 123.54 56.8086 123.54 56.8086Z" stroke="white" stroke-width="2" stroke-miterlimit="10"/>
<path d="M139.095 74.9375L147.821 74.9996L147.883 77.6097C147.883 77.6097 145.923 79.8779 145.052 79.8779C144.181 79.8779 143.668 76.5222 142.952 76.5222C142.237 76.5222 141.366 80.111 140.806 80.111C140.246 80.111 138.877 75.7609 138.877 75.7609L139.095 74.9375Z" fill="black"/>
<path d="M139.095 74.9375L147.821 74.9996L147.883 77.6097C147.883 77.6097 145.923 79.8779 145.052 79.8779C144.181 79.8779 143.668 76.5222 142.952 76.5222C142.237 76.5222 141.366 80.111 140.806 80.111C140.246 80.111 138.877 75.7609 138.877 75.7609L139.095 74.9375Z" stroke="white" stroke-width="2" stroke-miterlimit="10"/>
<path d="M151.29 80.0218L158.554 80.0529V82.4455C158.554 82.4455 157.589 83.999 156.889 83.999C156.189 83.999 154.634 81.2803 154.105 81.2803C153.576 81.2803 151.818 84.838 151.258 84.838C150.683 84.8224 151.181 79.8976 151.29 80.0218Z" fill="black"/>
<path d="M151.29 80.0218L158.554 80.0529V82.4455C158.554 82.4455 157.589 83.999 156.889 83.999C156.189 83.999 154.634 81.2803 154.105 81.2803C153.576 81.2803 151.818 84.838 151.258 84.838C150.683 84.8224 151.181 79.8976 151.29 80.0218Z" stroke="white" stroke-width="2" stroke-miterlimit="10"/>
<path d="M115.295 53.9386H114.004V47.4446H105.978V53.9386H104.687V40.5H105.978V46.357H114.004V40.5H115.295V53.9386ZM115.295 98.853H114.004V92.359H105.978V98.853H104.687V85.4144H105.978V91.2714H114.004V85.4144H115.295V98.853ZM115.295 121.302H114.004V108.967H105.978V121.302H104.687V107.864H115.28V121.302H115.295ZM110.178 76.6677C106.834 76.6677 104.811 74.9276 104.811 72.069V71.9603H106.04C106.04 74.446 107.705 75.6423 110.271 75.6423C112.542 75.6423 113.911 74.1819 113.911 72.473C113.911 70.9038 112.573 69.8629 110.847 69.8629H108.7V68.7754H110.847C112.278 68.7754 113.553 67.9831 113.553 66.4139C113.553 64.5496 112.122 63.7107 110.287 63.7107C108.156 63.7107 106.6 64.7361 106.491 66.7713H105.247C105.387 63.9903 107.425 62.6387 110.256 62.6387C112.791 62.6387 114.844 63.7728 114.844 66.3052C114.844 67.719 113.849 68.822 112.853 69.1483V69.2104C114.269 69.5833 115.202 70.6863 115.202 72.4574C115.202 74.1042 113.958 76.6677 110.178 76.6677Z" fill="black"/>
<path d="M115.295 40.5H114.004V46.357H105.978V40.5H104.687V53.9386H105.978V47.4446H114.004V53.9386H115.295V40.5Z" stroke="black" stroke-width="2" stroke-miterlimit="10"/>
<path d="M115.202 72.4398C115.202 70.6687 114.269 69.5657 112.853 69.1928V69.1307C113.833 68.7889 114.844 67.7013 114.844 66.2876C114.844 63.7552 112.791 62.6211 110.256 62.6211C107.425 62.6211 105.387 63.9727 105.247 66.7537H106.491C106.6 64.7184 108.156 63.6931 110.287 63.6931C112.122 63.6931 113.553 64.5165 113.553 66.3963C113.553 67.9655 112.293 68.7578 110.847 68.7578H108.7V69.8453H110.847C112.573 69.8453 113.911 70.8862 113.911 72.4553C113.911 74.1798 112.527 75.6247 110.271 75.6247C107.705 75.6247 106.04 74.4284 106.04 71.9427H104.812V72.0514C104.812 74.9256 106.834 76.65 110.178 76.65C113.958 76.6656 115.202 74.1022 115.202 72.4398Z" stroke="black" stroke-width="2" stroke-miterlimit="10"/>
<path d="M115.295 85.4141H114.004V91.2556H105.978V85.4141H104.687V98.8527H105.978V92.3586H114.004V98.8527H115.295V85.4141Z" stroke="black" stroke-width="2" stroke-miterlimit="10"/>
<path d="M115.295 107.863H104.687V121.302H105.978V108.966H114.004V121.302H115.295V107.863Z" stroke="black" stroke-width="2" stroke-miterlimit="10"/>
</svg>
