<svg width="9" height="16" viewBox="0 0 9 16" fill="none" xmlns="http://www.w3.org/2000/svg">
<path d="M4.49989 2.42008C5.4155 2.42008 6.16028 3.18698 6.16028 4.12979C6.16028 5.07182 5.41531 5.83871 4.49989 5.83871C3.58485 5.83871 2.83989 5.07182 2.83989 4.12979C2.8397 3.18678 3.58505 2.42008 4.49989 2.42008ZM4.49989 8.25761C6.71156 8.25761 8.51015 6.40618 8.51015 4.12979C8.51015 1.85222 6.71175 0 4.49989 0C2.28841 0 0.489625 1.85242 0.489625 4.12979C0.489625 6.40618 2.28841 8.25761 4.49989 8.25761ZM6.12227 11.6258C6.94725 11.4324 7.73453 11.0967 8.45084 10.633C8.71455 10.4622 8.90154 10.1905 8.97069 9.87766C9.03985 9.56484 8.98549 9.23656 8.81958 8.96502C8.73753 8.83043 8.63051 8.71382 8.50465 8.62185C8.3788 8.52989 8.23657 8.46437 8.0861 8.42905C7.93564 8.39373 7.77988 8.3893 7.62775 8.41601C7.47562 8.44273 7.3301 8.50006 7.19951 8.58473C5.55659 9.64831 3.44204 9.64752 1.80047 8.58473C1.66989 8.50004 1.52438 8.44269 1.37226 8.41596C1.22014 8.38924 1.0644 8.39366 0.913941 8.42899C0.763484 8.46431 0.621267 8.52983 0.495428 8.62181C0.36959 8.71379 0.262601 8.83041 0.180582 8.96502C0.014622 9.23649 -0.0398241 9.56472 0.0292182 9.87752C0.0982605 10.1903 0.285137 10.4621 0.548746 10.633C1.26501 11.0965 2.05213 11.4322 2.87693 11.6258L0.635125 13.9346C0.414817 14.1616 0.29108 14.4693 0.291134 14.7902C0.291188 15.1111 0.415028 15.4188 0.635413 15.6456C0.855797 15.8725 1.15467 15.9999 1.46629 15.9999C1.77791 15.9998 2.07674 15.8723 2.29705 15.6453L4.49951 13.3771L6.70331 15.6455C6.81227 15.7579 6.94168 15.8471 7.08414 15.9079C7.22659 15.9687 7.37929 16 7.5335 16C7.68772 16 7.84041 15.9687 7.98287 15.9079C8.12532 15.8471 8.25473 15.7579 8.3637 15.6455C8.47298 15.5334 8.55969 15.4001 8.61885 15.2533C8.67802 15.1065 8.70847 14.9492 8.70847 14.7903C8.70847 14.6314 8.67802 14.474 8.61885 14.3273C8.55969 14.1805 8.47298 14.0472 8.3637 13.935L6.12227 11.6258Z" fill="white"/>
</svg>
