<svg width="48" height="48" viewBox="0 0 48 48" fill="none" xmlns="http://www.w3.org/2000/svg">
<path d="M42.5 45.5H10.5V2.5H34.2929L42.5 10.7071V45.5Z" stroke="#9A9A9A"/>
<path d="M17.4522 30V21.48H21.0282C21.4122 21.48 21.7642 21.56 22.0842 21.72C22.4122 21.88 22.6922 22.092 22.9242 22.356C23.1562 22.612 23.3362 22.908 23.4642 23.244C23.6002 23.572 23.6682 23.908 23.6682 24.252C23.6682 24.612 23.6042 24.96 23.4762 25.296C23.3562 25.624 23.1842 25.92 22.9602 26.184C22.7362 26.44 22.4642 26.648 22.1442 26.808C21.8322 26.96 21.4842 27.036 21.1002 27.036H18.7962V30H17.4522ZM18.7962 25.848H21.0162C21.2082 25.848 21.3802 25.808 21.5322 25.728C21.6922 25.648 21.8282 25.536 21.9402 25.392C22.0522 25.248 22.1402 25.08 22.2042 24.888C22.2682 24.696 22.3002 24.484 22.3002 24.252C22.3002 24.012 22.2642 23.796 22.1922 23.604C22.1202 23.412 22.0202 23.248 21.8922 23.112C21.7642 22.968 21.6162 22.86 21.4482 22.788C21.2882 22.708 21.1202 22.668 20.9442 22.668H18.7962V25.848ZM24.9288 30V21.48H27.9528C28.6408 21.48 29.2408 21.592 29.7528 21.816C30.2728 22.04 30.7048 22.344 31.0488 22.728C31.4008 23.112 31.6648 23.564 31.8408 24.084C32.0168 24.596 32.1048 25.144 32.1048 25.728C32.1048 26.376 32.0048 26.964 31.8048 27.492C31.6128 28.012 31.3368 28.46 30.9768 28.836C30.6168 29.204 30.1808 29.492 29.6688 29.7C29.1568 29.9 28.5848 30 27.9528 30H24.9288ZM30.7368 25.728C30.7368 25.28 30.6728 24.868 30.5448 24.492C30.4248 24.116 30.2448 23.796 30.0048 23.532C29.7648 23.26 29.4728 23.048 29.1288 22.896C28.7848 22.744 28.3928 22.668 27.9528 22.668H26.2728V28.812H27.9528C28.4008 28.812 28.7968 28.736 29.1408 28.584C29.4928 28.424 29.7848 28.208 30.0168 27.936C30.2568 27.656 30.4368 27.328 30.5568 26.952C30.6768 26.576 30.7368 26.168 30.7368 25.728ZM33.5186 30V21.48H39.1946V22.668H34.8626V25.212H38.4866V26.328H34.8626V30H33.5186Z" fill="#FFCC08"/>
<path d="M15 15.9767C15 18.1987 12.9853 20 10.5 20C8.01472 20 6 18.1987 6 15.9767C6 13.7547 9.03673 11.0314 10.5 8C11.7918 10.9336 15 13.7547 15 15.9767Z" fill="#FFCC08"/>
</svg>
