<svg width="48" height="48" viewBox="0 0 48 48" fill="none" xmlns="http://www.w3.org/2000/svg">
<g clip-path="url(#clip0)">
<path d="M14.2176 20.8237L14.2159 20.8542C14.0976 22.9256 15.2579 24.8661 17.1726 25.7964L17.1923 25.806C17.8673 26.1289 18.4206 26.6613 18.7697 27.3233L18.7776 27.3377C19.7424 29.1747 21.7378 30.2883 23.8651 30.1766L23.8974 30.1749C24.6689 30.1317 25.4347 30.3307 26.0875 30.7443C27.8888 31.871 30.1753 31.871 31.9766 30.7443C32.6294 30.3307 33.3952 30.1317 34.1667 30.1749L34.199 30.1766C36.3228 30.2892 38.3209 29.1747 39.2878 27.3346L39.2926 27.3246C39.643 26.6609 40.1977 26.1276 40.8749 25.8043L40.8906 25.7964C42.8053 24.8657 43.9661 22.9256 43.8474 20.8538L43.8456 20.825C43.8064 20.0954 44.0088 19.3732 44.4225 18.7706C45.6133 17.0339 45.6133 14.7438 44.4229 13.0067C44.0097 12.4045 43.8064 11.6828 43.8456 10.9532L43.8474 10.9226C43.9661 8.85079 42.8053 6.91073 40.8889 5.97954L40.8714 5.97081C40.1977 5.64877 39.6457 5.11903 39.2961 4.45882L39.2861 4.43918C38.3209 2.6021 36.3228 1.48895 34.199 1.60022L34.1663 1.60196C33.3952 1.64516 32.6294 1.44618 31.9771 1.03251H31.9762C30.1749 -0.0941709 27.8884 -0.0941709 26.0871 1.03251C25.4343 1.44575 24.6684 1.64473 23.897 1.60153L23.8647 1.59978C21.7405 1.4872 19.7428 2.60167 18.778 4.43831L18.7706 4.45184C18.4211 5.11511 17.8673 5.6479 17.1914 5.97124L17.1731 5.97997C15.2583 6.91029 14.0976 8.85079 14.2163 10.9226L14.218 10.9514C14.2573 11.681 14.0548 12.4032 13.6412 13.0054C12.4503 14.7425 12.4503 17.033 13.6412 18.7697C14.0544 19.3719 14.2573 20.0941 14.2176 20.8237ZM15.1121 14.0204C15.7505 13.0909 16.0634 11.9764 16.0023 10.8506L16.0006 10.8201C15.9377 9.4473 16.7083 8.17225 17.9524 7.58883L17.9677 7.58142C18.9883 7.09269 19.824 6.28804 20.3511 5.28703L20.3598 5.27045C21.0008 4.04951 22.3435 3.30944 23.7695 3.38537L23.801 3.38668C24.942 3.45082 26.0744 3.15672 27.0396 2.54494C28.2584 1.78262 29.8048 1.78262 31.0236 2.54494C31.9888 3.15584 33.1212 3.45039 34.2618 3.38712L34.2933 3.38537C35.7263 3.31032 37.0624 4.04951 37.7017 5.26696L37.7135 5.28921C38.2406 6.28892 39.0753 7.09226 40.0947 7.58054L40.1095 7.58796C41.3732 8.20236 42.1403 9.47086 42.0631 10.8205L42.0614 10.8524C42.0003 11.9782 42.3136 13.0922 42.952 14.0217C43.7235 15.147 43.723 16.6307 42.9511 17.7556C42.3131 18.6855 42.0003 19.8 42.0614 20.9258L42.0631 20.9559C42.1403 22.3055 41.3732 23.5745 40.1091 24.1893L40.096 24.1954C39.0745 24.685 38.238 25.4905 37.7104 26.4933L37.7039 26.5064C37.0624 27.7273 35.7219 28.4678 34.2937 28.3915L34.2627 28.3897C33.1216 28.326 31.9888 28.6206 31.0232 29.2319C29.8048 29.9938 28.2584 29.9938 27.0401 29.2319C26.1621 28.6755 25.1436 28.3806 24.1042 28.3814C24.0034 28.3814 23.9022 28.384 23.801 28.3897L23.7695 28.391C22.3623 28.4805 21.0309 27.7439 20.3585 26.5042L20.3493 26.4872C19.8231 25.4879 18.9888 24.685 17.9699 24.1967L17.9533 24.1884C16.6891 23.574 15.922 22.3051 15.9997 20.9559L16.0014 20.924C16.0621 19.7982 15.7488 18.6837 15.1108 17.7547C14.3398 16.6294 14.3402 15.1457 15.1121 14.0212V14.0204Z" fill="#282828"/>
<path d="M23.2654 25.1308C23.6839 25.3922 24.235 25.2643 24.4964 24.8459L35.0829 7.88626C35.2557 7.61528 35.2701 7.2723 35.12 6.98823C34.9699 6.70372 34.6784 6.52219 34.3573 6.51216C34.0361 6.50212 33.7341 6.66532 33.5666 6.93979L22.9805 23.8994C22.7191 24.3183 22.8465 24.8694 23.2654 25.1308Z" fill="#282828"/>
<path d="M24.214 15.9344C26.3902 15.9344 28.1609 13.9154 28.1609 11.4338C28.1609 8.9522 26.3902 6.93359 24.214 6.93359C22.0379 6.93359 20.2676 8.9522 20.2676 11.4338C20.2676 13.9154 22.0379 15.9344 24.214 15.9344ZM24.214 8.72093C25.4049 8.72093 26.3736 9.93794 26.3736 11.4338C26.3736 12.9296 25.4049 14.1471 24.214 14.1471C23.0236 14.1471 22.0549 12.9292 22.0549 11.4338C22.0549 9.93837 23.0236 8.72093 24.214 8.72093Z" fill="#282828"/>
<path d="M29.9023 20.3478C29.9023 22.8294 31.6727 24.848 33.8488 24.848C36.0249 24.848 37.7957 22.829 37.7957 20.3478C37.7957 17.8671 36.0254 15.8477 33.8492 15.8477C31.6727 15.8477 29.9023 17.8658 29.9023 20.3478ZM36.0084 20.3478C36.0084 21.8437 35.0396 23.0607 33.8488 23.0607C32.6584 23.0607 31.6897 21.8437 31.6897 20.3478C31.6897 18.852 32.6584 17.635 33.8488 17.635C35.0396 17.635 36.0084 18.8511 36.0084 20.3478Z" fill="#282828"/>
<path d="M47.8839 35.1862C46.7005 33.086 44.0763 32.2862 41.9228 33.3692L34.9223 36.6768C33.9557 34.8794 32.1016 33.7353 30.0612 33.6777L23.5987 33.4997C22.5755 33.4704 21.5714 33.2108 20.6616 32.7413L20.004 32.4005C16.637 30.6454 12.6238 30.6498 9.26035 32.4118L9.30137 30.9221C9.3149 30.4286 8.9261 30.0175 8.43258 30.004L1.34608 29.8089C0.852555 29.7954 0.441939 30.1842 0.428412 30.6777L0.000342544 46.2292C-0.0131847 46.7227 0.375613 47.1338 0.869137 47.1473L7.95563 47.3423H7.98051C8.46443 47.3419 8.86021 46.9566 8.87374 46.4731L8.89381 45.7291L10.7348 44.7434C11.4574 44.3546 12.3027 44.2621 13.092 44.4855L24.0853 47.571C24.1045 47.5767 24.1237 47.581 24.1433 47.5854C24.9379 47.7516 25.7478 47.835 26.5599 47.8346C28.2791 47.8354 29.9783 47.465 31.5409 46.7476C31.5793 46.7301 31.6164 46.7101 31.6518 46.6874L47.5911 36.3766C47.9887 36.12 48.117 35.5977 47.8839 35.1862ZM1.81168 45.3848L2.19044 31.6207L7.49047 31.7664L7.11127 45.531L1.81168 45.3848ZM30.7354 45.1505C28.794 46.0267 26.6258 46.2685 24.5391 45.8417L13.5751 42.7649C12.3415 42.4158 11.0202 42.5607 9.89133 43.1677L8.95053 43.6712L9.20275 34.5194C12.1835 32.5366 16.0069 32.3328 19.1819 33.9871L19.8395 34.3279C20.9889 34.9213 22.2569 35.249 23.5499 35.2861L30.0124 35.4642C31.8276 35.5161 33.3693 36.8086 33.7376 38.5872L24.1114 38.3223C23.6179 38.3088 23.2073 38.6976 23.1938 39.1911C23.1803 39.6846 23.5691 40.0957 24.0626 40.1092L34.6858 40.4016H34.7111C35.1946 40.4012 35.5903 40.0158 35.6039 39.5324C35.6148 39.144 35.5855 38.7552 35.5175 38.3729L42.6965 34.9802L42.7174 34.9702C43.7359 34.4544 44.9677 34.6268 45.8051 35.4022L30.7354 45.1505Z" fill="#282828"/>
</g>
<defs>
<clipPath id="clip0">
<rect width="48" height="48" fill="white"/>
</clipPath>
</defs>
</svg>
