<svg width="143" height="157" viewBox="0 0 143 157" fill="none" xmlns="http://www.w3.org/2000/svg">
<g filter="url(#filter0_dd)">
<path d="M38 47.3529C38 28.9326 52.9985 14 71.5 14C90.0015 14 105 28.9326 105 47.3529C105 55.5173 102.054 62.9966 97.1615 68.7941C96.0918 70.0618 94.9291 71.2492 93.6838 72.3457L72.9257 93.544C72.1427 94.3437 70.8558 94.3452 70.071 93.5473L48.2573 71.3723C47.7892 70.9232 47.3342 70.4607 46.8929 69.9853C41.3729 64.0392 38 56.0882 38 47.3529Z" fill="white"/>
</g>
<path d="M95.9998 50.3496H93.5254V52.1181H95.9998V50.3496Z" fill="#1C1D20"/>
<path d="M89.2124 43.1855H87.4307V52.1189H89.2124V43.1855Z" fill="#1C1D20"/>
<path d="M50.5649 47.0869H47V48.0321H50.5649V47.0869Z" fill="#F3CB30"/>
<path d="M55.455 47.0869H53.6719V48.0307H55.455V47.0869Z" fill="#F3CB30"/>
<path d="M58.6939 47.0869H56.9121V48.0321H58.6939V47.0869Z" fill="#F3CB30"/>
<path fill-rule="evenodd" clip-rule="evenodd" d="M63.1586 48.0321L64.9489 48.0335L64.9246 47.0869H63.1128L63.1586 48.0321Z" fill="#F3CB30"/>
<path fill-rule="evenodd" clip-rule="evenodd" d="M68.0774 48.0321H71.1887C71.1887 48.0321 70.9196 47.6523 70.8037 47.5361C70.6878 47.4185 70.2642 47.0869 70.2642 47.0869H66.6606C66.6606 47.0869 67.2016 47.5248 67.3962 47.6523C67.5594 47.7586 68.0774 48.0321 68.0774 48.0321Z" fill="#F3CB30"/>
<path d="M89.2124 44.7441H87.4307V45.6808H89.2124V44.7441Z" fill="#F3CB30"/>
<path d="M92.5737 43.1855H90.792V47.0868H92.5737V43.1855Z" fill="#1C1D20"/>
<path d="M92.5737 48.0322H90.792V52.1191H92.5737V48.0322Z" fill="#1C1D20"/>
<path d="M93.5259 50.3467H92.5742V53.8894H93.5259V50.3467Z" fill="#F3CB30"/>
<path d="M62.3971 45.7618C62.7692 46.143 63.0067 46.5866 63.1127 47.0868H64.9244C64.8057 46.0821 64.3863 45.2148 63.6665 44.4935C62.7949 43.6206 61.7373 43.1855 60.5009 43.1855H59.6465V44.9541H60.4765C61.2336 44.9541 61.8762 45.229 62.3971 45.7618Z" fill="#1C1D20"/>
<path d="M58.6934 43.1855H56.9116V47.0868H58.6934V43.1855Z" fill="#1C1D20"/>
<path d="M78.2523 47.0875C78.3797 46.4554 78.696 45.9113 79.194 45.4635C79.609 45.0908 80.0956 44.874 80.6595 44.8003V43.0176C79.5847 43.0969 78.6631 43.481 77.9003 44.1796C77.0588 44.9434 76.5693 45.9169 76.4248 47.0875H78.2523Z" fill="#1C1D20"/>
<path d="M83.9066 47.0868H85.7428C85.7199 45.9474 85.2576 44.9909 84.3532 44.203C83.5546 43.5086 82.6358 43.1203 81.6025 43.0254V44.8067C82.1449 44.8874 82.6143 45.1028 83.0108 45.4642C83.5088 45.9106 83.8036 46.4547 83.9066 47.0868Z" fill="#1C1D20"/>
<path d="M50.563 43.1855H48.7812V47.0868H50.563V43.1855Z" fill="#1C1D20"/>
<path d="M70.2636 47.0869C70.0832 46.9749 69.8886 46.8828 69.6797 46.812L68.8095 46.4492L68.4346 46.2876C68.1097 46.1417 67.938 45.9164 67.938 45.5607C67.938 45.3424 68.0196 45.1568 68.1899 44.9953C68.353 44.8422 68.5405 44.7685 68.7509 44.7685C68.987 44.7685 69.1745 44.8408 69.3205 44.9953C69.4664 45.1568 69.5408 45.3424 69.5408 45.5607H71.3226C71.3226 44.8493 71.0707 44.2442 70.5741 43.7426C70.0718 43.2508 69.4693 43 68.7523 43C68.0367 43 67.4257 43.2508 66.9219 43.7511C66.4096 44.2513 66.1562 44.8578 66.1562 45.5607C66.1562 46.1516 66.328 46.6603 66.66 47.0869H70.2636Z" fill="#1C1D20"/>
<path d="M55.4546 43.1855H53.6729V47.0868H55.4546V43.1855Z" fill="#1C1D20"/>
<path d="M68.077 48.0322L68.9471 48.4361C69.5081 48.6458 69.7929 48.993 69.7929 49.4777C69.7929 49.7767 69.687 50.019 69.4838 50.2202C69.2891 50.4229 69.0358 50.5277 68.751 50.5277C68.4577 50.5277 68.2144 50.4229 68.0097 50.2202C67.8065 50.019 67.7006 49.7682 67.7006 49.4692H65.8945C65.8945 50.2528 66.1707 50.9146 66.7403 51.4644C67.3013 52.0142 67.9697 52.2962 68.751 52.2962C69.541 52.2962 70.1993 52.0213 70.7532 51.4729C71.2984 50.9316 71.5746 50.2613 71.5746 49.4777C71.5746 48.9477 71.4458 48.4659 71.1868 48.0322H68.077Z" fill="#1C1D20"/>
<path d="M78.2334 48.0801H76.4102C76.5404 49.3073 77.037 50.3092 77.9243 51.1013C78.6985 51.7985 79.6116 52.1939 80.6591 52.2789V50.4976C80.0752 50.4225 79.5744 50.1944 79.1536 49.816C78.6327 49.3413 78.3236 48.7674 78.2334 48.0801Z" fill="#1C1D20"/>
<path d="M50.9136 49.9623C50.6861 49.6874 50.563 49.3643 50.563 48.993V48.0322H48.7812V49.0015C48.7812 49.89 49.099 50.6581 49.7258 51.2958C50.2796 51.8612 50.9222 52.1928 51.6463 52.2807V50.4554C51.3458 50.3662 51.1011 50.1975 50.9136 49.9623Z" fill="#1C1D20"/>
<path d="M83.0437 49.8009C82.6315 50.1736 82.1507 50.4017 81.6025 50.4867V52.2694C82.6287 52.1702 83.5417 51.7706 84.3446 51.0762C85.2805 50.26 85.7442 49.2666 85.7442 48.0791H83.9224C83.8651 48.7508 83.5732 49.3162 83.0437 49.8009Z" fill="#1C1D20"/>
<path d="M53.6729 48.0322V49.01C53.6729 49.3487 53.567 49.6562 53.3481 49.9311C53.1363 50.206 52.8844 50.3832 52.5996 50.4725V52.2977C53.2751 52.2977 53.9177 51.9831 54.5044 51.361C55.1398 50.6907 55.4561 49.907 55.4561 49.01V48.0322H53.6729Z" fill="#1C1D20"/>
<path d="M63.1579 48.0322C63.0921 48.6175 62.8474 49.1361 62.4123 49.5669C61.9 50.0842 61.2646 50.3506 60.5075 50.3506H59.6445V52.1191H60.4989C61.7354 52.1191 62.7944 51.6826 63.6645 50.8111C64.4474 50.0275 64.8738 49.0965 64.9454 48.0322H63.1579Z" fill="#1C1D20"/>
<path d="M58.6934 48.0322H56.9116V52.1191H58.6934V48.0322Z" fill="#1C1D20"/>
<path d="M78.2015 47.658C78.2015 47.4624 78.2187 47.2711 78.2531 47.0869H76.4241C76.4041 47.2683 76.394 47.4525 76.394 47.641C76.394 47.7884 76.3983 47.9372 76.4126 48.0803H78.2359C78.2159 47.9428 78.2015 47.8011 78.2015 47.658Z" fill="#F3CB30"/>
<path d="M83.9468 47.6698C83.9497 47.8101 83.9397 47.9461 83.9239 48.0807H85.7443C85.7558 47.9291 85.7558 47.7761 85.7543 47.6202C85.7515 47.4402 85.7601 47.2602 85.7429 47.0874L83.9082 47.0859C83.9411 47.2744 83.944 47.4714 83.9468 47.6698Z" fill="#F3CB30"/>
<path d="M92.5737 47.0869H90.792V48.0321H92.5737V47.0869Z" fill="#F3CB30"/>
<defs>
<filter id="filter0_dd" x="0" y="0" width="143" height="156.145" filterUnits="userSpaceOnUse" color-interpolation-filters="sRGB">
<feFlood flood-opacity="0" result="BackgroundImageFix"/>
<feColorMatrix in="SourceAlpha" type="matrix" values="0 0 0 0 0 0 0 0 0 0 0 0 0 0 0 0 0 0 127 0"/>
<feOffset dy="11"/>
<feGaussianBlur stdDeviation="7.5"/>
<feColorMatrix type="matrix" values="0 0 0 0 0 0 0 0 0 0 0 0 0 0 0 0 0 0 0.2 0"/>
<feBlend mode="normal" in2="BackgroundImageFix" result="effect1_dropShadow"/>
<feColorMatrix in="SourceAlpha" type="matrix" values="0 0 0 0 0 0 0 0 0 0 0 0 0 0 0 0 0 0 127 0"/>
<feOffset dy="24"/>
<feGaussianBlur stdDeviation="19"/>
<feColorMatrix type="matrix" values="0 0 0 0 0 0 0 0 0 0 0 0 0 0 0 0 0 0 0.14 0"/>
<feBlend mode="normal" in2="effect1_dropShadow" result="effect2_dropShadow"/>
<feBlend mode="normal" in="SourceGraphic" in2="effect2_dropShadow" result="shape"/>
</filter>
</defs>
</svg>
