<svg width="1649" height="551" viewBox="0 0 1649 551" fill="none" xmlns="http://www.w3.org/2000/svg">
<path opacity="0.5" d="M99.8996 434.72C102.482 437.676 105.288 440.453 108.026 443.253C108.783 444.014 109.718 444.843 110.831 444.485C112.323 444.014 112.167 442.536 112.167 441.304C112.167 434.138 112.167 426.971 112.167 419.827C112.126 416.426 112.889 413.063 114.394 410.017C114.96 408.713 115.823 407.561 116.914 406.654C118.005 405.748 119.292 405.112 120.672 404.799C133.719 401.171 146.721 397.408 159.746 393.713C166.603 391.764 173.461 389.816 180.318 387.957C187.175 386.098 188.623 387.308 188.979 394.676C189.357 402.515 187.331 409.928 185.929 417.497C181.988 438.191 177.535 458.706 172.325 478.862C169.832 488.56 168.785 498.549 165.846 508.134C163.909 514.45 161.393 515.793 154.914 516.958C69.9765 532.366 27.6744 542.243 0 551H1649C1604.98 541.594 1580.63 532.904 1498.49 526.364C1497.07 526.282 1495.64 526.282 1494.22 526.364C1493.15 526.544 1492.05 526.311 1491.14 525.714C1490.24 525.116 1489.59 524.197 1489.32 523.139C1489.16 522.253 1488.7 521.449 1488.02 520.862C1487.34 520.275 1486.48 519.94 1485.58 519.914C1483.02 519.735 1482.46 517.921 1482.37 515.793C1482.29 513.666 1482.22 511.852 1482.22 509.903C1482.22 500.161 1482.71 501.102 1473.11 500.945C1466.43 500.788 1459.6 500.811 1452.83 500.699C1449.27 500.699 1445.71 500.519 1442.17 500.251C1438.63 499.982 1437.71 499.288 1437.29 495.324C1436.67 489.769 1436.67 489.769 1430.88 488.739C1430.57 488.739 1430.3 488.358 1429.99 488.134C1429.47 486.477 1430.99 486.052 1431.81 485.29C1437.76 479.758 1440.72 473.129 1438.29 465.134C1435.86 457.138 1429.85 452.189 1421.48 450.532C1420.45 450.25 1419.39 450.121 1418.32 450.151C1412.06 450.823 1408.21 447.105 1404.81 442.693C1404.5 442.163 1404.02 441.758 1403.44 441.549C1402.87 441.341 1402.24 441.341 1401.67 441.551C1398.36 442.277 1394.93 442.193 1391.67 441.304C1386.97 440.341 1385.32 441.439 1384.08 446.187C1384 446.888 1383.68 447.538 1383.16 448.016C1382.64 448.494 1381.97 448.767 1381.27 448.785C1377.58 449.165 1374.39 448.897 1372.03 445.224C1367.71 438.505 1362.04 432.704 1358.16 425.65C1356.54 423.898 1355.31 421.821 1354.54 419.555C1353.77 417.29 1353.49 414.886 1353.71 412.503C1354.31 354.453 1349.5 346.592 1349.26 337.454C1349.04 336.209 1349.26 334.926 1349.88 333.826C1350.55 332.885 1350.97 331.586 1350.21 330.847C1347.83 328.451 1348.54 325.495 1348.48 322.718C1348.25 314.297 1348.19 305.898 1348.05 297.477C1348.05 295.551 1347.48 293.58 1348.97 291.834C1349.25 291.475 1349.41 291.029 1349.41 290.568C1349.41 290.108 1349.25 289.661 1348.97 289.303C1346.74 287.063 1347.54 284.264 1347.5 281.688C1347.32 273.267 1347.23 264.846 1347.23 256.425C1347.23 253.827 1346.76 251.23 1348.3 248.632C1349.5 246.616 1348.41 245.138 1345.61 244.645C1341.93 243.996 1338.19 243.727 1334.47 243.346C1333.05 243.212 1331.62 243.346 1330.2 243.145C1328.08 242.965 1325.75 243.391 1323.96 242.159C1322.18 240.927 1323.21 238.509 1322.94 236.627C1322.74 235.194 1322.25 234.231 1320.71 234.388C1319.18 234.545 1319.36 235.508 1319.04 236.627C1318.68 239.055 1318.68 241.524 1319.04 243.951C1319.04 247.445 1318.87 247.713 1315.5 247.557C1311.76 247.4 1308.05 246.952 1304.37 246.84C1302.15 246.84 1301.01 245.989 1301.59 243.593C1301.99 242.594 1301.99 241.478 1301.59 240.479C1301.12 239.707 1300.43 239.102 1299.6 238.752C1298.77 238.402 1297.85 238.325 1296.98 238.531C1295.11 238.531 1295.53 240.121 1295.44 241.331C1295.15 245.631 1296.16 249.841 1296.2 254.096C1296.38 267.713 1296.4 281.33 1296.47 294.947C1296.55 295.337 1296.51 295.746 1296.35 296.112C1296.19 296.479 1295.92 296.784 1295.58 296.985C1293.04 293.513 1291.7 289.056 1287.94 286.458C1286.63 285.563 1287.23 284.219 1287.7 283.009C1289.02 279.464 1289.02 275.558 1287.7 272.013C1285.91 265.944 1285.22 259.404 1282.6 253.76C1278.41 244.802 1279.93 235.261 1279.28 226.056C1277.57 201.421 1275.78 176.785 1274.11 152.15C1273.67 145.431 1273.25 138.555 1272.85 131.769C1272.66 130.891 1272.66 129.983 1272.85 129.104C1276.63 120.034 1274.32 110.359 1275.45 101.042C1275.55 98.1821 1275.2 95.3242 1274.4 92.5763C1274.38 91.9353 1274.2 91.3103 1273.88 90.7542C1273.56 90.1982 1273.11 89.7276 1272.58 89.3824C1272.04 89.0373 1271.43 88.8277 1270.79 88.7716C1270.16 88.7155 1269.52 88.8145 1268.93 89.0602C1265.1 90.1352 1246.02 93.7409 1244.82 94.368C1244.48 94.8383 1244.1 94.8383 1243.75 94.368C1241.19 93.0915 1242.3 90.5831 1241.81 88.5899C1241.5 87.9404 1241.81 87.5372 1242.34 87.2909C1248.02 77.0783 1246.64 70.4715 1237.25 63.9991C1235.49 62.7897 1234.77 62.0058 1235.91 59.811C1238.23 55.7991 1240.16 51.5777 1241.7 47.2021C1241.78 46.8503 1241.99 46.5402 1242.28 46.3286C1246.33 44.3578 1245.37 40.0577 1246.51 36.7879C1247.64 33.5181 1246.4 29.8228 1245.3 26.4186C1242.92 18.9607 1240.72 11.4357 1238.4 4.02258C1237 -0.45662 1236.91 -0.45662 1232.46 0.528804C1228.01 1.51423 1224.27 2.7684 1220.19 3.82102C1218.12 5.29915 1207.61 6.93406 1201.91 8.45699L1062 45.7687L910.095 86.731C905.528 87.6919 901.016 88.9031 896.58 90.3591L800.844 116.383C798.939 116.819 797.059 117.357 795.211 117.996C793.764 118.578 757.674 105.029 756.939 104.065C748.033 92.3748 739.373 80.6393 730.511 69.0158C728.953 66.9777 713.034 86.9325 712.455 90.7175C706.8 126.081 710.785 160.571 721.628 194.523C723.587 200.637 726.593 206.124 729.064 211.925C730.251 214.52 730.895 217.333 730.957 220.189C730.957 238.643 729.977 257.053 729.064 275.462C728.908 278.553 727.973 281.554 728.864 284.712C729.154 285.74 729.207 286.821 729.018 287.873C728.829 288.925 728.403 289.92 727.773 290.781C723.543 294.611 727.595 311.363 726.571 315.663C726.273 317.792 726.228 319.95 726.437 322.09C726.437 323.255 726.905 324.33 728.196 324.33C730.779 324.33 730.845 326.144 730.823 328.048C730.823 335.215 730.823 342.381 730.601 349.526C730.155 370.652 729.673 391.772 729.153 412.884C729.153 415.863 728.775 418.841 728.508 422.537C726.578 420.374 724.518 418.332 722.341 416.422L718.645 414.048C717.62 413.802 717.309 412.951 716.975 412.1C714.971 409.86 711.921 408.987 710.296 406.389C708.782 405.18 706.488 406.658 705.153 404.866L702.926 402.895L702.08 402.335C700.945 401.372 699.386 400.7 699.854 398.752L699.497 396.512C699.074 394.855 697.271 393.601 698.095 391.563C696.046 390.824 696.514 388.629 695.601 387.218V384.777C695.258 383.782 695.211 382.707 695.468 381.686C695.468 381.171 695.334 380.656 695.312 380.119C695.236 378.903 695.236 377.684 695.312 376.468C694.253 373.826 693.983 370.931 694.533 368.137C693.192 368.17 691.854 367.989 690.57 367.599C690.245 367.655 689.914 367.655 689.59 367.599C684.914 367.353 680.217 366.994 675.563 366.547C675.297 366.54 675.036 366.472 674.799 366.348C674.563 366.224 674.359 366.047 674.201 365.83C674.044 365.614 673.939 365.364 673.893 365.099C673.847 364.835 673.863 364.564 673.938 364.307L673.493 360.298C672.574 358.181 672.386 355.816 672.958 353.579L672.513 348.428C671.464 345.658 671.217 342.645 671.801 339.739L671.4 335.439C671.004 334.818 670.767 334.11 670.709 333.375C670.65 332.641 670.773 331.903 671.066 331.228L670.309 323.546C669.925 323.161 669.684 322.655 669.627 322.113C669.57 321.57 669.701 321.025 669.997 320.568L669.196 312.774C668.077 309.423 667.794 305.846 668.372 302.36L668.261 299.471C668.124 298.96 668.154 298.419 668.346 297.927C668.539 297.435 668.883 297.018 669.329 296.738C669.329 292.259 670.754 287.533 668.929 283.009C664.476 281.151 659.644 281.8 655.236 280.12C653.855 281.458 652.219 282.502 650.427 283.189L650.293 283.547L650.004 283.278C649.403 282.942 648.245 282.45 648.29 282.27C649.203 278.284 647.243 273.805 649.937 270.177C651.396 268.46 652.294 266.333 652.509 264.085C652.724 261.837 652.246 259.577 651.14 257.612C650.811 257.194 650.578 256.707 650.457 256.188C650.336 255.668 650.331 255.128 650.442 254.606C650.552 254.085 650.776 253.594 651.096 253.169C651.417 252.744 651.827 252.395 652.297 252.148C655.169 250.065 657.641 247.489 660.513 245.429C663.466 243.374 665.503 240.24 666.19 236.695C667.237 230.513 668.038 224.31 669.04 218.128C669.485 215.418 668.439 214.299 665.812 213.649C661.715 212.82 645.573 210.424 642.501 209.954C578.944 200.279 515.432 190.499 451.964 180.615L431.325 177.457C411.079 174.471 390.841 171.395 370.61 168.23C368.54 167.916 347.567 146.64 346.988 143.438C345.622 135.689 344.205 127.94 342.736 120.191C342.246 117.682 325.859 124.67 323.766 127.917C316.696 139.124 311.013 151.157 306.846 163.751C299.231 186.684 296.114 210.111 300.01 234.119C301.035 240.479 302.348 246.795 303.818 253.066C304.664 256.739 308.916 267.31 309.072 269.841C310.274 271.677 310.63 274.678 313.258 274.745C316.286 274.745 316.508 271.588 317.71 269.572C317.876 269.259 318.025 268.938 318.156 268.609C318.069 266.507 318.562 264.422 319.581 262.584L328.82 242.921C328.721 242.771 328.661 242.599 328.645 242.421C328.629 242.242 328.657 242.062 328.728 241.897C328.799 241.732 328.91 241.588 329.05 241.477C329.191 241.366 329.357 241.293 329.533 241.263C332.694 234.545 335.878 227.647 338.973 220.793C339.997 218.299 341.703 216.148 343.893 214.59C346.117 213.099 348.138 211.322 349.905 209.304C351.193 207.756 352.879 206.594 354.78 205.946C356.681 205.299 358.722 205.19 360.68 205.631C381.453 208.744 402.315 211.454 423.02 214.321L497.116 224.623C497.99 224.794 498.876 224.906 499.765 224.959C503.661 224.959 502.125 228.139 502.548 230.021C503.105 232.507 500.901 232.26 499.431 232.507C498.549 232.561 497.664 232.561 496.782 232.507C496.091 232.507 495.335 232.507 494.934 233.29C494.828 233.491 494.765 233.711 494.751 233.938C494.737 234.164 494.771 234.391 494.851 234.604C494.931 234.816 495.055 235.008 495.216 235.168C495.376 235.328 495.568 235.451 495.78 235.53C498.785 237.21 499.097 240.233 499.053 242.988C498.852 255.126 499.787 267.265 497.383 279.381C485.449 339.089 473.827 398.864 462.049 458.549C460.246 467.687 458.599 476.869 456.238 485.872C454.346 493.129 451.786 500.228 450.45 507.619C451.719 512.255 450.049 516.801 450.071 521.415C450.071 523.654 448.201 523.654 446.531 523.453C440.141 522.96 433.752 522.647 427.384 521.975C405.095 519.425 382.664 518.348 360.235 518.75C354.892 518.906 349.548 519.018 344.205 518.951C339.752 518.951 339.062 518.033 339.752 513.442C340.442 508.134 338.683 505.424 333.429 504.036C331.852 503.755 330.341 503.177 328.976 502.333C327.864 501.415 326.498 500.865 325.064 500.757C323.629 500.648 322.197 500.988 320.961 501.729C318.245 503.319 316.731 501.953 314.994 500.161C311.646 496.663 309.696 492.046 309.517 487.194C308.885 479.701 308.632 472.182 308.76 464.663C308.57 463.199 308.141 461.777 307.491 460.453C304.597 459.624 304.107 460.744 301.97 460.856C299.832 460.968 299.61 459.154 299.454 457.519C299.454 456.802 299.454 456.108 299.32 455.391C299.32 453.488 298.452 452.726 296.359 452.57C289.68 452.122 286.808 448.941 286.541 442.155C286.541 441.461 286.541 440.767 286.652 440.073C284.867 434.934 283.978 429.525 284.025 424.082C283.446 423.347 283.112 422.448 283.068 421.512C283.024 420.576 283.273 419.65 283.78 418.864L282.956 407.912C282.315 406.786 281.961 405.517 281.926 404.22C281.891 402.922 282.176 401.636 282.756 400.476C282.222 396.923 282.185 393.312 282.644 389.749C281.955 387.719 281.765 385.553 282.088 383.433C281.954 378.26 279.661 376.222 274.763 377.117C273.65 377.319 272.425 378.797 271.512 377.229C270.599 375.662 271.512 374.475 272.536 373.377C272.247 372.37 272.291 371.138 271.646 370.399C268.662 367.442 269.865 364.688 271.646 361.888C271.312 361.172 271.646 360.791 272.314 360.634C272.898 357.763 272.579 354.781 271.401 352.101C271.223 352.101 270.956 352.101 270.911 351.944C267.928 346.301 266.458 345.449 260.068 347.689C244.239 353.243 227.808 356.647 211.711 361.127C194.389 365.987 176.956 370.421 159.568 375.057C146.402 378.566 133.207 382.134 119.982 385.762C118.78 386.076 117.533 386.3 116.375 386.725C109.317 389.256 103.863 386.322 99.5211 381.149C96.1147 377.095 92.3297 373.221 90.3928 368.025C89.5912 365.785 84.6486 378.304 84.4705 380.096C82.758 394.628 85.0694 409.354 91.1497 422.648C93.4617 427.082 96.4099 431.15 99.8996 434.72ZM1373.88 491.942C1369.83 492.86 1365.69 493.442 1361.64 494.562C1360.95 494.597 1360.26 494.498 1359.61 494.271L1359.1 493.353C1362.97 492.099 1363.55 489.702 1362.68 486.208C1362.28 483.566 1362.28 480.878 1362.68 478.235C1362.86 475.593 1363.75 475.145 1366.13 476.578C1369.36 478.43 1372.47 480.487 1375.44 482.737C1376.23 483.301 1376.85 484.081 1377.22 484.984C1377.59 485.887 1377.7 486.878 1377.54 487.841C1377.37 488.805 1376.94 489.701 1376.29 490.427C1375.64 491.152 1374.79 491.678 1373.86 491.942H1373.88ZM1353.42 426.299C1354.21 426.934 1354.95 427.622 1355.65 428.359C1363.02 438.415 1370.41 448.516 1377.73 458.549C1379.96 461.707 1379.96 461.864 1376.57 463.656C1373.61 464.877 1371.22 467.192 1369.9 470.128C1369.76 470.639 1369.48 471.096 1369.08 471.44C1368.68 471.784 1368.19 471.998 1367.67 472.054C1366.56 472.054 1365.44 472.054 1364.86 470.979C1363.68 468.314 1358.74 470.218 1358.96 465.895C1358.92 464.826 1358.6 463.787 1358.05 462.872C1357.14 461.102 1357.49 460.139 1359.21 458.952C1361.95 457.071 1361.99 456.444 1359.61 454.742C1357.23 453.04 1356.89 451.719 1358.7 449.568C1359.43 448.695 1359.81 447.15 1359.08 446.612C1355.16 443.678 1357.49 438.079 1353.69 434.854C1351.75 433.443 1352.69 429.86 1353.42 426.321V426.299ZM1326.95 399.872C1326.59 396.928 1326.74 393.944 1327.37 391.048L1341.64 410.308C1340.75 410.557 1339.84 410.73 1338.93 410.823C1335.21 410.823 1330.6 412.302 1328.02 410.129C1325.43 407.957 1327.33 403.388 1326.95 399.872ZM1334.23 494.204C1332.76 493.285 1331.24 492.502 1329.91 491.471C1329.6 491.15 1329.4 490.743 1329.32 490.305C1329.25 489.866 1329.31 489.414 1329.49 489.008C1329.82 487.91 1330.76 487.978 1331.71 488.022C1335.63 488.202 1336.19 489.433 1334.25 494.226L1334.23 494.204ZM1328.93 479.31C1330.04 477.071 1331.67 477.81 1333.81 477.765C1332.09 479.042 1330.89 479.87 1328.95 479.31H1328.93ZM1343.13 466.433C1343.02 468.919 1341.44 469.635 1339.33 470.106C1338.17 470.191 1337.05 470.578 1336.09 471.23C1335.12 471.882 1334.34 472.776 1333.83 473.823C1333.71 474.117 1333.54 474.383 1333.32 474.608C1333.09 474.832 1332.83 475.009 1332.54 475.128C1332.25 475.247 1331.94 475.306 1331.62 475.301C1331.31 475.296 1331 475.228 1330.71 475.1C1329.49 474.786 1329.2 473.667 1329.11 472.592C1328.86 469.389 1328.68 466.186 1328.46 462.984H1328.28C1328.28 460.744 1328.28 458.348 1328.28 456.041C1328.42 452.973 1329.06 452.57 1331.87 454.182C1334.67 455.795 1337.86 457.989 1340.91 459.826C1343.65 461.416 1343.29 463.924 1343.16 466.433H1343.13ZM1343.13 456.825C1341.86 457.833 1340.91 456.578 1339.84 455.951C1336.68 453.958 1333.56 451.898 1330.44 449.837C1329.42 449.165 1328.22 448.426 1328.51 446.948C1328.91 445.022 1330.73 445.425 1331.98 445.313C1333.23 445.201 1334.83 445.313 1336.23 445.313C1343.25 445.313 1343.25 445.313 1343.58 452.234C1343.58 452.771 1343.71 453.286 1343.76 453.824C1343.82 454.899 1343.91 456.153 1343.07 456.847L1343.13 456.825ZM1348.61 420.431C1349.24 427.171 1348.84 433.969 1347.43 440.588C1347.3 441.383 1346.87 442.095 1346.22 442.569C1345.58 443.044 1344.77 443.241 1343.98 443.118H1331.2C1330.76 443.183 1330.31 443.148 1329.88 443.014C1329.46 442.881 1329.07 442.654 1328.74 442.348C1328.41 442.043 1328.16 441.668 1328 441.251C1327.83 440.834 1327.76 440.386 1327.79 439.938C1327.53 435.661 1327.24 431.383 1326.88 425.963C1326.88 424.059 1326.88 421.036 1326.88 418.013C1326.88 414.116 1327.33 413.645 1331.11 413.533C1334.47 413.399 1337.79 413.421 1341.22 413.533C1343.09 413.513 1344.89 414.219 1346.26 415.504C1347.62 416.789 1348.44 418.554 1348.54 420.431H1348.61ZM1347.68 378.976C1347.68 389.323 1347.68 399.693 1347.68 410.331C1345.94 409.793 1345.45 408.091 1344.4 406.949C1339.06 400.036 1333.75 393.093 1328.46 386.121C1327.17 384.891 1326.32 383.258 1326.06 381.485C1325.95 376.871 1325.72 376.356 1330.35 376.423C1334.99 376.49 1339.95 376.423 1344.76 376.244C1346.7 376.177 1347.63 376.893 1347.61 378.976H1347.68ZM1326.37 372.705C1329.65 371.836 1333.1 371.836 1336.39 372.705C1333.08 373.566 1329.61 373.566 1326.3 372.705H1326.37ZM1347.36 352.325C1347.36 357.14 1347.36 361.978 1347.36 366.793C1347.36 370.421 1347.12 370.6 1343.85 370.399C1338.7 370.085 1333.56 369.637 1328.42 369.391C1326.46 369.391 1325.46 368.585 1325.41 366.547C1325.22 356.901 1325.01 347.249 1324.79 337.589C1324.79 335.483 1325.81 334.811 1327.75 334.789C1333.07 334.789 1338.41 334.632 1343.73 334.431C1345.96 334.431 1346.54 335.327 1346.52 337.297C1346.52 342.292 1346.52 347.308 1346.52 352.303L1347.36 352.325ZM1326.12 331.049C1329.32 330.247 1332.69 330.451 1335.76 331.631C1332.59 332.653 1329.15 332.446 1326.12 331.049ZM1346.16 310.892C1346.16 315.708 1346.16 320.523 1346.16 325.36C1346.16 328.944 1345.92 329.235 1342.64 329.033C1337.5 328.72 1332.38 328.227 1327.24 327.936C1325.28 327.936 1324.39 327.13 1324.28 325.092C1323.72 315.461 1323.63 305.809 1323.59 296.156C1323.59 294.185 1324.21 293.244 1326.3 293.222C1331.8 293.222 1337.3 292.953 1342.82 292.729C1344.74 292.729 1345.29 293.67 1345.29 295.35C1345.29 300.531 1345.29 305.712 1345.29 310.892H1346.16ZM1324.14 290.221C1327.55 288.631 1328.26 288.608 1334.87 290.042C1331.36 290.71 1327.76 290.755 1324.23 290.176L1324.14 290.221ZM1344.18 253.223C1344.18 258.575 1344.18 263.928 1344.18 269.281H1344.92C1344.92 273.917 1344.92 278.553 1344.92 283.189C1344.92 287.421 1344.92 287.511 1340.86 287.31C1335.9 287.063 1330.96 286.57 1326.01 286.302C1324.28 286.302 1323.41 285.652 1323.39 283.816C1323.25 273.827 1323.09 263.839 1322.9 253.85C1322.9 252.081 1323.54 251.207 1325.32 251.14C1330.82 250.961 1336.32 250.759 1341.8 250.535C1343.94 250.423 1344.36 251.543 1344.36 253.178L1344.18 253.223ZM1323.63 245.832C1327.66 246.034 1331.69 246.28 1335.72 246.818C1331.42 247.952 1326.92 248.12 1322.54 247.31C1323.43 246.28 1323.63 245.787 1323.81 245.787L1323.63 245.832ZM1318.4 403.052C1315.62 402.671 1312.88 401.977 1310.07 401.551C1306.89 401.059 1303.59 392.75 1305.77 390.645C1310.23 386.345 1311.43 380.902 1312.45 375.214C1312.73 374.484 1313.08 373.785 1313.5 373.131C1316.06 376.289 1318.15 378.932 1320.29 381.507C1321.21 382.601 1321.7 383.995 1321.67 385.426C1321.67 390.242 1321.78 395.079 1322.03 399.894C1322.25 402.582 1320.96 403.343 1318.58 403.007L1318.4 403.052ZM1312.85 362.963C1312.54 360.119 1312.14 357.275 1311.83 354.43C1311.34 348.516 1309.39 342.819 1306.15 337.857C1305.73 337.447 1305.42 336.928 1305.26 336.357C1305.11 335.785 1305.11 335.182 1305.26 334.61H1318.31C1320.09 334.61 1320.78 335.618 1320.8 337.342C1321.05 350.018 1321.34 362.717 1321.63 375.595C1319.42 374.174 1317.53 372.322 1316.05 370.148C1314.57 367.974 1313.55 365.523 1313.03 362.941L1312.85 362.963ZM1320.78 328.115C1320.45 330.467 1320.07 331.81 1317.4 331.519C1315.98 331.442 1314.56 331.442 1313.14 331.519V331.385H1312.08C1305.4 331.138 1305.4 331.116 1304.24 324.666C1303.73 321.867 1302.7 319.157 1302.26 316.335C1301.72 312.975 1302.26 312.371 1305.6 311.609C1306.98 311.289 1308.37 311.049 1309.78 310.892C1311.41 310.713 1312.92 310.781 1313.75 312.707C1314.26 313.649 1314.97 314.473 1315.82 315.125C1317.75 316.62 1319.25 318.611 1320.15 320.888C1321.06 323.166 1321.34 325.647 1320.96 328.07L1320.78 328.115ZM1314.81 303.188C1311.45 303.188 1308.13 302.628 1304.73 302.584C1302.1 302.584 1301.32 301.24 1301.48 298.888C1301.48 297.813 1301.48 296.649 1301.48 295.686C1301.41 295.331 1301.43 294.966 1301.54 294.62C1301.64 294.275 1301.83 293.961 1302.08 293.703C1302.33 293.446 1302.64 293.254 1302.98 293.143C1303.32 293.032 1303.68 293.005 1304.04 293.065H1310.43C1312.03 293.065 1313.61 293.065 1315.21 293.065C1319.67 293.267 1319.82 292.55 1319.89 297.836C1319.96 303.121 1320.27 303.278 1315.01 303.143L1314.81 303.188ZM1304.68 249.505C1308.58 249.953 1312.48 250.289 1316.39 250.513C1318.62 250.647 1319.6 251.476 1319.6 253.783C1319.6 264.891 1319.7 276 1319.91 287.108C1319.91 289.728 1318.91 290.579 1316.42 290.355C1312.34 290.012 1308.25 289.766 1304.15 289.616C1301.92 289.616 1301.48 288.385 1301.5 286.526C1301.5 280.792 1301.5 275.059 1301.5 269.326H1301.23C1301.23 263.771 1301.23 258.128 1301.23 252.663C1301.23 249.953 1302.28 249.214 1304.68 249.505ZM742.245 503.879C740.419 504.439 738.46 503.879 736.456 504.416C737.502 502.647 740.241 502.557 739.952 500.161C739.729 498.302 738.816 496.533 739.796 494.674C740.625 494.691 741.439 494.903 742.174 495.291C742.908 495.68 743.542 496.236 744.026 496.914C744.582 497.405 744.992 498.042 745.211 498.754C745.429 499.466 745.447 500.225 745.262 500.947C745.078 501.668 744.698 502.324 744.165 502.842C743.633 503.359 742.968 503.718 742.245 503.879ZM984.079 471.136C979.626 472.905 980.116 476.936 979.626 480.587C979.492 481.819 979.381 483.073 979.292 484.305C979.114 486.544 978.067 487.53 975.863 487.328C972.435 487.037 969.429 487.328 969.518 491.964C969.518 492.882 968.605 493.442 967.603 493.42C967.068 493.464 966.536 493.297 966.121 492.955C965.705 492.612 965.439 492.12 965.377 491.583C965.11 489.836 964.998 488.045 964.887 486.276C964.62 481.647 964.382 477.019 964.175 472.39C964.019 468.672 964.041 468.627 967.848 468.247C970.498 467.978 973.147 467.888 975.796 467.732V467.664C978.023 467.664 980.405 467.664 982.698 467.664C983.544 467.664 984.546 467.664 984.747 468.829C984.947 469.994 985.014 470.822 984.079 471.136ZM991.404 419.423C990.291 428.382 989.021 437.519 987.797 446.545C987.797 447.083 987.619 447.598 987.507 448.135C986.929 450.912 987.864 454.518 985.659 456.287C983.455 458.057 980.16 457.026 977.333 457.228C972.669 457.838 967.962 458.055 963.262 457.877C963.357 455.86 963.557 453.849 963.863 451.853C966.089 441.528 968.316 431.226 970.364 420.879C970.943 417.923 972.19 416.557 975.195 416.4C979.27 416.154 983.322 415.504 987.396 415.146C991.938 414.743 992.072 414.832 991.515 419.423H991.404ZM998.662 362.784C997.215 374.497 995.879 386.233 994.476 397.946C994.32 399.177 993.92 400.387 993.764 401.641C993.761 401.997 993.688 402.349 993.55 402.676C993.412 403.004 993.211 403.301 992.959 403.551C992.707 403.8 992.408 403.997 992.08 404.131C991.752 404.264 991.401 404.332 991.047 404.329C986.105 404.844 981.14 405.448 976.197 406.075C973.971 406.367 973.414 405.516 973.971 403.343C976.672 390.563 979.307 377.767 981.875 364.956C981.953 364.065 982.346 363.231 982.984 362.606C983.621 361.982 984.46 361.608 985.348 361.552C988.866 361.037 992.383 360.477 996.48 359.85C998.372 359.357 999.063 360.298 998.773 362.784H998.662ZM995.634 350.466C991.983 351.138 988.309 351.72 984.502 352.347C984.179 351.793 983.989 351.17 983.946 350.529C983.904 349.887 984.01 349.245 984.257 348.652C986.995 336.648 989.801 324.644 992.45 312.617C993.096 309.683 994.298 307.712 997.504 307.533C998.209 307.465 998.909 307.345 999.597 307.175C1005.03 306.033 1005.12 306.033 1004.52 311.654C1003.36 322.673 1002.14 333.684 1000.87 344.688C1000.44 349.593 1000.33 349.615 995.745 350.466H995.634ZM995.5 299.135L1002.54 265.765C1002.8 264.533 1003.03 263.323 1003.25 262.092C1004.34 256.358 1004.34 256.358 1010.97 255.373C1011.46 261.308 1010.06 267.064 1009.62 272.887C1009.13 279.292 1008.06 285.652 1007.39 292.035C1007.06 295.26 1005.81 297.365 1002.38 297.791C1000.42 297.992 998.417 298.552 995.612 299.135H995.5ZM1083.18 487.149C1083.18 489.389 1082.42 490.441 1080.1 490.396C1074.25 490.396 1068.39 490.396 1062.54 490.396C1060.47 490.396 1059.73 489.389 1059.75 487.44C1059.75 482.961 1059.75 478.482 1059.75 474.003H1059.44C1059.44 470.083 1059.44 466.142 1059.44 462.222C1059.44 458.303 1059.44 458.213 1063.16 458.169C1068.66 458.169 1074.16 458.169 1079.66 458.169C1082.02 458.169 1083.27 458.751 1083.22 461.461C1083.24 469.904 1083.24 478.571 1083.29 487.127L1083.18 487.149ZM1083.31 438.438C1083.31 442.738 1083.31 447.015 1083.31 451.315C1083.31 453.353 1082.46 454.249 1080.48 454.249C1074.45 454.249 1068.39 454.249 1062.36 454.249C1060.42 454.249 1059.38 453.533 1059.38 451.45C1059.38 443.044 1059.31 434.638 1059.18 426.232C1059.18 424.149 1060.16 423.388 1062.11 423.388C1068.15 423.388 1074.2 423.388 1080.24 423.388C1082.46 423.388 1083.42 424.283 1083.38 426.568C1083.35 430.554 1083.42 434.474 1083.42 438.415L1083.31 438.438ZM1083.31 416.266C1083.31 418.505 1082.62 419.535 1080.26 419.491C1074.23 419.491 1068.19 419.491 1062.16 419.491C1060.2 419.491 1059.22 418.752 1059.22 416.691C1059.22 408.293 1059.22 399.894 1059.35 391.518C1059.35 389.682 1060.33 389.032 1062.05 389.032C1068.27 389.032 1074.48 389.032 1080.68 389.032C1082.91 389.032 1083.33 390.242 1083.31 392.123C1083.31 396.042 1083.31 399.984 1083.31 403.903C1083.38 408.024 1083.31 412.145 1083.4 416.154L1083.31 416.266ZM1083.42 373.176C1083.42 376.222 1083.42 379.267 1083.42 382.313C1083.42 384.374 1082.58 385.202 1080.57 385.202C1074.52 385.202 1068.46 385.202 1062.4 385.202C1059.98 385.202 1059.38 384.015 1059.4 381.888C1059.4 377.229 1059.36 372.571 1059.29 367.913C1059.21 367.478 1059.22 367.031 1059.31 366.6C1059.41 366.169 1059.59 365.762 1059.85 365.404C1060.11 365.046 1060.44 364.744 1060.82 364.517C1061.19 364.29 1061.61 364.142 1062.05 364.083C1068.07 362.482 1074.26 361.558 1080.48 361.328C1082.87 361.328 1083.6 362.314 1083.53 364.531C1083.44 367.42 1083.51 370.287 1083.51 373.153L1083.42 373.176ZM1081.04 357.655C1074.66 357.938 1068.32 358.838 1062.11 360.343C1060.62 360.746 1059.73 360.119 1059.89 358.439C1059.89 358.081 1059.89 357.723 1059.89 357.364C1059.89 348.563 1059.15 349.817 1067.06 349.705H1071.84C1074.85 349.705 1077.88 349.705 1080.88 349.705C1083.47 349.705 1083.69 351.295 1083.58 353.243C1083.47 355.192 1084.27 357.409 1081.13 357.633L1081.04 357.655ZM1083.6 330.063C1083.6 334.341 1083.6 338.641 1083.6 342.919C1083.6 345.36 1082.95 346.502 1080.3 346.435C1074.45 346.301 1068.59 346.435 1062.74 346.435C1060.78 346.435 1059.82 345.741 1059.84 343.658C1059.84 334.55 1059.84 325.442 1059.84 316.335C1059.84 314.274 1060.67 313.446 1062.67 313.468C1068.71 313.468 1074.74 313.468 1080.77 313.468C1083.13 313.468 1083.82 314.498 1083.78 316.715C1083.62 321.105 1083.69 325.584 1083.69 330.041L1083.6 330.063ZM1080.64 310.086C1074.78 310.086 1068.93 309.974 1063.07 310.086C1060.62 310.086 1059.53 309.414 1059.64 306.772C1059.82 302.852 1059.64 298.933 1059.64 294.991C1059.64 291.072 1059.64 287.13 1059.64 283.211C1059.64 280.971 1060.18 279.538 1062.89 279.583C1068.75 279.717 1074.61 279.583 1080.46 279.583C1082.69 279.583 1083.58 280.524 1083.56 282.763C1083.56 290.796 1083.56 298.821 1083.56 306.839C1083.76 309.101 1083.09 310.109 1080.73 310.064L1080.64 310.086ZM1059.98 233.134C1059.98 227.602 1059.98 221.936 1060.11 216.493C1060.11 215.418 1060.11 214.254 1060.11 213.268C1060.11 212.283 1060.58 211.029 1061.87 211.029C1063.16 211.029 1063.36 211.79 1063.81 212.529C1064.05 213.009 1064.27 213.502 1064.45 214.007C1067.77 221.712 1071.13 229.393 1074.4 237.12C1075.65 240.076 1075.38 240.412 1072.18 240.591H1067.37C1058.91 240.479 1060.16 241.107 1060.07 233.111L1059.98 233.134ZM1065.37 276.515C1070.46 273.088 1076.23 273.021 1081.97 272.842C1083.04 272.842 1083.56 273.469 1083.58 274.477C1083.63 274.738 1083.61 275.008 1083.54 275.263C1083.46 275.518 1083.33 275.751 1083.14 275.943C1082.96 276.136 1082.74 276.282 1082.49 276.37C1082.24 276.457 1081.97 276.484 1081.71 276.447H1076.43L1065.37 276.515ZM1083.89 265.16C1083.6 267.601 1083.49 269.012 1080.39 269.102C1073.4 269.442 1066.52 270.956 1060.02 273.581C1060.02 264.107 1060.02 255.53 1060.02 246.952C1060.02 245.048 1060.62 243.906 1062.76 243.928C1067.04 243.928 1071.31 243.928 1075.58 243.928C1076.12 243.861 1076.67 243.979 1077.13 244.264C1077.59 244.549 1077.94 244.984 1078.12 245.496C1080.28 252.013 1084.87 257.68 1083.96 265.137L1083.89 265.16ZM1077.21 207.468C1081.24 210.446 1083.89 217.591 1082.91 223.772C1080.55 217.904 1077.7 213.246 1077.32 207.445L1077.21 207.468ZM1083.89 172.396C1083.89 173.448 1083.89 174.77 1082.71 175.083C1081.53 175.397 1079.53 175.419 1078.79 174.098C1077.01 170.828 1075.58 167.379 1074 163.952C1074 163.796 1073.87 163.482 1074 163.437C1077.9 160.974 1074 158.107 1074.38 155.33C1077.05 154.456 1079.61 155.509 1082.22 155.688C1083.96 155.8 1084 157.144 1084.02 158.421C1084.11 163.019 1084.13 167.67 1084.09 172.373L1083.89 172.396ZM1082.53 154.121C1079.69 154.054 1076.85 153.83 1074.03 153.449C1072.11 153.158 1071.93 151.209 1071.42 149.753L1069.55 149.485C1068.13 149.977 1067.08 149.619 1067.1 147.962C1066.75 144.861 1066.9 141.723 1067.53 138.667L1068.5 136.719C1066.75 133.359 1067.79 129.731 1067.57 126.238C1067.57 124.603 1068.55 124.155 1070.04 124.311C1073.94 124.737 1077.81 125.185 1081.73 125.498C1082.08 125.468 1082.44 125.518 1082.77 125.645C1083.1 125.771 1083.4 125.971 1083.64 126.229C1083.88 126.487 1084.07 126.797 1084.18 127.136C1084.28 127.474 1084.32 127.833 1084.27 128.186C1084.27 136.069 1084.27 143.863 1084.27 151.814C1084.27 153.001 1083.84 154.121 1082.53 154.121ZM1083.67 115.152C1083.57 117.12 1083.66 119.093 1083.96 121.042C1084.42 123.707 1083.13 124.177 1080.97 123.953C1078.15 123.662 1075.32 123.259 1072.49 123.08C1065.28 122.609 1066.14 122.072 1065.99 128.858C1065.99 131.277 1066.57 133.807 1064.65 136.293C1062.43 130.314 1060.42 124.311 1061.02 117.817C1061.2 115.891 1064.12 114.076 1066.72 113.897C1071.71 113.539 1072.29 113.001 1072.8 108.5C1072.8 107.761 1072.96 106.932 1072.2 106.686C1071.77 106.53 1071.31 106.545 1070.89 106.729C1070.48 106.913 1070.15 107.25 1069.97 107.671C1067.5 112.688 1067.24 112.778 1062.98 110.426C1060.76 109.194 1060.65 107.447 1062.98 106.081C1065.23 104.647 1067.64 103.482 1070.15 102.61C1077.39 100.564 1084.91 99.694 1092.42 100.034C1094.64 100.034 1095.71 100.885 1095.56 103.214C1095.56 104.469 1095.56 105.723 1095.56 106.977C1095.56 112.195 1092.15 114.636 1087.25 113.001C1084.27 111.949 1083.76 112.24 1083.67 115.084V115.152ZM1110.16 117.794C1112.97 116.854 1115.1 118.824 1117.53 119.474C1119.09 119.048 1120.8 118.309 1120.8 121.109C1120.8 129.321 1120.75 137.533 1120.65 145.744C1120.65 147.178 1120.83 149.261 1120.76 150.716C1120.76 158.555 1120.98 166.394 1121 174.255C1121 178.577 1121 178.577 1116.55 178.107C1115.81 177.991 1115.07 177.924 1114.32 177.905C1112.1 177.905 1109.4 177.659 1107.24 177.592C1105.08 177.524 1104.31 176.517 1104.31 174.546C1104.31 170.246 1104.15 165.968 1104.31 161.668C1104.31 159.428 1104.55 153.269 1103.97 152.53C1103.86 143.348 1103.46 134.143 1104.19 124.961C1103.89 123.824 1103.89 122.627 1104.19 121.49C1103.93 116.585 1105.64 117.055 1110.16 117.727V117.794ZM1105.98 273.29C1106.71 273.29 1107.11 273.67 1107.16 274.499C1107.17 274.626 1107.16 274.755 1107.12 274.876C1107.08 274.998 1107.02 275.109 1106.93 275.202C1106.84 275.294 1106.73 275.366 1106.62 275.411C1106.5 275.456 1106.37 275.473 1106.24 275.462C1105.8 275.462 1105.06 275.193 1104.95 274.88C1104.71 274.118 1105.02 273.446 1105.98 273.222V273.29ZM1104.53 270.893C1104.28 270.987 1104 270.984 1103.76 270.884C1103.51 270.785 1103.31 270.597 1103.19 270.356C1101.59 266.795 1100.03 263.234 1098.52 259.628C1098.43 259.468 1098.39 259.29 1098.38 259.11C1098.38 258.929 1098.42 258.75 1098.49 258.585C1098.57 258.421 1098.68 258.276 1098.82 258.162C1098.96 258.048 1099.12 257.967 1099.3 257.926C1099.64 257.855 1100 257.916 1100.31 258.098C1100.61 258.281 1100.84 258.57 1100.94 258.911C1102.46 262.316 1103.93 265.63 1105.4 269.191C1105.46 269.357 1105.49 269.535 1105.48 269.712C1105.47 269.89 1105.42 270.063 1105.33 270.219C1105.25 270.376 1105.13 270.511 1104.99 270.616C1104.84 270.721 1104.68 270.793 1104.51 270.826L1104.53 270.893ZM1100.08 108.276C1099.72 107.806 1099.36 107.537 1099.36 107.268C1099.36 105.208 1098.32 102.184 1100.05 101.311C1102.57 100.057 1105.33 101.557 1107.73 103.55C1105.56 105.664 1102.94 107.257 1100.08 108.209V108.276ZM1100.21 117.234C1100.37 117.194 1100.53 117.193 1100.69 117.232C1100.85 117.271 1101 117.349 1101.12 117.458C1101.73 118.774 1101.96 120.237 1101.79 121.679C1101.61 123.121 1101.03 124.484 1100.12 125.61C1099.61 124.155 1099.25 123.662 1099.3 123.192C1099.47 121.154 1098.41 118.936 1100.23 117.234H1100.21ZM1099.7 127.402C1099.7 127.211 1099.74 127.022 1099.82 126.85C1099.9 126.677 1100.02 126.525 1100.17 126.405C1100.31 126.284 1100.49 126.199 1100.67 126.154C1100.86 126.11 1101.05 126.108 1101.23 126.148C1102.44 126.842 1102.1 128.231 1102.15 129.395C1102.37 136.361 1102.5 143.326 1102.61 150.291C1102.67 151.357 1102.58 152.426 1102.37 153.471C1102.27 153.818 1102.06 154.12 1101.77 154.328C1101.48 154.536 1101.12 154.637 1100.77 154.613C1099.88 154.613 1099.63 153.852 1099.63 153.135C1099.63 144.557 1099.63 135.98 1099.7 127.402ZM1101.5 156.853C1102.68 156.853 1102.59 158.04 1102.61 158.891C1102.61 161.556 1102.61 164.221 1102.61 166.886C1102.61 169.551 1102.61 172.216 1102.61 174.882C1102.61 175.845 1102.3 176.696 1101.14 176.584C1100.79 176.534 1100.47 176.346 1100.26 176.061C1100.04 175.776 1099.94 175.417 1099.99 175.061C1099.99 172.216 1099.99 169.372 1099.85 166.55C1099.85 164.064 1099.85 161.578 1099.85 159.092C1099.85 158.017 1100.03 156.763 1101.5 156.83V156.853ZM1104.64 197.166V231.969C1102.88 231.32 1102.72 229.729 1102.19 228.587C1099.45 222.428 1096.78 216.225 1094 210.066C1093.25 208.258 1092.69 206.373 1092.35 204.444C1092.13 203.752 1092.19 203.002 1092.5 202.348C1092.82 201.694 1093.37 201.186 1094.04 200.928C1097.43 199.562 1100.43 197.098 1104.64 197.188V197.166ZM1088.01 229.685C1090.48 235.687 1094.69 241.017 1094.69 247.87C1090.35 243.324 1087.07 234.343 1088.01 229.685ZM1092.62 280.591C1091.61 281.89 1090.08 281.554 1088.7 281.285C1086.81 280.927 1086.94 279.381 1086.94 277.97C1086.94 277.433 1086.94 276.918 1086.94 276.38C1086.94 275.843 1086.94 274.969 1086.94 274.275C1086.93 273.918 1087.03 273.566 1087.24 273.278C1087.45 272.989 1087.75 272.78 1088.1 272.685C1088.44 272.591 1088.81 272.62 1089.13 272.767C1089.46 272.914 1089.72 273.17 1089.88 273.491C1090.59 274.701 1091.22 275.958 1091.77 277.254C1092.24 278.329 1093.55 279.381 1092.62 280.613V280.591ZM1089.79 195.822C1088.25 196.292 1087.56 195.083 1087.38 193.739C1087.1 192.059 1088.01 191.499 1089.5 191.611C1091.37 191.791 1093.24 192.059 1095.89 192.373C1095.15 193.332 1094.23 194.132 1093.18 194.728C1092.12 195.324 1090.97 195.704 1089.77 195.844L1089.79 195.822ZM1089.92 157.928C1089.92 156.495 1091.08 156.315 1092.15 156.472C1093.71 156.651 1095.49 156.472 1095.47 158.936C1095.44 161.399 1095.47 163.952 1095.47 166.461H1095.4C1095.4 168.969 1095.4 171.477 1095.4 173.986C1095.4 175.106 1095.09 176.225 1093.64 176.091C1092.19 175.957 1089.99 176.337 1089.92 174.031C1089.74 168.7 1089.83 163.325 1089.92 157.95V157.928ZM1095.6 152.553C1095.6 154.344 1094.91 155.24 1093.08 155.016L1089.92 154.613C1089.92 154.613 1086.12 154.367 1085.87 153.314C1085.66 152.087 1085.58 150.84 1085.65 149.597C1085.65 143.527 1085.65 137.458 1085.65 131.411C1085.46 129.311 1085.88 127.201 1086.87 125.342C1087.45 124.379 1085.34 122.005 1085.76 119.944C1085.92 119.116 1089.48 115.801 1095.02 115.913C1095.4 118.812 1095.4 121.748 1095.02 124.647V126.887C1096.2 135.465 1095.4 144.02 1095.58 152.575L1095.6 152.553ZM1086.69 156.315C1088.32 158.936 1088.7 168.23 1087.3 175.845C1085.29 171.545 1085.16 160.638 1086.65 156.36L1086.69 156.315ZM1086.96 320.411C1086.96 309.862 1086.96 299.314 1086.96 288.765C1086.96 286.996 1086.2 284.734 1089.32 284.286C1094.13 283.681 1094.84 283.793 1096.22 286.951C1097.85 290.714 1099.32 294.566 1100.97 298.306C1101.59 299.785 1101.9 301.379 1101.88 302.987C1102.08 319.605 1102.32 336.245 1102.48 352.863C1102.48 357.678 1102.48 357.678 1097.76 357.342C1095.53 357.207 1093.15 357.185 1090.84 357.073C1087.12 356.894 1087.03 356.871 1087.01 353.042C1087.01 342.135 1087.01 331.228 1087.01 320.321L1086.96 320.411ZM1086.96 363.299C1087.07 361.395 1088.12 360.925 1089.72 360.88C1094.5 360.588 1099.29 360.889 1103.99 361.776C1099.77 364.032 1095.28 365.755 1090.64 366.905C1087.67 367.465 1086.83 366.367 1087.01 363.344L1086.96 363.299ZM1129.75 404.956C1128.31 424.059 1126.06 443.029 1123.96 462.133C1122.92 471.561 1121.74 480.99 1120.89 490.441C1120.67 492.681 1119.96 493.621 1117.66 493.666C1109.11 493.801 1100.57 494.002 1092.04 494.338C1089.12 494.45 1088.32 493.106 1088.3 490.531C1088.3 484.977 1088.07 479.333 1088.03 473.868C1087.7 441.976 1087.39 410.092 1087.1 378.215C1087.1 377.319 1087.1 376.423 1087.1 375.527C1087.1 371.048 1086.89 370.757 1091.55 370.04C1096.96 368.934 1102.24 367.245 1107.29 365.001C1107.91 364.86 1108.47 364.535 1108.91 364.069C1109.34 363.602 1109.63 363.016 1109.73 362.385C1109.83 361.754 1109.74 361.107 1109.47 360.528C1109.2 359.948 1108.77 359.463 1108.22 359.133C1107.51 358.636 1106.93 357.965 1106.54 357.181C1106.15 356.398 1105.96 355.529 1106 354.654C1105.71 340.858 1105.33 327.085 1105 313.289C1104.87 312.757 1104.89 312.199 1105.07 311.68C1105.24 311.161 1105.55 310.702 1105.98 310.355C1110.43 318.955 1113.72 327.622 1117.35 336.155C1120.98 344.688 1124.68 353.243 1128.33 361.799C1128.81 362.634 1129.11 363.568 1129.19 364.532C1129.28 365.496 1129.15 366.467 1128.82 367.375C1124.37 378.82 1126.84 389.368 1133.49 399.648C1130.58 400.23 1129.95 402.223 1129.75 404.956ZM1107.73 278.553C1107.92 278.407 1108.14 278.313 1108.38 278.277C1108.61 278.241 1108.85 278.266 1109.07 278.349C1109.3 278.432 1109.5 278.57 1109.65 278.75C1109.8 278.931 1109.91 279.148 1109.96 279.381C1112.19 284.555 1114.52 289.751 1116.8 295.059C1116.9 295.394 1116.97 295.739 1117 296.089C1116.84 296.38 1116.73 296.895 1116.55 296.917C1116.06 297.008 1115.55 296.97 1115.08 296.805C1114.78 296.628 1114.55 296.351 1114.44 296.022C1112.11 290.856 1109.79 285.682 1107.49 280.501C1107.11 279.807 1106.91 279.023 1107.73 278.575V278.553ZM1131.02 334.699C1127.24 326.279 1123.59 317.79 1119.89 309.302C1119.55 308.488 1119.27 307.65 1119.04 306.794C1118.89 306.189 1119.29 305.809 1119.78 305.54C1120.27 305.271 1120.83 305.54 1121.16 305.965C1121.51 306.369 1121.79 306.822 1122.01 307.309C1127.44 318.865 1132.16 330.713 1136.52 342.852C1133.97 340.698 1132.07 337.876 1131.02 334.699ZM1158.63 331.004C1157.38 335.976 1156.09 340.948 1154.87 345.763C1152.64 346.009 1152.51 344.464 1151.97 343.523C1149.41 338.574 1147.92 333.177 1145.56 328.137C1144.45 325.719 1146.39 323.322 1146.63 320.859C1146.94 317.656 1163.26 315.416 1162.21 317.387C1161.5 319.963 1160.86 322.561 1159.99 325.114C1159.85 326.234 1158.83 330.332 1158.65 331.049L1158.63 331.004ZM1191.6 329.638C1191.27 329.918 1190.87 330.112 1190.44 330.202C1190.02 330.291 1189.57 330.275 1189.15 330.153C1183.94 328.249 1179.07 330.78 1174.04 331.407C1172.3 331.631 1172.35 332.885 1172.41 334.184C1172.55 337.006 1174.39 340.276 1172.61 342.493C1171.14 344.352 1167.83 344.352 1165.64 346.077C1164.17 347.197 1162.34 347.746 1160.5 347.622C1161.9 339.111 1164.26 331.273 1166.16 323.322C1166.73 320.881 1167.31 318.462 1167.87 316.021C1169.38 309.414 1172.7 306.884 1179.51 307.667C1185.01 308.295 1190.51 308.563 1196.01 308.675C1198.66 308.675 1200.04 309.706 1199.8 312.505C1199.75 313.251 1199.75 313.999 1199.8 314.745C1200.26 324.621 1200.26 324.599 1191.63 329.638H1191.6ZM1231.9 316.536C1226.24 316.233 1220.56 316.7 1215.03 317.925C1212.64 318.485 1211.69 317.768 1211.73 315.394C1211.73 314.319 1211.73 313.155 1211.73 312.191C1211.73 310.333 1212.53 309.616 1214.29 309.75L1225.42 310.557C1229.8 310.557 1234.17 310.901 1238.49 311.587C1236.35 316.671 1236.35 316.715 1231.92 316.536H1231.9ZM1266.61 113.629C1268.17 113.629 1269.53 114.032 1269.39 115.868C1269.26 117.705 1267.64 117.122 1266.9 117.369C1265.25 117.369 1264.03 117.257 1264.07 115.42C1264.12 113.584 1265.34 113.651 1266.66 113.651L1266.61 113.629ZM1228.41 128.388C1233.04 127.111 1237.69 125.924 1242.39 124.961C1247.29 124.137 1251.95 122.258 1256.06 119.452C1259.04 126.019 1260.72 133.11 1261 140.325C1262.85 175.195 1265.05 210.043 1267.1 244.891C1267.26 247.534 1267.99 250.334 1264.88 251.969C1264.69 252.135 1264.54 252.343 1264.44 252.576C1264.35 252.809 1264.3 253.061 1264.32 253.312C1264.92 259.65 1262.96 265.697 1262.31 271.879C1261.94 275.462 1261.6 279.045 1264.54 282.405C1257.1 285.473 1252.27 290.893 1248.04 296.94C1247.57 297.671 1246.9 298.25 1246.11 298.604C1245.32 298.958 1244.45 299.072 1243.59 298.933C1233.84 298.216 1224.06 297.432 1214.29 296.895C1211.11 296.716 1211.08 294.655 1210.95 292.528C1210.39 282.338 1209.95 272.147 1209.33 261.957C1207.84 237.471 1206.27 212.992 1204.61 188.521C1203.8 176.382 1202.94 164.221 1202.16 152.082C1201.68 148.546 1202.04 144.944 1203.23 141.579C1203.83 139.332 1204.07 137.005 1203.96 134.681C1204.27 130.202 1204.29 129.754 1208.99 130.403C1215.55 131.107 1222.17 130.429 1228.45 128.41L1228.41 128.388ZM1054.3 99.8102C1058.55 98.5113 1062.83 97.2795 1067.1 96.0925C1083.73 91.4118 1100.39 86.9326 1117 82.4534L1207.81 57.2131C1209.35 56.7875 1210.93 56.474 1212.49 56.0709C1214.71 55.511 1216.34 55.7349 1217.32 58.0417C1217.86 58.9875 1218.03 60.0983 1217.82 61.1661C1217.6 62.2339 1217 63.1854 1216.14 63.8423C1215.45 64.4022 1214.67 64.8501 1213.91 65.4324C1210.79 67.7582 1208.7 71.2298 1208.1 75.0949C1207.5 78.96 1208.43 82.9073 1210.71 86.0815C1213.6 90.5607 1212.64 95.4206 1212.62 100.124C1212.62 102.789 1193.56 109.463 1188.13 110.135C1186.95 110.292 1186.51 111.21 1186.04 112.374C1184.66 115.702 1184.3 119.368 1185.01 122.901C1185.88 128.567 1185.88 134.546 1187.86 139.787C1192.74 152.687 1191.14 166.17 1192.32 179.338C1194.54 205.922 1195.41 232.596 1197.08 259.225C1197.75 269.93 1198.77 280.635 1199.06 291.386C1199.2 296.156 1199.06 296.447 1194.36 295.641C1180.81 293.267 1167.85 296.581 1154.85 299.515C1152.62 300.053 1150.9 302.248 1148.17 301.979C1146.76 301.845 1146.87 303.726 1146.72 304.98C1145.82 310.186 1144.63 315.338 1143.16 320.411C1140.93 319.873 1140.93 318.171 1140.44 316.939C1129.8 292.408 1119.24 267.922 1108.76 243.481C1107.7 241.217 1107.13 238.749 1107.11 236.247C1107.11 224.242 1107.11 212.238 1107.11 200.256C1107.11 196.068 1107.11 196.046 1111.25 194.836C1113.12 194.277 1114.99 193.694 1116.91 193.246C1119.56 192.642 1121.67 191.679 1121.11 188.297C1121.07 188.032 1121.08 187.761 1121.15 187.501C1121.22 187.242 1121.34 187.001 1121.52 186.796C1125.48 184.176 1124.03 180.839 1123.03 177.39C1122.74 175.802 1122.67 174.183 1122.81 172.575C1122.58 155.39 1122.38 138.219 1122.18 121.064C1122.18 116.585 1122.18 116.719 1117.89 116.316L1107.27 115.286C1106.02 115.174 1104.66 115.286 1104.31 113.629C1104.08 112.94 1104.09 112.198 1104.31 111.51C1104.53 110.822 1104.97 110.223 1105.55 109.799C1106.42 109.172 1107.31 108.589 1108.14 107.873C1108.89 107.383 1109.49 106.692 1109.88 105.877C1110.27 105.062 1110.42 104.155 1110.33 103.257C1110.23 102.358 1109.89 101.504 1109.35 100.789C1108.8 100.074 1108.06 99.5256 1107.22 99.2056C1105.33 98.2148 1103.29 97.5415 1101.19 97.2123C1086.61 95.1071 1072.42 95.8686 1059.38 103.797C1058.31 104.446 1057.15 105.096 1056.13 105.633C1054.66 106.35 1052.99 108.164 1051.67 105.835C1050.49 104.133 1052.34 100.37 1054.3 99.8102ZM1197.82 131.008C1197.82 133.247 1196.06 132.643 1194.88 132.8C1193.7 132.956 1192.36 132.486 1192.41 130.784C1192.41 128.544 1194.03 128.903 1195.39 128.903C1196.75 128.903 1197.82 129.485 1197.82 131.008ZM1049.16 191.477C1049.16 193.112 1048.22 193.717 1046.75 193.537C1045.28 193.358 1043.93 193.291 1042.52 193.202C1042.12 193.255 1041.71 193.21 1041.33 193.07C1040.95 192.93 1040.61 192.7 1040.33 192.398C1040.06 192.097 1039.86 191.734 1039.76 191.339C1039.66 190.945 1039.65 190.531 1039.74 190.133C1039.87 187.894 1041.28 188.095 1042.72 188.14H1044.28C1044.84 188.14 1045.91 188.14 1046.98 188.342C1048.93 188.61 1049.22 189.954 1049.2 191.477H1049.16ZM1043.77 165.766C1044.18 166.34 1044.5 166.965 1044.75 167.625C1045.19 168.924 1046.29 170.044 1045.88 171.589C1040.27 172.127 1039.2 171.365 1039.85 166.953C1039.85 166.08 1039.96 165.117 1041.01 164.714C1041.52 164.52 1042.08 164.52 1042.59 164.714C1043.1 164.908 1043.52 165.282 1043.77 165.766ZM1041.77 163.079C1041.77 163.236 1041.1 163.325 1040.85 163.213C1039.23 162.34 1039.96 160.862 1039.65 159.003C1041.97 160.123 1042.57 161.332 1041.77 163.079ZM1032.3 214.343C1033.06 207.871 1033.06 207.871 1039.61 208.341C1040.67 208.341 1041.83 208.341 1042.81 208.52C1044.4 208.495 1045.99 208.714 1047.51 209.17C1049.07 209.864 1048.02 211.745 1048.33 213.067C1048.65 214.388 1049.42 214.903 1050.56 214.612C1051.7 214.321 1053.57 213.671 1055.3 213.134C1055.94 214.245 1056.2 215.535 1056.04 216.807C1056.04 234.88 1055.86 252.976 1056.04 271.05C1056.17 272.326 1055.87 273.611 1055.16 274.682C1054.46 275.754 1053.41 276.544 1052.19 276.918C1051.36 277.223 1050.55 277.59 1049.78 278.015C1049.44 278.264 1049.17 278.607 1049.01 279.004C1048.85 279.401 1048.81 279.835 1048.89 280.255C1049.09 281.307 1049.94 281.487 1050.85 281.711C1052.39 282.046 1054.28 281.195 1055.41 282.517C1056.55 283.838 1055.97 286.302 1055.97 288.228C1055.97 311.146 1055.9 334.057 1055.75 356.961C1055.75 361.687 1056.57 362.47 1051.09 363.68C1049.89 363.926 1048.51 364.352 1048.56 365.919C1048.56 367.98 1050.31 367.734 1051.7 367.98C1055.61 368.652 1055.66 368.674 1055.66 372.593C1055.66 410.726 1055.59 448.859 1055.46 486.992C1055.46 491.987 1055.46 492.031 1050.45 492.054C1035.61 492.054 1020.84 492.054 1006.14 492.054C1001.56 492.054 1001.69 492.054 1001.44 487.171C1000.96 477.452 1002.56 467.888 1003.67 458.303C1006.25 435.011 1008.88 411.719 1011.69 388.45C1015.69 355.237 1018.92 321.934 1023.22 288.765C1026.38 264.04 1029.3 239.225 1032.33 214.299L1032.3 214.343ZM1014.18 210.312C1014.49 208.968 1014.18 206.482 1016.56 206.908C1018.45 207.266 1017.5 209.327 1017.36 210.581C1016.54 218.218 1015.6 225.833 1014.69 233.47C1014.47 235.418 1014.22 237.366 1013.98 239.315C1013.33 244.533 1013.13 244.712 1006.83 245.407C1008.15 239.203 1009.42 233.134 1010.68 227.087C1011.86 221.443 1013.02 215.822 1014.2 210.267L1014.18 210.312ZM820.125 127.984L857.173 117.884C861.047 116.831 861.069 116.854 862.538 120.571C864.008 124.289 865.388 127.917 866.724 131.613C868.06 135.308 868.082 135.465 864.075 136.607C853.655 139.563 843.213 142.475 832.771 145.431C830.367 146.103 827.984 146.797 825.602 147.491C823.865 148.006 822.53 147.85 821.795 145.834C819.88 140.481 817.854 135.174 815.939 130C817.097 128.914 818.558 128.21 820.125 127.984ZM760.858 137.324C761.102 137.21 761.379 137.193 761.635 137.276C761.891 137.359 762.106 137.536 762.238 137.771C762.813 138.689 763.291 139.665 763.663 140.683C767.24 150.731 770.795 160.787 774.328 170.85C774.617 171.679 774.84 172.552 775.084 173.359C775.084 174.12 775.084 174.971 774.105 175.038C773.861 175.008 773.627 174.924 773.419 174.793C773.211 174.661 773.035 174.485 772.903 174.277C772.583 173.64 772.33 172.972 772.146 172.284C768.405 161.922 764.695 151.552 761.013 141.176C760.715 140.339 760.462 139.487 760.257 138.623C760.175 138.37 760.192 138.095 760.303 137.854C760.415 137.613 760.613 137.424 760.858 137.324ZM761.615 207.132C765.845 208.408 770.253 209.147 774.55 210.155C778.847 211.163 779.003 211.23 779.003 215.754C779.003 216.471 779.003 217.188 779.003 217.994C778.446 225.273 777.823 232.73 777.333 240.211C777.177 242.607 776.665 244.22 773.904 244.69C771.144 245.16 768.984 245.922 766.824 243.145C760.86 235.605 755.458 227.633 750.661 219.293C748.991 216.337 747.321 213.403 745.696 210.446C744.916 209.036 745.273 207.893 746.876 207.714C751.774 207.199 756.561 205.631 761.615 207.132ZM723.765 124.647C723.877 116.428 724.166 108.186 724.122 100.012C724.122 97.1899 725.524 96.2717 727.818 95.7566C730.111 95.2415 732.27 93.8305 734.385 96.7644C738.193 102.162 742.401 107.246 746.43 112.442C747.165 113.405 748.034 114.278 746.72 115.622C743.091 119.384 730.4 126.327 724.456 127.604C723.587 126.842 723.832 125.7 723.854 124.67L723.765 124.647ZM726.192 151.007C725.814 148.768 726.192 147.581 728.641 147.29C731.09 146.999 732.849 146.551 734.942 146.192C737.035 145.834 737.881 146.797 738.527 148.544C741.97 157.741 745.443 166.924 748.946 176.091C749.703 178.062 748.946 179.07 747.076 179.719C743.736 180.906 740.397 182.16 737.124 183.504C735.12 184.333 734.274 183.661 733.629 181.712C730.449 171.676 727.993 161.422 726.281 151.03L726.192 151.007ZM731.736 439.916C733.054 436.356 733.109 432.448 731.892 428.852C731.276 426.792 731.012 424.641 731.113 422.492C731.625 390.801 732.604 359.111 732.56 327.398C732.56 324.644 732.003 324.666 736.1 324.599C737.502 324.599 738.081 323.255 738.104 321.867C738.126 320.478 739.261 293.804 737.324 291.766C734.853 289.168 734.185 288.34 734.118 285.988C733.94 278.709 732.226 271.588 732.181 264.264C732.181 251.364 731.714 238.486 732.181 225.586C732.181 224.198 732.426 222.809 732.582 221.398C734.564 221.398 734.675 222.899 735.232 223.839C746.364 243.57 761.058 260.613 776.843 276.716C779.252 279.103 781.867 281.269 784.658 283.189C788.977 286.257 789.712 263.57 789.734 262.159C789.89 241.375 790.091 220.614 790.18 199.831C789.95 196.63 790.866 193.453 792.762 190.872C796.525 186.236 797.75 180.279 800.288 175.016C800.799 173.843 801.581 172.808 802.568 171.998C803.555 171.188 804.719 170.626 805.965 170.358C828.83 163.863 851.651 157.211 874.517 150.716C913.509 139.638 952.516 128.597 991.537 117.593C992.934 117.314 994.304 116.917 995.634 116.406C1000.38 114.166 1003.63 117.682 1006.32 120.079C1008.55 121.982 1008.37 126.103 1008.41 129.261C1008.57 140.907 1008.99 152.575 1008.12 164.154C1007.48 172.754 1004.96 181.197 1003.25 189.73C1002.16 195.172 1001.02 200.57 999.909 206.034C999.263 209.506 997.682 212.753 997.215 216.225C995.344 227.423 992.962 238.464 990.535 249.55C985.415 273.872 980.516 298.261 975.24 322.538C973.013 332.37 971.321 342.292 969.117 352.101C966.913 361.911 964.909 372.056 962.727 382.022C960.545 391.988 958.275 401.574 956.248 411.383C954.222 421.193 952.219 431.383 949.859 441.304C947.632 450.263 946.719 459.535 944.048 468.336C941.977 475.055 939.595 481.774 937.725 488.717C936.748 493.256 936.285 497.891 936.344 502.535C936.122 507.014 937.168 511.493 935.387 515.793C934.763 517.025 934.007 516.936 933.161 516.017L925.657 516.577C924.745 518.055 923.676 517.966 922.496 516.913L913.902 517.585C913.234 519.018 911.854 518.862 910.674 518.929C899.163 519.534 887.675 520.497 876.209 521.325C859.355 522.557 842.523 521.751 825.691 522.132H823.019C816.34 522.132 815.249 520.743 816.184 513.621C815.727 512.363 814.854 511.302 813.71 510.617C812.566 509.932 811.223 509.664 809.906 509.859C803.516 509.859 797.126 509.859 790.759 509.635C785.838 509.635 785.482 509.635 785.081 504.797C784.814 501.617 782.32 501.639 780.628 500.631C780.628 498.504 782.343 497.72 783.233 496.466C784.738 494.457 785.688 492.084 785.985 489.587C786.283 487.089 785.918 484.557 784.927 482.248C783.937 479.939 782.356 477.934 780.345 476.439C778.335 474.943 775.967 474.01 773.481 473.734C771.411 473.443 769.029 474.249 767.448 472.323C764.041 467.844 759.188 467.687 754.357 467.194C752.397 466.993 750.371 467.194 750.149 469.434C749.748 473.196 747.321 472.928 744.783 472.816C743.937 472.816 743.046 472.345 742.267 473.084C741.844 475.727 744.115 477.093 745.117 479.064C745.651 480.139 746.876 481.304 745.762 482.401C744.649 483.498 743.158 485.089 741.31 484.461C739.83 483.886 738.303 483.443 736.745 483.14C735.788 483.006 735.009 482.692 735.565 481.438C735.788 481.044 735.893 480.594 735.87 480.142C735.846 479.689 735.694 479.253 735.432 478.885C733.206 476.332 733.695 469.299 734.608 468.18C735.521 467.06 734.408 459.423 731.335 454.876C730.773 453.965 730.501 452.902 730.556 451.83C730.262 447.857 730.7 443.864 731.847 440.05L731.736 439.916ZM714.17 501.886C713.904 501.868 713.654 501.75 713.472 501.554C713.29 501.359 713.189 501.101 713.19 500.833C713.156 500.659 713.161 500.479 713.207 500.307C713.253 500.135 713.337 499.976 713.453 499.842C713.569 499.708 713.714 499.603 713.877 499.534C714.039 499.465 714.216 499.434 714.392 499.444C714.524 499.425 714.658 499.435 714.786 499.472C714.914 499.509 715.032 499.573 715.133 499.66C715.234 499.747 715.316 499.855 715.372 499.976C715.429 500.097 715.459 500.229 715.461 500.363C715.454 500.724 715.337 501.074 715.126 501.366C714.915 501.658 714.62 501.879 714.281 501.998L714.17 501.886ZM713.947 451.136C716.73 450.599 719.491 449.949 722.274 449.389C724.634 448.897 726.326 449.837 726.281 452.301C726.281 455.884 726.615 459.602 723.632 462.625C722.767 463.648 722.174 464.875 721.909 466.191C721.644 467.507 721.716 468.87 722.118 470.15C723.12 474.294 720.916 478.146 721.561 482.177C721.561 482.871 720.96 483.476 720.225 483.633C719.491 483.79 718.444 483.767 717.598 484.014C714.526 484.865 713.368 485.805 713.301 487.866C712.567 483.588 711.075 479.31 714.103 475.078C714.503 474.518 714.103 474.137 713.969 473.667C711.053 467.396 711.743 460.677 711.431 454.048C711.41 453.691 711.461 453.333 711.583 452.997C711.704 452.66 711.893 452.353 712.137 452.093C712.381 451.832 712.675 451.625 713.002 451.484C713.328 451.343 713.68 451.27 714.036 451.271L713.947 451.136ZM677.567 375.191C678.28 375.191 678.992 375.191 679.794 375.191C685.493 374.273 688.699 377.812 691.482 381.91C691.699 382.192 691.817 382.539 691.817 382.896C691.817 383.252 691.699 383.599 691.482 383.881C690.948 384.62 690.213 384.329 689.568 384.083C685.293 382.38 681.419 379.738 676.966 378.461C676.12 378.215 675.229 377.812 675.274 376.714C675.408 375.326 676.61 375.371 677.679 375.303L677.567 375.191ZM311.009 189.954C311.928 183.617 313.259 177.348 314.994 171.186C315.03 170.743 315.17 170.314 315.403 169.936C315.635 169.557 315.953 169.239 316.331 169.008C316.708 168.776 317.135 168.638 317.576 168.604C318.017 168.57 318.46 168.641 318.868 168.812C320.983 169.305 323.21 169.686 323.009 172.642C322.809 175.598 322.542 178.667 322.275 181.6C322.037 184.258 321.777 186.908 321.495 189.551C321.006 194.03 320.827 194.254 316.286 194.03C315.573 194.03 314.861 194.03 314.059 193.918C311.143 193.806 310.586 193.224 311.009 189.954ZM327.841 226.213C324.872 231.708 321.852 237.172 318.779 242.607C318.392 243.221 317.808 243.684 317.124 243.92C316.44 244.157 315.697 244.151 315.017 243.906C314.321 243.743 313.694 243.363 313.226 242.82C312.758 242.277 312.473 241.599 312.412 240.883C310.943 234.428 310.049 227.855 309.74 221.241C309.74 219.27 309.495 217.322 309.54 215.351C309.51 215.072 309.544 214.791 309.639 214.527C309.733 214.263 309.886 214.025 310.085 213.829C310.284 213.633 310.525 213.484 310.789 213.395C311.053 213.306 311.334 213.278 311.61 213.313C313.861 213.647 316.03 214.407 318 215.553C321.05 217.792 323.9 220.032 326.906 222.451C327.22 222.637 327.495 222.885 327.713 223.18C327.931 223.475 328.088 223.81 328.175 224.167C328.263 224.524 328.278 224.895 328.22 225.258C328.163 225.621 328.034 225.968 327.841 226.28V226.213ZM326.015 154.546C325.303 154.546 324.59 154.546 323.789 154.546C321.985 154.546 321.028 153.516 321.829 151.769C324.189 146.595 326.661 141.467 329.132 136.338C329.44 135.685 329.962 135.158 330.612 134.848C331.261 134.538 331.996 134.463 332.694 134.636C333.543 134.596 334.376 134.881 335.024 135.434C335.673 135.986 336.089 136.766 336.19 137.615C336.947 141.646 337.726 145.655 338.416 149.686C338.531 150.025 338.57 150.385 338.53 150.741C338.49 151.096 338.372 151.438 338.185 151.743C337.997 152.047 337.745 152.306 337.446 152.5C337.148 152.694 336.81 152.819 336.457 152.866C333.062 153.858 329.567 154.459 326.037 154.658L326.015 154.546ZM338.416 197.367C338.353 197.628 338.2 197.857 337.983 198.013C337.767 198.169 337.502 198.242 337.236 198.218C336.977 198.159 336.748 198.005 336.596 197.785C336.444 197.566 336.378 197.297 336.412 197.031C336.769 189.193 337.837 181.354 338.772 173.65C338.772 172.799 339.129 171.769 340.242 171.836C341.355 171.903 341.266 172.844 341.199 173.515C340.309 181.466 339.774 189.484 338.416 197.367ZM406.634 189.081C406.411 191.522 406.099 193.56 406.055 195.799C406.055 198.756 404.43 199.36 401.869 199.002C393.965 197.86 386.084 196.763 378.158 195.71C377.671 195.736 377.185 195.647 376.739 195.449C376.294 195.251 375.901 194.95 375.593 194.57C375.284 194.19 375.07 193.742 374.966 193.263C374.863 192.784 374.873 192.287 374.996 191.813C375.976 179.406 375.419 181.153 385.305 182.608C391.271 183.482 397.216 184.4 403.116 185.206C405.699 185.475 407.035 186.64 406.545 189.081H406.634ZM480.128 494.54C480.128 497.586 479.571 500.34 475.542 500.251C473.315 500.251 473.916 503.364 471.334 503.7C470.355 498.861 469.989 493.917 470.243 488.985C470.26 488.672 470.338 488.364 470.475 488.081C470.611 487.798 470.801 487.545 471.035 487.337C471.269 487.128 471.542 486.969 471.838 486.867C472.134 486.766 472.447 486.725 472.759 486.746C476.315 486.201 479.933 486.201 483.49 486.746C481.798 489.613 480.106 491.695 480.128 494.54ZM584.169 396.109C582.477 395.975 581.942 394.452 581.519 393.243C578.781 386.837 576.154 380.365 573.526 373.915C573.189 373.094 572.978 372.225 572.903 371.339C572.926 371.088 573.001 370.844 573.124 370.624C573.247 370.404 573.414 370.213 573.616 370.063C573.729 369.988 573.857 369.937 573.99 369.913C574.124 369.888 574.261 369.891 574.393 369.92C574.526 369.949 574.651 370.004 574.762 370.083C574.873 370.161 574.968 370.261 575.04 370.376C575.605 371.056 576.077 371.81 576.443 372.616C579.219 379.603 581.957 386.598 584.659 393.601C584.911 394.003 585.001 394.487 584.91 394.953C584.819 395.42 584.554 395.833 584.169 396.109ZM666.658 376.446C666.73 376.896 666.627 377.357 666.37 377.732C666.113 378.108 665.721 378.369 665.277 378.461C660.112 379.671 655.414 382.515 649.559 378.864C645.618 376.401 640.208 377.991 635.621 379.693C635.132 379.872 634.731 380.298 634.263 380.522C627.873 383.523 626.538 382.582 626.782 375.572C626.782 372.974 627.918 372.034 630.367 372.258C632.816 372.481 635.688 372.661 638.338 372.84L661.225 374.273C662.465 374.344 663.7 374.493 664.921 374.721C665.369 374.755 665.79 374.947 666.112 375.262C666.433 375.577 666.634 375.996 666.68 376.446H666.658ZM663.474 291.744C663.714 291.639 663.982 291.617 664.236 291.681C664.49 291.746 664.716 291.894 664.877 292.102C665.7 293.088 664.877 293.648 664.253 294.185C663.63 294.723 663.118 294.655 662.761 293.872C662.405 293.088 662.45 292.147 663.474 291.744ZM655.325 295.708C655.913 295.52 656.548 295.55 657.116 295.793C657.683 296.035 658.146 296.474 658.42 297.029C659.788 299.141 660.558 301.588 660.646 304.107C662.027 320.53 663.444 336.954 664.899 353.378C665.122 356.065 665.5 358.73 665.656 361.395C665.901 365.382 665.656 365.651 661.581 365.673H658.91V365.539C649.492 364.844 640.074 364.195 630.679 363.478C626.226 363.12 626.003 363.075 625.558 358.417C624.022 342.538 622.641 326.659 621.105 310.803C620.793 307.645 622.062 304.823 622.53 301.845C622.775 300.299 624.111 300.053 625.424 300.075C635.54 299.96 645.595 298.492 655.325 295.708ZM563.619 235.709C565.237 235.074 567.033 235.074 568.651 235.709C571.634 236.157 574.617 234.791 577.556 235.709L583.879 236.605C584.347 236.067 584.77 236.09 585.104 236.739L591.36 237.658C591.85 237.12 592.258 237.172 592.585 237.814L598.841 238.733C599.308 238.195 599.731 238.24 600.043 238.889L606.299 239.808C606.789 239.27 607.19 239.337 607.524 239.964L613.802 240.905C614.277 240.382 614.678 240.435 615.005 241.062L621.261 241.958C621.751 241.42 622.174 241.465 622.485 242.114L627.74 242.921C627.896 242.775 628.082 242.664 628.285 242.598C628.488 242.532 628.703 242.51 628.915 242.536C629.127 242.562 629.331 242.633 629.512 242.746C629.694 242.859 629.849 243.01 629.966 243.189L636.289 244.085C636.801 243.57 637.202 243.637 637.492 244.309C639.139 244.802 640.453 245.608 640.208 247.646C640.127 248.455 639.785 249.215 639.234 249.809C638.683 250.404 637.954 250.801 637.158 250.938C634.003 251.665 631.259 253.612 629.521 256.358L628.43 265.317C629.037 267.081 629.932 268.731 631.08 270.199C632.282 271.072 632.193 271.968 631.08 272.864L630.389 275.82C630.701 278.284 628.764 280.053 628.363 282.315C628.586 284.689 628.363 286.794 625.825 287.937C623.265 289.616 620.326 287.063 617.743 288.653C616.026 289.956 613.999 290.782 611.865 291.05C610.877 293.007 610.308 295.151 610.196 297.343L610.93 300.187C611.079 300.246 611.211 300.341 611.315 300.463C611.419 300.585 611.492 300.731 611.527 300.887C611.562 301.044 611.559 301.207 611.517 301.362C611.475 301.518 611.396 301.66 611.287 301.777L611.888 304.532C612.21 304.697 612.47 304.963 612.627 305.291C612.784 305.619 612.829 305.99 612.756 306.346C613.551 308.123 613.983 310.042 614.025 311.99C615.002 314.608 615.21 317.453 614.626 320.187L615.161 324.666C616.008 326.575 616.166 328.722 615.606 330.735L616.207 337.633C616.602 338.195 616.84 338.853 616.894 339.539C616.949 340.224 616.819 340.912 616.519 341.53L617.231 350.489C617.636 351.075 617.882 351.757 617.945 352.468C618.007 353.179 617.884 353.894 617.587 354.542C617.587 356.916 618.389 359.29 617.587 361.642L617.253 361.821C617.552 363.051 617.665 364.32 617.587 365.584C617.901 367.566 618.191 369.552 618.456 371.541C619.101 371.541 619.346 371.966 619.124 372.84L619.524 376.132C620.139 377.428 620.378 378.871 620.215 380.298C620.215 385.964 621.35 387.554 614.114 388.181C613.042 388.17 611.993 388.5 611.118 389.123C610.242 389.746 609.585 390.632 609.238 391.652V396.132C609.416 396.96 609.038 397.162 608.303 396.938L603.249 399.625C603.153 399.823 603.014 399.997 602.843 400.134C602.671 400.271 602.472 400.368 602.258 400.417C602.045 400.467 601.823 400.467 601.609 400.42C601.396 400.372 601.195 400.276 601.023 400.141C600.244 399.693 591.427 389.883 591.026 385.158C589.957 383.853 589.196 382.321 588.8 380.678C588.321 380.552 587.904 380.256 587.626 379.844C587.347 379.432 587.227 378.933 587.286 378.439L585.928 375.124C585.563 374.962 585.275 374.663 585.126 374.291C584.976 373.919 584.976 373.503 585.126 373.131L581.497 364.061C580.762 363.792 580.673 363.277 580.94 362.627L579.36 358.842C579.2 358.776 579.056 358.679 578.935 358.556C578.813 358.433 578.718 358.287 578.653 358.126C578.589 357.966 578.557 357.794 578.56 357.62C578.563 357.447 578.6 357.276 578.669 357.118L577.2 353.624C576.861 353.459 576.597 353.17 576.461 352.817C576.325 352.464 576.326 352.072 576.465 351.72L575.04 348.339C574.456 347.826 574.002 347.181 573.716 346.456C573.429 345.732 573.319 344.949 573.393 344.173C571.166 338.708 568.94 333.199 566.714 327.757C564.999 323.613 563.196 319.537 563.708 314.857C563.886 313.177 563.708 311.609 561.348 311.475C560.101 311.475 559.7 310.221 559.3 309.235C557.763 305.45 556.227 301.643 554.847 297.836C554.112 295.932 554.669 294.723 556.895 294.543C558.698 294.387 560.168 292.035 562.283 293.715C562.483 293.872 563.151 293.715 563.196 293.715C564.799 290.221 568.562 290.714 571.3 289.37C572.23 288.876 573.038 288.179 573.666 287.331C574.294 286.482 574.726 285.503 574.929 284.465V284.017H575.219C575.708 283.264 576.014 282.404 576.111 281.509C576.208 280.614 576.093 279.708 575.775 278.866L572.925 278.732C570.966 280.3 569.853 277.948 568.317 277.679C566.981 278.015 565.667 278.709 564.309 277.679L563.552 277.209C562.617 277.41 561.682 277.612 560.925 276.739C559.982 272.476 559.982 268.057 560.925 263.794C559.849 261.536 559.381 259.034 559.567 256.537C559.567 250.491 559.567 244.444 559.567 238.397C559.5 235.082 559.611 235.015 563.619 235.687V235.709ZM618.211 300.21C618.433 301.329 617.632 301.755 616.741 302.001C616.522 302.04 616.297 302.035 616.08 301.986C615.863 301.937 615.657 301.845 615.475 301.716C615.293 301.587 615.138 301.423 615.019 301.234C614.9 301.045 614.82 300.833 614.782 300.613C614.604 299.56 615.272 298.955 616.274 298.843C616.491 298.795 616.715 298.792 616.933 298.834C617.152 298.876 617.359 298.962 617.543 299.088C617.726 299.214 617.882 299.377 618.001 299.566C618.12 299.755 618.199 299.966 618.233 300.187L618.211 300.21ZM571.011 363.702C567.147 358.666 564.867 352.582 564.465 346.233C568.695 352.616 571.5 360.388 571.033 363.68L571.011 363.702ZM562.328 339.201C562.328 340.231 561.994 341.441 560.992 341.082C559.122 340.433 558.765 338.529 558.765 336.782C558.765 336.088 559.121 335.282 559.968 335.394C562.261 335.685 562.127 337.656 562.35 339.179L562.328 339.201ZM556.94 325.293C557.247 325.932 557.464 326.61 557.585 327.309C557.597 327.558 557.555 327.807 557.463 328.039C557.371 328.271 557.23 328.48 557.051 328.652C556.82 328.794 556.544 328.838 556.281 328.775C556.018 328.712 555.791 328.547 555.648 328.317C555.238 327.734 554.901 327.102 554.646 326.435C551.529 318.447 548.435 310.452 545.362 302.449C545.164 302.105 545.069 301.71 545.089 301.313C545.108 300.915 545.242 300.532 545.474 300.21C547.099 300.322 547.321 301.531 547.7 302.449C550.839 310.019 553.889 317.611 556.962 325.271L556.94 325.293ZM552.153 289.594C552.331 288.183 553.555 288.34 554.557 288.273C555.559 288.205 556.561 288.273 556.205 289.639C555.849 291.005 554.735 291.027 553.689 291.139C553.478 291.185 553.258 291.178 553.051 291.116C552.843 291.055 552.654 290.942 552.502 290.788C552.349 290.635 552.237 290.445 552.176 290.236C552.115 290.027 552.107 289.806 552.153 289.594ZM537.547 232.507C538.149 230.984 556.94 234.522 557.118 236.426C557.146 237.601 557.086 238.776 556.94 239.942C557.1 240.257 557.183 240.607 557.183 240.961C557.183 241.315 557.1 241.665 556.94 241.98C557.823 248.456 557.876 255.02 557.095 261.509L556.962 263.547C557.986 267.019 557.296 270.535 557.385 274.051C557.385 276.291 556.027 276.627 554.268 276.537C552.274 276.953 550.22 276.991 548.212 276.649C546.52 277.41 546.275 276.022 545.652 275.014C543.203 271.072 535.21 246.773 535.477 245.429C535.076 243.189 534.653 240.95 534.319 238.576C533.986 237.341 534.135 236.025 534.735 234.896C535.335 233.768 536.341 232.913 537.547 232.507ZM526.415 287.713C526.415 289.706 524.701 289.504 523.343 289.594C521.985 289.684 520.27 289.594 520.493 287.354C520.649 285.764 521.963 285.585 523.254 285.675C524.545 285.764 526.349 285.787 526.393 287.668L526.415 287.713ZM520.872 267.064C521.161 268.9 523.343 269.572 523.766 271.341C523.966 272.17 524.545 273.043 523.61 273.715C523.15 273.951 522.629 274.037 522.118 273.962C521.897 273.968 521.677 273.928 521.472 273.846C521.267 273.764 521.08 273.641 520.924 273.483C520.768 273.326 520.645 273.138 520.563 272.932C520.481 272.725 520.442 272.504 520.449 272.282C520.426 270.58 520.671 268.766 520.849 267.019L520.872 267.064ZM507.958 368.271L509.918 350.085C509.294 349.548 509.339 349.078 510.096 348.719L510.541 344.643C510.266 343.911 510.167 343.123 510.252 342.345C510.338 341.566 510.604 340.819 511.031 340.164L512.745 324.487C512.449 323.882 512.336 323.204 512.419 322.535C512.502 321.866 512.778 321.237 513.213 320.724L513.814 315.887C513.526 315.279 513.413 314.602 513.488 313.934C513.563 313.265 513.822 312.63 514.237 312.102L514.793 307.287C514.793 304.711 513.346 301.733 516.708 300.053H519.669C520.598 299.67 521.612 299.543 522.605 299.685C523.599 299.827 524.538 300.232 525.324 300.859L526.126 303.569L528.352 304.286C528.812 304.137 529.301 304.106 529.776 304.196C530.25 304.286 530.694 304.494 531.069 304.801C532.015 304.431 532.835 303.793 533.429 302.964C534.208 301.934 535.187 301.15 536.145 302.964C538.431 308.548 540.716 314.132 543.002 319.717C543.29 320.164 543.465 320.675 543.512 321.206C543.558 321.737 543.475 322.271 543.269 322.762L543.537 325.674C544.236 325.778 544.889 326.089 545.413 326.567C545.936 327.046 546.306 327.671 546.475 328.361L549.592 336.782C550.051 337.544 550.347 338.393 550.462 339.276C550.577 340.159 550.508 341.056 550.26 341.911C549.86 345.92 549.771 345.92 553.355 346.972L554.936 349.682C556.672 351.049 555.515 353.176 556.249 354.789C559.344 357.79 559.878 361.978 561.326 365.74C561.664 366.002 561.935 366.342 562.113 366.733C562.292 367.123 562.373 367.551 562.35 367.98C562.198 369.296 562.391 370.63 562.911 371.848C563.43 373.066 564.258 374.126 565.311 374.923C565.581 375.159 565.778 375.468 565.881 375.813C565.983 376.157 565.986 376.525 565.89 376.871C570.142 387.442 574.35 398.035 578.647 408.584C579.736 411.008 579.895 413.753 579.093 416.288C577.504 422.39 578.243 428.869 581.163 434.451C581.742 435.705 582.966 436.691 581.786 438.303V438.527H581.586C579.471 442.581 580.295 447.083 579.716 451.36C580.339 451.786 580.339 452.189 579.716 452.525L578.669 462.961C578.752 463.232 578.812 463.509 578.848 463.79C578.848 463.79 578.647 463.969 578.536 464.059L577.801 470.934C578.188 471.518 578.368 472.216 578.312 472.915C578.255 473.614 577.965 474.274 577.49 474.786L576.777 480.587C577.154 481.184 577.32 481.891 577.247 482.594C577.175 483.298 576.868 483.956 576.376 484.461L575.642 491.337C576.71 495.592 574.194 499.265 573.727 503.274C573.593 504.416 572.28 504.842 571.189 504.864C566.023 504.976 560.858 505.223 555.604 505.021C552.375 504.887 528.241 503.677 526.46 503.677C517.242 503.677 508.025 503.677 498.83 503.677C495.112 503.677 494.822 503.185 494.689 499.198C494.377 490.06 496.247 481.102 496.67 472.032C496.67 471.136 496.826 470.262 496.915 469.367C496.225 468.672 496.181 468.023 497.093 467.485L504.596 398.237C503.951 397.834 503.951 397.498 504.708 397.251L507.802 369.256C507.157 368.831 507.135 368.473 507.914 368.226L507.958 368.271ZM498.541 324.8C500.166 316.447 501.813 308.071 503.661 298.732C504.386 299.36 504.923 300.179 505.214 301.096C505.504 302.013 505.537 302.993 505.309 303.927C504.656 309.974 503.973 316.021 503.261 322.068C503.082 323.658 503.082 325.338 501.413 326.279C501.13 326.494 500.798 326.633 500.448 326.684C500.098 326.735 499.74 326.696 499.409 326.57C499.062 326.434 498.779 326.172 498.614 325.836C498.449 325.501 498.415 325.115 498.518 324.756L498.541 324.8ZM491.861 360.208C493.153 353.042 494.578 345.875 495.936 338.708C495.936 338.35 496.069 338.014 496.136 337.656C496.492 335.416 497.65 333.804 499.988 334.162C502.325 334.52 500.789 336.805 501.368 337.835C500.522 345.226 499.721 352.303 498.919 359.38C498.864 360.093 498.737 360.798 498.541 361.485C498.09 362.547 497.306 363.433 496.31 364.006C495.313 364.58 494.158 364.812 493.019 364.665C490.191 363.859 491.438 361.731 491.728 360.164L491.861 360.208ZM483.69 400.073C485.368 391.652 487.156 383.246 489.056 374.855C489.501 373.492 490.424 372.337 491.654 371.608C492.882 370.879 494.333 370.624 495.735 370.891C497.739 371.406 497.004 373.131 497.16 374.587C496.336 382.291 495.446 390.13 494.667 397.968C494.709 399.052 494.322 400.108 493.592 400.905C492.862 401.703 491.847 402.177 490.77 402.223C489.368 402.403 487.987 402.828 486.562 402.985C483.601 403.231 483 402.716 483.534 400.029L483.69 400.073ZM477.79 432.861C478.859 427.061 480.017 421.26 481.174 415.459C482.176 410.398 482.199 410.398 487.164 409.524C487.876 409.412 488.566 409.256 489.279 409.166C492.618 408.763 492.93 409.054 492.819 412.66C491.973 420.678 491.104 428.852 490.258 437.049C490.258 437.584 490.152 438.114 489.947 438.608C489.741 439.101 489.44 439.548 489.061 439.924C488.682 440.299 488.232 440.594 487.738 440.793C487.244 440.992 486.716 441.089 486.184 441.08C474.094 442.559 475.764 443.029 477.634 432.816L477.79 432.861ZM470.31 471.875C471.467 465.738 472.781 459.624 473.872 453.465C474.339 450.823 475.475 449.3 478.325 449.188C480.551 449.188 482.911 448.673 485.204 448.404C487.497 448.135 488.611 449.098 488.321 451.45C487.297 459.423 486.228 467.396 485.227 475.369C485.208 475.816 485.098 476.254 484.903 476.657C484.708 477.059 484.433 477.417 484.094 477.707C483.756 477.997 483.361 478.214 482.935 478.343C482.509 478.473 482.062 478.512 481.62 478.459C479.839 478.459 478.08 478.683 476.299 478.795C469.063 479.176 468.84 478.862 470.176 471.853L470.31 471.875ZM311.989 502.602C312.103 502.379 312.27 502.189 312.477 502.048C312.683 501.907 312.921 501.821 313.169 501.796C315.106 502.154 315.885 503.856 316.775 505.335C317.202 505.911 317.396 506.63 317.317 507.344C317.239 508.059 316.894 508.717 316.352 509.187C315.995 509.582 315.545 509.882 315.044 510.058C314.542 510.234 314.005 510.281 313.48 510.194C312.323 509.948 311.9 508.895 311.721 507.82C311.588 507.126 311.543 506.432 311.454 505.581C311.557 504.576 311.735 503.58 311.989 502.602ZM311.989 512.882C313.903 512.882 316.82 515.323 316.597 516.712C316.286 518.615 314.594 518.391 313.324 518.638C311.254 518.638 309.673 517.966 309.562 515.681C309.473 514.069 310.185 512.837 312.055 512.882H311.989ZM301.947 464.977C304.53 464.977 303.15 468.18 303.773 469.613C303.35 471.539 304.241 474.226 302.059 474.406C299.253 474.607 299.832 471.696 299.832 469.926C299.832 468.157 298.964 464.865 302.014 464.977H301.947ZM295.825 486.723C294.289 486.723 293.71 485.648 293.598 484.282C293.598 482.289 295.379 479.803 296.671 480.049C298.407 480.542 298.252 482.132 298.341 483.476C298.43 484.82 298.051 486.768 295.892 486.746L295.825 486.723ZM297.294 473.823C295.201 474.115 295.691 471.584 295.402 470.195C295.112 468.807 293.866 467.351 294.222 465.716C294.256 465.271 294.433 464.849 294.726 464.514C295.019 464.178 295.413 463.948 295.847 463.857C296.301 463.747 296.78 463.809 297.191 464.033C297.602 464.256 297.916 464.624 298.073 465.067C298.566 466.613 298.755 468.241 298.63 469.859C298.341 471.181 299.12 473.599 297.361 473.823H297.294ZM294.199 455.795C295.176 455.826 296.111 456.203 296.839 456.858C297.568 457.513 298.044 458.405 298.185 459.378C298.268 459.722 298.274 460.08 298.201 460.426C298.129 460.772 297.981 461.098 297.767 461.379C297.554 461.66 297.281 461.89 296.968 462.052C296.655 462.213 296.31 462.302 295.958 462.312C293.732 462.469 292.841 461.035 292.574 459.064C292.352 457.586 292.507 456.22 294.266 455.795H294.199ZM182.21 496.645C181.876 498.526 181.453 500.609 181.119 502.714C180.696 505.402 178.893 506.096 176.533 506.029C174.552 506.029 173.527 505.043 173.861 503.028C174.284 500.407 174.841 497.809 175.398 495.189C175.519 494.622 175.762 494.088 176.109 493.625C176.456 493.161 176.898 492.779 177.406 492.504C177.914 492.229 178.476 492.069 179.051 492.034C179.627 491.998 180.204 492.089 180.741 492.3C182.723 492.994 182.188 494.876 182.21 496.645ZM184.793 475.391C184.793 476.108 184.682 476.802 184.615 477.496C184.281 479.937 184.036 482.423 183.591 484.842C183.549 485.336 183.396 485.813 183.144 486.239C182.892 486.664 182.547 487.027 182.135 487.298C181.724 487.57 181.256 487.744 180.768 487.808C180.279 487.871 179.783 487.822 179.316 487.664C177.09 487.216 177.312 485.424 177.579 483.857C178.025 481.236 178.581 478.638 179.138 476.063C179.208 475.532 179.388 475.022 179.669 474.566C179.949 474.11 180.322 473.72 180.763 473.42C181.189 473.1 181.692 472.9 182.221 472.841C182.749 472.782 183.284 472.866 183.769 473.084C184.793 473.577 184.793 474.383 184.793 475.391ZM187.22 457.81C186.886 460.453 186.619 462.917 186.24 465.38C186.11 466.246 185.79 467.072 185.305 467.799C184.971 468.328 184.463 468.723 183.869 468.916C183.275 469.108 182.633 469.085 182.055 468.851C180.808 468.404 180.741 467.239 180.941 466.186C181.565 463.073 182.255 459.96 183.034 456.87C183.39 455.459 184.125 453.958 185.884 454.428C187.643 454.899 187.264 456.623 187.264 457.81H187.22ZM210.864 492.636C208.015 492.636 206.924 491.158 207.035 487.507C207.035 484.215 208.26 482.849 210.887 482.849C213.514 482.849 214.805 484.417 214.716 488.022C214.627 491.628 213.603 492.636 210.887 492.636H210.864ZM207.191 477.563C207.179 477.034 207.282 476.508 207.493 476.022C207.703 475.536 208.017 475.103 208.411 474.751C208.805 474.4 209.27 474.138 209.775 473.986C210.279 473.833 210.811 473.793 211.332 473.868C211.817 473.835 212.304 473.916 212.752 474.106C213.201 474.295 213.599 474.588 213.915 474.96C214.231 475.333 214.456 475.774 214.572 476.249C214.688 476.725 214.691 477.221 214.583 477.698C214.404 479.937 213.069 480.878 210.531 480.744C208.549 480.632 207.213 479.803 207.213 477.563H207.191ZM210.909 466.925C208.193 466.769 206.968 464.932 207.035 461.147C207.035 457.877 208.126 456.668 210.82 456.668C213.514 456.668 214.939 458.124 214.872 462.065C214.805 466.007 213.737 467.082 210.931 466.925H210.909ZM213.536 454.115C212.707 454.645 211.731 454.896 210.751 454.832C209.77 454.767 208.835 454.391 208.081 453.757C207.358 452.64 206.88 451.381 206.681 450.064C206.481 448.747 206.564 447.402 206.924 446.12C207.837 443.88 209.774 443.611 211.777 443.746C217.811 444.104 221.084 447.418 221.284 453.6C221.44 458.213 221.284 462.849 221.284 467.485C221.284 468.919 220.972 470.509 219.058 470.486C217.143 470.464 216.831 468.919 216.72 467.463C216.564 465.335 216.542 463.208 216.52 461.058C216.475 458.236 214.315 453.712 213.558 454.115H213.536ZM209.885 431.831C210.587 431.854 211.277 432.018 211.915 432.313C212.553 432.609 213.125 433.03 213.598 433.552C214.072 434.074 214.436 434.686 214.67 435.352C214.904 436.018 215.003 436.725 214.961 437.43C214.961 439.669 213.046 441.215 210.197 441.192C207.681 441.192 206.812 440.117 206.723 437.004C206.634 433.891 207.636 432.032 209.885 431.831ZM207.814 422.223C209.21 423.67 210.247 425.427 210.842 427.352C211.265 428.404 211.221 429.457 209.907 429.882C209.662 429.981 209.4 430.028 209.136 430.02C208.873 430.011 208.614 429.949 208.376 429.835C208.137 429.722 207.925 429.56 207.752 429.36C207.578 429.16 207.448 428.926 207.369 428.673C206.982 427.632 206.821 426.519 206.898 425.411C206.975 424.302 207.287 423.222 207.814 422.245V422.223ZM229.923 498.369C229.745 499.422 229.589 500.497 229.366 501.527C229.303 501.987 229.138 502.427 228.884 502.814C228.629 503.202 228.292 503.527 227.897 503.767C225.047 505.402 217.811 502.289 217.544 499.041C217.054 492.815 216.92 486.567 216.698 480.341C216.622 479.229 216.961 478.129 217.649 477.255C218.336 476.381 219.323 475.796 220.416 475.615C223.399 474.719 224.067 472.928 223.466 469.904C222.577 466.759 222.87 463.394 224.29 460.453C227.295 466.276 230.546 471.651 230.39 478.75C230.168 485.268 231.058 491.852 229.945 498.414L229.923 498.369ZM262.028 457.385C261.852 457.394 261.677 457.368 261.511 457.309C261.346 457.249 261.193 457.158 261.063 457.039C260.933 456.921 260.827 456.777 260.752 456.618C260.677 456.458 260.634 456.285 260.625 456.108C260.603 455.93 260.618 455.75 260.669 455.578C260.72 455.407 260.806 455.248 260.921 455.111C261.036 454.974 261.178 454.863 261.338 454.784C261.497 454.705 261.672 454.66 261.85 454.652C263.15 454.364 264.495 454.349 265.801 454.607C267.107 454.865 268.347 455.391 269.442 456.153C267.175 457.356 264.586 457.803 262.05 457.429L262.028 457.385ZM269.642 390.645L272.893 389.883C275.453 387.845 275.987 388.024 276.455 391.16L276.989 396.535C277.81 397.899 278.289 399.443 278.386 401.035C278.483 402.626 278.195 404.218 277.546 405.672L278.303 412.615C279.775 416.578 279.946 420.91 278.793 424.978C278.793 428.225 278.592 443.835 278.125 445C275.72 450.8 265.657 453.174 260.313 449.21C260.313 449.21 260.313 448.874 260.313 448.695L259.846 443.23C258.465 441.304 255.927 397.184 258.065 393.265C260.002 392.056 262.317 392.705 264.343 391.944C264.921 391.112 265.784 390.525 266.765 390.293C267.747 390.062 268.779 390.203 269.664 390.689L269.642 390.645ZM207.948 379.895L256.261 366.278C257.434 365.868 258.653 365.605 259.89 365.494C261.76 365.494 262.807 366.815 261.671 368.249C259.2 371.339 259.445 374.385 260.625 377.812C261.36 380.051 260.625 381.709 257.775 382.515C251.697 384.262 250.695 385.986 251.831 392.324C254.948 409.659 254.502 427.262 255.972 444.731C256.373 449.501 255.616 454.921 255.972 456.578C256.166 457.37 256.114 458.202 255.823 458.963C255.533 459.724 255.017 460.377 254.347 460.834C253.3 461.618 239.251 467.552 238.272 463.969C236.58 457.81 232.728 452.771 230.257 447.127C226.561 438.617 223.577 429.77 219.458 421.484C217.499 417.654 218.189 416.579 222.152 415.191C224.066 414.764 225.86 413.915 227.407 412.705C229.01 411.137 228.609 409.233 226.427 408.696C223.515 407.948 220.527 407.534 217.521 407.464C213.558 407.464 212.846 406.77 212.111 402.985C211.443 399.603 207.324 383.791 204.786 382.157C205.477 380.32 206.79 380.32 207.948 379.895ZM194.856 445.089C195.124 440.927 195.719 436.794 196.638 432.727C195.792 429.143 196.994 425.694 197.461 422.245C197.818 419.67 199.421 419.043 201.692 420.185C202.723 420.534 203.623 421.195 204.268 422.076C204.913 422.958 205.273 424.018 205.298 425.112C205.298 427.755 205.922 430.42 204.742 432.973C204.742 436.422 205.811 439.961 203.74 443.253C203.228 444.081 203.74 444.91 204.274 445.672C205.02 447.276 205.162 449.098 204.675 450.8C205.766 458.241 205.593 465.814 204.163 473.196C203.924 473.857 203.886 474.574 204.052 475.257C205.877 479.266 204.786 483.342 204.653 487.418C204.519 490.979 204.653 494.562 204.653 498.145C204.653 500.833 204.875 503.52 204.809 506.186C204.586 516.936 203.651 517.809 193.098 517.227C188.645 516.98 187.91 516.286 187.91 511.65C187.91 506.275 187.91 500.9 188.444 495.57C189.958 479.893 192.363 464.327 193.498 448.538C193.43 447.896 193.518 447.246 193.754 446.645C193.991 446.044 194.369 445.51 194.856 445.089ZM189.78 438.908C189.78 439.266 189.78 439.625 189.78 440.722C189.424 442.805 189.001 445.627 188.378 448.404C188.35 448.721 188.256 449.029 188.101 449.306C187.946 449.584 187.734 449.825 187.479 450.013C187.224 450.202 186.932 450.334 186.622 450.4C186.313 450.466 185.993 450.465 185.684 450.397C184.326 450.084 184.437 448.762 184.637 447.732C185.238 444.574 185.951 441.461 186.686 438.326C186.886 437.475 187.264 436.444 188.333 436.512C189.803 436.579 189.713 437.855 189.78 438.908ZM124.323 390.421C127.544 389.48 130.773 388.577 134.008 387.711C136.391 387.084 137.66 388.293 138.283 390.488C138.907 392.683 137.727 393.847 135.834 394.43C132.45 395.46 129.155 396.423 126.349 397.207C125.857 397.292 125.353 397.275 124.868 397.155C124.382 397.035 123.927 396.816 123.53 396.511C123.133 396.207 122.803 395.823 122.56 395.383C122.317 394.944 122.167 394.459 122.119 393.959C121.99 393.581 121.947 393.178 121.993 392.78C122.038 392.383 122.172 392.001 122.383 391.661C122.594 391.322 122.878 391.035 123.214 390.82C123.549 390.606 123.929 390.469 124.323 390.421ZM100.189 418.662C105.532 418.08 108.026 420.431 107.781 426.501C107.759 427.357 107.669 428.211 107.514 429.054C106.913 431.652 105.288 432.122 103.417 430.174C101.137 427.902 99.2882 425.23 97.9626 422.29C96.9607 420.051 97.7177 418.931 100.189 418.662ZM88.8565 384.934C88.7229 381.283 89.5912 379.805 91.3501 379.939C92.5661 380.441 93.6496 381.22 94.5151 382.215C95.3806 383.21 96.0044 384.394 96.3373 385.673C96.0003 386.785 95.3376 387.769 94.436 388.496C93.5343 389.223 92.4356 389.66 91.2833 389.749C87.9214 389.614 88.812 386.837 88.7452 384.934H88.8565ZM91.5505 397.789C93.2648 397.251 94.1777 398.349 94.7343 399.782C95.5581 402.022 96.4041 404.082 97.0943 406.255C97.2584 406.924 97.167 407.631 96.8381 408.236C96.5093 408.841 95.9669 409.3 95.3182 409.522C94.6694 409.744 93.9613 409.714 93.3339 409.436C92.7064 409.159 92.2051 408.655 91.929 408.024C91.0022 405.836 90.3804 403.53 90.0811 401.171C89.9252 399.558 90.0143 398.237 91.4614 397.789H91.5505Z" fill="#F0F1F2"/>
</svg>
