<svg width="224" height="160" viewBox="0 0 224 160" fill="none" xmlns="http://www.w3.org/2000/svg">
<rect width="224" height="160" fill="white"/>
<path fill-rule="evenodd" clip-rule="evenodd" d="M48 16H176V144H48V16Z" fill="white"/>
<path fill-rule="evenodd" clip-rule="evenodd" d="M83.1187 110.055L80.9798 92.7315C75.3167 88.7047 70.9539 85.3904 65.7106 81.5734C63.235 63.3253 67.8076 53.4256 74.5192 44.0293C82.867 33.4164 96.2902 25.4883 112.356 25.4883C128.423 25.6556 141.888 33.7517 149.817 44.3646C157.241 54.4323 161.226 67.1004 158.331 82.0768L143.86 92.7315L141.719 110.055H118.775C117.349 111.189 115.42 112.237 112.356 112.321C109.336 112.237 107.448 111.189 105.896 110.055H83.1187Z" fill="#CC2229"/>
<path fill-rule="evenodd" clip-rule="evenodd" d="M112.357 86.0187C111.14 69.8683 110.805 49.9427 109.798 33.961C108.078 33.5413 105.645 33.6675 103.632 34.0028C101.618 34.6323 100.15 35.1775 98.4303 36.1424C101.577 51.4953 105.226 71.043 108.331 86.2703C104.094 71.4626 98.4303 52.9217 94.2362 38.1558C92.2228 38.5755 90.2512 39.7077 88.8255 40.8824C87.3154 42.0571 86.4342 42.9383 85.0497 45.0354C91.1317 58.0395 98.4303 74.6089 104.556 87.5287C97.4654 75.783 88.866 60.3046 81.7347 48.6432C80.3508 49.8597 79.3016 50.7409 77.9171 53.0897C76.7424 54.9776 76.1553 57.2008 75.9037 59.3404C83.7063 68.8629 93.0183 80.2726 100.863 89.752C92.6836 81.8657 82.6152 71.7143 74.5198 63.828C73.7229 65.4218 73.2196 66.7645 72.9679 69.4067C72.6744 71.9653 73.1777 75.0273 73.7229 76.8733L89.5373 88.6191L91.2154 101.665L108.624 101.791C109.883 103.259 110.302 104.014 112.357 104.139C114.328 104.014 115.462 102.797 115.965 101.791H133.331L135.092 88.7028L150.782 77.0407C151.368 75.1116 151.745 72.1327 151.537 69.5741C151.285 66.8057 150.782 65.4211 150.11 63.9529C141.973 71.7973 131.863 81.9494 123.767 89.835C131.653 80.4386 140.882 68.9864 148.767 59.3809C148.348 57.242 147.845 55.0599 146.586 53.1727C145.118 50.8232 144.278 49.9427 142.936 48.6843C135.764 60.3039 127.038 75.9091 119.949 87.5699C126.242 74.6083 133.373 58.0388 139.54 45.2034C138.198 43.1475 137.232 42.0989 135.89 41.0086C134.296 39.792 132.325 38.6598 130.395 38.1983C125.99 52.9217 120.58 71.6306 116.301 86.3122C119.278 71.0848 123.012 51.7051 125.99 36.3947C124.481 35.3037 123.013 34.7585 121.04 34.1715C118.776 33.7518 116.552 33.6681 114.79 33.9616C113.616 50.0689 113.573 69.9526 112.357 86.0187Z" fill="#F6D330"/>
<path fill-rule="evenodd" clip-rule="evenodd" d="M64.2834 128.513H72.4214C72.2959 130.317 73.1771 130.736 73.5968 131.03C74.0576 131.198 77.4562 131.365 79.1336 131.072C79.805 130.946 80.4339 130.694 80.4339 128.638C80.4339 127.758 80.224 126.793 79.2173 126.583C75.6514 126.29 72.1697 126.667 68.6044 126.331C65.0385 125.535 64.494 124.611 64.2834 121.801C64.5351 117.899 65.9197 116.767 69.9046 116.641C74.0567 116.515 78.2116 116.515 82.3636 116.641C86.6002 116.641 87.9005 118.278 87.9005 121.843H80.4339C80.4339 120.081 80.0985 119.41 79.2173 119.326C77.4017 119.2 75.5797 119.2 73.7641 119.326C73.0928 119.326 72.2122 119.662 72.2122 121.256C72.2122 122.765 72.5894 123.143 73.5968 123.27C76.6587 123.394 79.7632 123.437 82.7833 123.645C87.8168 123.94 87.9848 126.163 88.1521 128.512C88.2358 131.868 87.0193 133.042 86.1387 133.588C85.3 133.965 81.2307 134.428 80.4339 134.428H72.3802C70.576 134.428 68.3109 134.218 66.3394 133.63C64.4933 133.127 64.2834 130.653 64.2834 128.513ZM140.756 134.511H147.886V116.726H140.756V134.511ZM152.668 134.511H159.716V116.726H152.668V134.511ZM136.603 125.199C136.473 124.642 136.304 124.096 136.098 123.563C134.881 121.592 130.687 121.592 126.619 121.507C123.557 121.507 118.985 121.592 117.642 122.891C117.096 123.479 116.803 124.317 116.635 125.199C116.425 126.248 116.467 127.338 116.467 127.842C116.467 128.764 116.551 132.329 118.271 133.252C119.865 134.301 124.688 134.428 126.534 134.428C128.505 134.428 133.959 134.218 134.757 133.294C136.182 132.791 136.518 131.03 136.811 129.646H129.806C129.806 131.03 128.715 131.869 126.534 131.742C124.562 131.868 123.43 131.407 123.43 128.933L136.811 128.974C136.811 127.758 136.854 126.457 136.603 125.199ZM129.806 126.415H123.43C123.43 125.912 123.514 125.491 123.64 125.199C124.1 124.066 125.275 124.025 126.533 123.94C128.463 123.94 129.302 124.402 129.638 125.199C129.806 125.535 129.848 125.954 129.806 126.415ZM92.3469 134.511H99.3102V126.96C99.4782 125.912 99.7299 125.073 102.288 125.073C104.721 125.032 105.392 125.702 105.392 126.96V134.511H112.355V126.96C112.355 124.485 112.314 123.143 110.72 122.432C109.294 121.508 107.238 121.634 105.309 121.634C103.295 121.634 101.03 121.886 99.3102 122.725V116.727H92.3469V134.511Z" fill="#CC2229"/>
</svg>
