<svg width="48" height="44" viewBox="0 0 48 44" fill="none" xmlns="http://www.w3.org/2000/svg">
<path d="M23.9998 21.5742C19.5815 21.5742 16 25.1555 16 29.574C16 33.9923 19.5815 37.5741 23.9998 37.5741C28.4181 37.5741 31.9996 33.9923 31.9996 29.574C31.9949 25.1578 28.416 21.5789 23.9998 21.5742ZM23.9998 35.9739C20.4651 35.9739 17.5999 33.1087 17.5999 29.574C17.5999 26.0394 20.4651 23.1741 23.9998 23.1741C27.5345 23.1741 30.3997 26.0394 30.3997 29.574C30.3956 33.1066 27.5327 35.9701 23.9998 35.9739Z" fill="#9A9A9A"/>
<path d="M23.9998 20.7747C24.4416 20.7747 24.7999 20.4167 24.7999 19.9749V19.1748C24.7999 18.7333 24.4416 18.375 23.9998 18.375C23.558 18.375 23.1997 18.7333 23.1997 19.1748V19.9749C23.1997 20.4167 23.558 20.7747 23.9998 20.7747Z" fill="#9A9A9A"/>
<path d="M30.7883 21.6503L30.2226 22.2161C29.905 22.5231 29.8962 23.0296 30.2029 23.3472C30.51 23.6648 31.0165 23.6736 31.3344 23.3668C31.3408 23.3607 31.3476 23.354 31.3537 23.3472L31.9194 22.7815C32.2265 22.4636 32.2177 21.9574 31.8998 21.6503C31.5899 21.3509 31.0983 21.3509 30.7883 21.6503Z" fill="#9A9A9A"/>
<path d="M34.4002 28.7734H33.6001C33.1583 28.7734 32.8003 29.132 32.8003 29.5738C32.8003 30.0156 33.1583 30.3739 33.6001 30.3739H34.4002C34.8417 30.3739 35.2 30.0156 35.2 29.5738C35.2 29.132 34.8417 28.7734 34.4002 28.7734Z" fill="#9A9A9A"/>
<path d="M31.3535 35.7947C31.036 35.488 30.5291 35.4968 30.2224 35.8146C29.9233 36.1249 29.9233 36.6162 30.2224 36.9262L30.7881 37.4919C31.1004 37.8042 31.607 37.8045 31.9196 37.4922C32.2321 37.1799 32.2324 36.6733 31.9201 36.3607L31.3535 35.7947Z" fill="#9A9A9A"/>
<path d="M23.9998 38.375C23.558 38.375 23.1997 38.7333 23.1997 39.1751V39.9749C23.1997 40.417 23.558 40.7753 23.9998 40.7753C24.4416 40.7753 24.7999 40.417 24.7999 39.9749V39.1751C24.7999 38.7333 24.4416 38.375 23.9998 38.375Z" fill="#9A9A9A"/>
<path d="M16.6465 35.7937L16.0808 36.3597C15.7682 36.672 15.7679 37.1786 16.0805 37.4912C16.3928 37.8035 16.8996 37.8041 17.2119 37.4917L17.7777 36.9257C18.0847 36.6082 18.0759 36.1019 17.758 35.7949C17.4481 35.4955 16.9565 35.4955 16.6465 35.7949V35.7937Z" fill="#9A9A9A"/>
<path d="M14.4 28.7734H13.5999C13.1578 28.7734 12.7998 29.132 12.7998 29.5738C12.7998 30.0156 13.1578 30.3739 13.5999 30.3739H14.4C14.8418 30.3739 15.1998 30.0156 15.1998 29.5738C15.1998 29.132 14.8418 28.7734 14.4 28.7734Z" fill="#9A9A9A"/>
<path d="M16.6464 23.3493C16.9639 23.656 17.4708 23.6472 17.7775 23.3297C18.0766 23.0197 18.0766 22.5278 17.7775 22.2182L17.2118 21.6527C16.8995 21.3399 16.3929 21.3399 16.0803 21.6519C15.7677 21.9645 15.7674 22.4713 16.0797 22.7836L16.6464 23.3493Z" fill="#9A9A9A"/>
<path d="M45.6 20.7732C44.2746 20.7732 43.2 21.8479 43.2 23.1735V23.9733H36.3791C35.0124 20.9692 32.6042 18.561 29.6001 17.1943V11.1735C29.6001 10.7314 29.2418 10.3734 28.8 10.3734H27.1998V5.57344H36.7998C38.1255 5.57344 39.1998 4.49883 39.1998 3.17344C39.1998 1.84805 38.1255 0.773438 36.7998 0.773438H11.1999C9.87451 0.773438 8.8002 1.84805 8.8002 3.17344C8.8002 4.49883 9.87451 5.57344 11.1999 5.57344H20.8002V10.3734H19.2C18.7582 10.3734 18.3999 10.7317 18.3999 11.1735V17.1943C15.3955 18.561 12.9876 20.9692 11.6206 23.9736H4.8V23.1735C4.8 21.8481 3.72539 20.7738 2.4 20.7738C1.07461 20.7738 0 21.8479 0 23.1735V35.9733C0 37.299 1.07461 38.3733 2.4 38.3733C3.72539 38.3733 4.8 37.299 4.8 35.9733V35.1735H11.6209C14.7012 42.0103 22.7405 45.0557 29.5775 41.9751C32.5986 40.614 35.018 38.1946 36.3791 35.1735H43.2V35.9733C43.2 37.299 44.2746 38.3733 45.6 38.3733C46.9254 38.3733 48 37.299 48 35.9733V23.1735C48 21.8479 46.9254 20.7732 45.6 20.7732ZM10.4001 3.17344C10.4001 2.73164 10.7581 2.37334 11.1999 2.37334H36.7998C37.2419 2.37334 37.5999 2.73164 37.5999 3.17344C37.5999 3.61523 37.2419 3.97324 36.7998 3.97324H11.1999C10.7581 3.97324 10.4001 3.61523 10.4001 3.17344ZM22.4001 5.57344H25.5999V10.3734H22.4001V5.57344ZM19.9998 11.9733H28.0002V16.5759C25.3939 15.7729 22.6061 15.7729 19.9998 16.5759V11.9733ZM3.1998 35.9733C3.1998 36.4154 2.8418 36.7734 2.4 36.7734C1.9582 36.7734 1.5999 36.4154 1.5999 35.9733V23.1735C1.5999 22.7314 1.9582 22.3734 2.4 22.3734C2.8418 22.3734 3.1998 22.7314 3.1998 23.1735V35.9733ZM4.8 33.5736V25.5732H11.0024C10.1994 28.1795 10.1994 30.9671 11.0024 33.5736H4.8ZM24 41.5734C17.3728 41.5734 12 36.2007 12 29.5734C12 22.9459 17.3728 17.5734 24 17.5734C30.6272 17.5734 36 22.9459 36 29.5734C35.9927 36.1978 30.6243 41.5661 24 41.5734ZM36.9976 33.5736C37.8006 30.9671 37.8006 28.1795 36.9976 25.5732H43.2V33.5736H36.9976ZM46.4001 35.9733C46.4001 36.4154 46.0418 36.7734 45.6 36.7734C45.1582 36.7734 44.8002 36.4154 44.8002 35.9733V23.1735C44.8002 22.7314 45.1582 22.3734 45.6 22.3734C46.0418 22.3734 46.4001 22.7314 46.4001 23.1735V35.9733Z" fill="#9A9A9A"/>
</svg>
