<svg width="48" height="48" viewBox="0 0 48 48" fill="none" xmlns="http://www.w3.org/2000/svg">
<g clip-path="url(#clip0)">
<path d="M48 46.4512H46.4517V47.9996H48V46.4512Z" fill="#282828"/>
<path d="M42.5806 42.9678C42.5806 40.1931 40.3231 37.9355 37.5484 37.9355C34.7737 37.9355 32.5161 40.1931 32.5161 42.9678C32.5161 44.3195 33.055 45.5466 33.9259 46.4517H14.0741C14.945 45.5466 15.4839 44.3195 15.4839 42.9678C15.4839 40.1931 13.2263 37.9355 10.4516 37.9355C7.6769 37.9355 5.41935 40.1931 5.41935 42.9678C5.41935 44.3195 5.95819 45.5466 6.82916 46.4517H0V48.0001H44.9032V46.4517H41.1708C42.0418 45.5466 42.5806 44.3195 42.5806 42.9678ZM10.4516 46.4517C8.53084 46.4517 6.96774 44.8886 6.96774 42.9678C6.96774 41.047 8.53084 39.4839 10.4516 39.4839C12.3724 39.4839 13.9355 41.047 13.9355 42.9678C13.9355 44.8886 12.3724 46.4517 10.4516 46.4517ZM37.5484 46.4517C35.6276 46.4517 34.0645 44.8886 34.0645 42.9678C34.0645 41.047 35.6276 39.4839 37.5484 39.4839C39.4692 39.4839 41.0323 41.047 41.0323 42.9678C41.0323 44.8886 39.4692 46.4517 37.5484 46.4517Z" fill="#282828"/>
<path d="M46.4516 31.7419H40.7195C45.041 29.4751 48 24.9507 48 19.7419C48 12.4018 42.1293 6.42039 34.8387 6.2129V4.64516H36.3871V3.09677H34.8387H32.4379C32.0779 1.33239 30.5141 0 28.6452 0C26.7763 0 25.2124 1.33239 24.8524 3.09677H22.4516H20.9032V4.64516H22.4516V6.19355H20.129V4.64516H18.5806V6.19355H14.7097V4.64516H13.1613V6.2129C5.87071 6.42039 0 12.4018 0 19.7419C0 24.9507 2.95897 29.4751 7.28052 31.7419H1.54839V30.1935H0V31.7419V33.2903V36.3871H48V33.2903V31.7419V30.1935H46.4516V31.7419ZM28.6452 1.54839C29.6532 1.54839 30.5048 2.19794 30.8253 3.09677H26.4658C26.7855 2.19794 27.6372 1.54839 28.6452 1.54839ZM24 4.64516H33.2903V6.19355H24V4.64516ZM14.7097 7.74194H18.5806V10.8387H14.7097V7.74194ZM14.7097 12.3871H18.5806V15.4839H14.7097V12.3871ZM14.7097 17.0323H18.5806V20.129H14.7097V17.0323ZM14.7097 21.6774H18.5806V24.7742H14.7097V21.6774ZM1.54839 19.7419C1.54839 13.2557 6.72464 7.968 13.1613 7.76129V30.1935H14.7097V26.3226H18.5806V30.1935H20.129V7.74194H22.4516H34.4516C41.0686 7.74194 46.4516 13.1249 46.4516 19.7419C46.4516 26.359 41.0686 31.7419 34.4516 31.7419H13.5484C6.93135 31.7419 1.54839 26.359 1.54839 19.7419ZM46.4516 34.8387H1.54839V33.2903H13.5484H34.4516H46.4516V34.8387Z" fill="#282828"/>
<path d="M24 9.29102H22.4517V10.8394H24V9.29102Z" fill="#282828"/>
<path d="M27.0967 9.29102H25.5483V10.8394H27.0967V9.29102Z" fill="#282828"/>
<path d="M30.1934 9.29102H28.645V10.8394H30.1934V9.29102Z" fill="#282828"/>
<path d="M33.2901 9.29102H31.7417V10.8394H33.2901V9.29102Z" fill="#282828"/>
<path d="M36.3873 9.29102H34.8389V10.8394H36.3873V9.29102Z" fill="#282828"/>
</g>
<defs>
<clipPath id="clip0">
<rect width="48" height="48" fill="white"/>
</clipPath>
</defs>
</svg>
