<svg width="320" height="107" viewBox="0 0 320 107" fill="none" xmlns="http://www.w3.org/2000/svg">
<path d="M300.614 84.4193C300.113 84.9934 299.568 85.5327 299.037 86.0763C298.89 86.2242 298.708 86.3851 298.492 86.3155C298.203 86.2242 298.233 85.9371 298.233 85.6979C298.233 84.3062 298.233 82.9145 298.233 81.5271C298.241 80.8667 298.093 80.2137 297.801 79.6222C297.691 79.3689 297.524 79.1452 297.312 78.9692C297.1 78.7931 296.851 78.6697 296.583 78.6089C294.051 77.9043 291.528 77.1737 289 76.456C287.669 76.0777 286.339 75.6993 285.008 75.3383C283.677 74.9773 283.396 75.2122 283.327 76.6431C283.254 78.1653 283.647 79.6048 283.919 81.0748C284.684 85.0934 285.548 89.0772 286.559 92.9914C287.043 94.8746 287.246 96.8143 287.816 98.6758C288.192 99.9022 288.68 100.163 289.938 100.389C306.421 103.382 314.63 105.299 320 107H0C8.54169 105.173 13.2684 103.486 29.2068 102.216C29.4831 102.2 29.76 102.2 30.0363 102.216C30.2439 102.251 30.457 102.206 30.6331 102.09C30.8092 101.974 30.9355 101.795 30.9868 101.59C31.0184 101.417 31.1077 101.261 31.2398 101.147C31.3719 101.033 31.5388 100.968 31.7127 100.963C32.2096 100.929 32.3176 100.576 32.3348 100.163C32.3521 99.75 32.3651 99.3977 32.3651 99.0193C32.3651 97.1275 32.27 97.3101 34.1322 97.2797C35.4283 97.2492 36.7548 97.2536 38.0682 97.2318C38.7595 97.2318 39.4508 97.1971 40.1377 97.1449C40.8247 97.0927 41.0018 96.9579 41.0839 96.1881C41.2049 95.1095 41.2049 95.1095 42.3282 94.9094C42.3887 94.9094 42.4406 94.8355 42.501 94.792C42.6004 94.4701 42.3066 94.3875 42.1468 94.2396C40.9932 93.1654 40.4185 91.8781 40.8895 90.3254C41.3604 88.7728 42.527 87.8116 44.1515 87.4898C44.3513 87.4351 44.558 87.4102 44.765 87.4159C45.9791 87.5463 46.7265 86.8244 47.3876 85.9676C47.4473 85.8647 47.5409 85.7861 47.6523 85.7456C47.7636 85.705 47.8855 85.7051 47.9968 85.7458C48.6378 85.8868 49.3032 85.8704 49.9367 85.6979C50.8483 85.5109 51.1681 85.724 51.41 86.6461C51.4246 86.7823 51.4879 86.9085 51.588 87.0013C51.6881 87.0941 51.8183 87.1471 51.9544 87.1506C52.6716 87.2245 53.2894 87.1723 53.7474 86.459C54.5856 85.1543 55.6873 84.0279 56.4391 82.6579C56.7538 82.3177 56.9934 81.9144 57.1424 81.4745C57.2913 81.0345 57.3461 80.5678 57.3032 80.105C57.1865 68.832 58.1198 67.3055 58.1673 65.531C58.2091 65.2892 58.1664 65.0402 58.0463 64.8265C57.9167 64.6438 57.8346 64.3916 57.9815 64.248C58.4438 63.7827 58.3056 63.2086 58.3185 62.6693C58.3617 61.034 58.3747 59.4031 58.4006 57.7678C58.4006 57.3938 58.5129 57.0111 58.2234 56.6718C58.1677 56.6022 58.1373 56.5155 58.1373 56.4261C58.1373 56.3367 58.1677 56.25 58.2234 56.1804C58.6555 55.7455 58.5 55.2018 58.5086 54.7017C58.5432 53.0664 58.5605 51.4311 58.5605 49.7959C58.5605 49.2914 58.6512 48.7869 58.3531 48.2824C58.1198 47.8909 58.3315 47.6039 58.8759 47.5082C59.5887 47.3821 60.3146 47.3299 61.0361 47.256C61.3127 47.2299 61.5891 47.256 61.8657 47.2168C62.2761 47.182 62.7298 47.2647 63.0754 47.0255C63.4211 46.7863 63.2223 46.3166 63.2742 45.9512C63.313 45.6729 63.4081 45.4859 63.7062 45.5163C64.0043 45.5468 63.9698 45.7338 64.0302 45.9512C64.1014 46.4226 64.1014 46.9021 64.0302 47.3734C64.0302 48.0519 64.0648 48.1041 64.7172 48.0736C65.4431 48.0432 66.1646 47.9562 66.8775 47.9344C67.3095 47.9344 67.5299 47.7692 67.4176 47.3038C67.3395 47.11 67.3395 46.8931 67.4176 46.6993C67.5078 46.5492 67.643 46.4318 67.8036 46.3638C67.9643 46.2959 68.1422 46.2808 68.3119 46.3209C68.6748 46.3209 68.5927 46.6297 68.61 46.8646C68.6662 47.6996 68.4718 48.5172 68.4631 49.3436C68.4286 51.9878 68.4242 54.6321 68.4113 57.2764C68.3945 57.3523 68.4022 57.4316 68.4333 57.5028C68.4644 57.5739 68.5172 57.6333 68.5841 57.6721C69.0766 56.998 69.3359 56.1325 70.066 55.6281C70.321 55.4541 70.2043 55.1931 70.1136 54.9583C69.8574 54.2698 69.8574 53.5113 70.1136 52.8229C70.4592 51.6442 70.5931 50.3743 71.103 49.2783C71.9152 47.5387 71.6214 45.6859 71.7467 43.8984C72.0794 39.1144 72.425 34.3304 72.7491 29.5463C72.8355 28.2416 72.9176 26.9064 72.9953 25.5886C73.0315 25.418 73.0315 25.2416 72.9953 25.0711C72.2608 23.3097 72.7102 21.4308 72.4899 19.6216C72.4702 19.0662 72.5387 18.5112 72.6929 17.9776C72.6981 17.8531 72.733 17.7318 72.7948 17.6238C72.8565 17.5158 72.9432 17.4244 73.0476 17.3574C73.1519 17.2904 73.2708 17.2497 73.394 17.2388C73.5173 17.2279 73.6414 17.2471 73.7558 17.2948C74.4989 17.5036 78.2016 18.2038 78.4349 18.3256C78.4997 18.4169 78.5732 18.4169 78.6423 18.3256C79.1391 18.0777 78.9231 17.5905 79.0182 17.2035C79.0787 17.0774 79.0182 16.9991 78.9145 16.9512C77.8127 14.968 78.0806 13.685 79.9039 12.4281C80.2452 12.1933 80.3835 12.0411 80.1631 11.6148C79.7135 10.8358 79.3374 10.016 79.0398 9.16628C79.0238 9.09797 78.984 9.03774 78.9274 8.99666C78.1411 8.61394 78.3269 7.77891 78.1065 7.14393C77.8862 6.50896 78.1281 5.79135 78.3398 5.13029C78.8021 3.68202 79.2299 2.22072 79.6792 0.781154C79.9514 -0.0886721 79.9687 -0.0886721 80.8328 0.10269C81.6969 0.294051 82.4227 0.537603 83.2134 0.742012C83.6152 1.02905 85.6545 1.34654 86.7605 1.64228L113.911 8.88794L143.39 16.8425C144.276 17.0291 145.152 17.2643 146.012 17.5471L164.591 22.6007C164.96 22.6854 165.325 22.7899 165.684 22.9139C165.964 23.027 172.968 20.3957 173.111 20.2087C174.839 17.9385 176.52 15.6595 178.239 13.4023C178.542 13.0066 181.631 16.8816 181.743 17.6166C182.84 24.4839 182.067 31.1816 179.963 37.7749C179.583 38.9622 179 40.0277 178.52 41.1541C178.29 41.6581 178.165 42.2044 178.153 42.759C178.153 46.3427 178.343 49.9176 178.52 53.4926C178.55 54.0928 178.732 54.6756 178.559 55.2888C178.503 55.4885 178.492 55.6985 178.529 55.9028C178.566 56.1071 178.648 56.3002 178.771 56.4674C179.591 57.2111 178.805 60.4643 179.004 61.2993C179.062 61.7129 179.07 62.1319 179.03 62.5475C179.03 62.7737 178.939 62.9824 178.688 62.9824C178.187 62.9824 178.174 63.3347 178.179 63.7044C178.179 65.0961 178.179 66.4878 178.222 67.8752C178.308 71.9779 178.402 76.0791 178.503 80.1789C178.503 80.7573 178.576 81.3358 178.628 82.0534C179.002 81.6334 179.402 81.2369 179.825 80.8661L180.542 80.4051C180.741 80.3572 180.801 80.1919 180.866 80.0267C181.255 79.5918 181.847 79.4221 182.162 78.9177C182.456 78.6828 182.901 78.9698 183.16 78.6219L183.592 78.2392L183.756 78.1305C183.977 77.9435 184.279 77.813 184.188 77.4346L184.258 76.9997C184.34 76.6778 184.69 76.4343 184.53 76.0385C184.927 75.895 184.837 75.4688 185.014 75.1948V74.7207C185.08 74.5275 185.089 74.3189 185.04 74.1206C185.04 74.0205 185.066 73.9205 185.07 73.8161C185.085 73.58 185.085 73.3433 185.07 73.1072C185.275 72.5941 185.328 72.032 185.221 71.4893C185.481 71.4959 185.741 71.4607 185.99 71.385C186.053 71.3958 186.117 71.3958 186.18 71.385C187.088 71.3371 187.999 71.2675 188.902 71.1805C188.954 71.1793 189.005 71.1661 189.05 71.142C189.096 71.1179 189.136 71.0835 189.166 71.0414C189.197 70.9994 189.217 70.9508 189.226 70.8995C189.235 70.8482 189.232 70.7956 189.218 70.7456L189.304 69.9671C189.482 69.5561 189.519 69.0968 189.408 68.6624L189.494 67.6621C189.698 67.1241 189.746 66.539 189.632 65.9746L189.71 65.1396C189.787 65.0192 189.833 64.8816 189.844 64.739C189.856 64.5963 189.832 64.4531 189.775 64.322L189.922 62.8302C189.996 62.7555 190.043 62.6572 190.054 62.5518C190.065 62.4465 190.04 62.3405 189.982 62.2518L190.138 60.7383C190.355 60.0875 190.41 59.3931 190.298 58.7159L190.319 58.1549C190.346 58.0558 190.34 57.9507 190.303 57.8551C190.265 57.7596 190.198 57.6786 190.112 57.6243C190.112 56.7545 189.835 55.8368 190.19 54.9583C191.054 54.5973 191.991 54.7234 192.847 54.3973C193.115 54.657 193.432 54.8597 193.78 54.9931L193.806 55.0627L193.862 55.0105C193.979 54.9452 194.203 54.8496 194.195 54.8148C194.018 54.0406 194.398 53.1708 193.875 52.4662C193.592 52.1329 193.418 51.7199 193.376 51.2834C193.334 50.8468 193.427 50.408 193.642 50.0264C193.706 49.9451 193.751 49.8506 193.774 49.7497C193.798 49.6488 193.799 49.544 193.777 49.4426C193.756 49.3413 193.712 49.246 193.65 49.1634C193.588 49.0809 193.508 49.0132 193.417 48.9652C192.86 48.5607 192.38 48.0606 191.823 47.6604C191.25 47.2614 190.854 46.6527 190.721 45.9643C190.518 44.7639 190.363 43.5592 190.168 42.3589C190.082 41.8326 190.285 41.6152 190.795 41.489C191.59 41.3281 194.722 40.8628 195.318 40.7714C207.652 38.8926 219.977 36.9935 232.293 35.0741L236.298 34.4608C240.227 33.8809 244.155 33.2837 248.08 32.669C248.482 32.6081 252.552 28.4764 252.665 27.8545C252.93 26.3497 253.205 24.8449 253.49 23.3401C253.585 22.853 256.765 24.2099 257.171 24.8405C258.543 27.0167 259.646 29.3536 260.454 31.7992C261.932 36.2527 262.537 40.8019 261.781 45.4641C261.582 46.6993 261.327 47.9257 261.042 49.1435C260.878 49.8568 260.053 51.9095 260.022 52.401C259.789 52.7576 259.72 53.3404 259.21 53.3535C258.623 53.3535 258.579 52.7402 258.346 52.3488C258.314 52.2881 258.285 52.2257 258.26 52.1618C258.276 51.7536 258.181 51.3487 257.983 50.9919L256.19 47.1733C256.209 47.1443 256.221 47.111 256.224 47.0762C256.227 47.0415 256.222 47.0065 256.208 46.9745C256.194 46.9425 256.173 46.9145 256.145 46.893C256.118 46.8715 256.086 46.8573 256.052 46.8515C255.438 45.5468 254.82 44.2072 254.22 42.8764C254.021 42.392 253.69 41.9743 253.265 41.6717C252.834 41.3822 252.441 41.0371 252.099 40.6453C251.849 40.3446 251.521 40.119 251.152 39.9932C250.784 39.8674 250.387 39.8462 250.007 39.932C245.976 40.5366 241.928 41.0628 237.91 41.6195L223.531 43.6201C223.361 43.6532 223.19 43.675 223.017 43.6853C222.261 43.6853 222.559 44.3029 222.477 44.6682C222.369 45.151 222.797 45.1032 223.082 45.151C223.253 45.1616 223.425 45.1616 223.596 45.151C223.73 45.151 223.877 45.151 223.955 45.3032C223.975 45.3421 223.987 45.385 223.99 45.429C223.993 45.473 223.986 45.517 223.971 45.5582C223.955 45.5994 223.931 45.6368 223.9 45.6678C223.869 45.6989 223.832 45.7228 223.79 45.7381C223.207 46.0643 223.147 46.6514 223.155 47.1864C223.194 49.5436 223.013 51.9008 223.479 54.2537C225.795 65.8485 228.05 77.4563 230.336 89.0468C230.686 90.8212 231.006 92.6044 231.464 94.3527C231.831 95.7618 232.328 97.1405 232.587 98.5757C232.341 99.476 232.665 100.359 232.661 101.255C232.661 101.69 233.023 101.69 233.347 101.651C234.587 101.555 235.827 101.494 237.063 101.364C241.388 100.868 245.741 100.659 250.094 100.737C251.131 100.768 252.168 100.789 253.205 100.776C254.069 100.776 254.203 100.598 254.069 99.7065C253.935 98.6758 254.276 98.1495 255.296 97.8799C255.602 97.8254 255.895 97.7132 256.16 97.5493C256.376 97.3711 256.641 97.2641 256.919 97.2431C257.197 97.2221 257.475 97.288 257.715 97.4319C258.242 97.7407 258.536 97.4754 258.873 97.1275C259.523 96.4481 259.901 95.5517 259.936 94.6093C260.059 93.1544 260.108 91.6941 260.083 90.2341C260.12 89.9498 260.203 89.6735 260.329 89.4165C260.891 89.2555 260.986 89.473 261.401 89.4947C261.815 89.5165 261.859 89.1642 261.889 88.8467C261.889 88.7076 261.889 88.5727 261.915 88.4336C261.915 88.0639 262.083 87.916 262.489 87.8856C263.786 87.7986 264.343 87.181 264.395 85.8632C264.395 85.7284 264.395 85.5936 264.373 85.4587C264.72 84.4609 264.892 83.4104 264.883 82.3535C264.995 82.2108 265.06 82.0363 265.069 81.8545C265.077 81.6727 265.029 81.4928 264.931 81.3401L265.09 79.2134C265.215 78.9947 265.283 78.7483 265.29 78.4964C265.297 78.2444 265.242 77.9947 265.129 77.7695C265.233 77.0795 265.24 76.3783 265.151 75.6862C265.285 75.2922 265.322 74.8714 265.259 74.4598C265.285 73.4551 265.73 73.0594 266.68 73.2333C266.896 73.2725 267.134 73.5595 267.311 73.2551C267.488 72.9506 267.311 72.7201 267.112 72.507C267.169 72.3113 267.16 72.0721 267.285 71.9286C267.864 71.3545 267.631 70.8196 267.285 70.2759C267.35 70.1368 267.285 70.0628 267.156 70.0324C267.042 69.4749 267.104 68.8958 267.333 68.3754C267.367 68.3754 267.419 68.3754 267.428 68.3449C268.007 67.2489 268.292 67.0837 269.532 67.5186C272.604 68.5972 275.792 69.2582 278.916 70.1281C282.277 71.0718 285.66 71.9329 289.035 72.8332C291.59 73.5146 294.15 74.2075 296.717 74.9121C296.95 74.973 297.192 75.0165 297.417 75.0991C298.786 75.5906 299.845 75.0208 300.687 74.0162C301.348 73.229 302.083 72.4766 302.459 71.4676C302.614 71.0327 303.573 73.4638 303.608 73.8118C303.94 76.6338 303.492 79.4934 302.312 82.0751C301.863 82.9361 301.291 83.726 300.614 84.4193ZM53.3888 95.5313C54.1751 95.7096 54.9787 95.8227 55.7651 96.0402C55.8985 96.0469 56.032 96.0277 56.1583 95.9837L56.2576 95.8053C55.5059 95.5618 55.3935 95.0964 55.562 94.418C55.6392 93.9048 55.6392 93.3828 55.562 92.8697C55.5275 92.3565 55.3546 92.2695 54.8923 92.5478C54.2657 92.9075 53.6625 93.307 53.0863 93.7438C52.9324 93.8535 52.8124 94.0048 52.7404 94.1802C52.6683 94.3556 52.6471 94.548 52.6792 94.7351C52.7113 94.9221 52.7954 95.0962 52.9218 95.2371C53.0481 95.378 53.2115 95.4801 53.3931 95.5313H53.3888ZM57.3593 82.784C57.2064 82.9072 57.062 83.0409 56.9273 83.1842C55.4972 85.1369 54.0628 87.0984 52.6413 89.0468C52.2093 89.66 52.2093 89.6905 52.866 90.0384C53.4416 90.2755 53.9053 90.7252 54.1622 91.2953C54.1879 91.3944 54.2431 91.4833 54.3203 91.5501C54.3974 91.6169 54.493 91.6585 54.5942 91.6693C54.8102 91.6693 55.0262 91.6693 55.1386 91.4605C55.3676 90.943 56.3268 91.3127 56.2835 90.4733C56.2928 90.2657 56.3537 90.0638 56.4607 89.8862C56.6378 89.5426 56.5687 89.3556 56.236 89.1251C55.7046 88.7597 55.696 88.638 56.1583 88.3074C56.6205 87.9769 56.6854 87.7203 56.3354 87.3028C56.1928 87.1332 56.1194 86.8331 56.2619 86.7287C57.0224 86.159 56.5687 85.0717 57.3075 84.4454C57.6834 84.1714 57.5019 83.4755 57.3593 82.7884V82.784ZM62.4965 77.6521C62.5655 77.0803 62.5377 76.5009 62.4144 75.9385L59.6449 79.6787C59.8175 79.7271 59.9938 79.7606 60.172 79.7788C60.8936 79.7788 61.7879 80.0658 62.2891 79.644C62.7903 79.2221 62.423 78.3349 62.4965 77.6521ZM61.0836 95.9706C61.3688 95.7923 61.6626 95.6401 61.9218 95.44C61.9812 95.3775 62.0208 95.2986 62.0354 95.2134C62.05 95.1282 62.039 95.0405 62.0039 94.9616C61.9391 94.7485 61.7577 94.7615 61.5719 94.7702C60.8115 94.805 60.7034 95.0442 61.0793 95.9749L61.0836 95.9706ZM62.1119 93.0784C61.8959 92.6435 61.5805 92.787 61.1657 92.7783C61.4984 93.0262 61.7317 93.1871 62.1076 93.0784H62.1119ZM59.3554 90.5777C59.377 91.0604 59.6838 91.1996 60.0942 91.2909C60.3192 91.3074 60.5359 91.3827 60.723 91.5093C60.9102 91.6359 61.0613 91.8095 61.1614 92.0129C61.1841 92.0699 61.2179 92.1217 61.2609 92.1652C61.3038 92.2087 61.3551 92.243 61.4115 92.2662C61.468 92.2893 61.5285 92.3008 61.5894 92.2998C61.6504 92.2989 61.7106 92.2856 61.7663 92.2608C62.0039 92.1999 62.0601 91.9824 62.0774 91.7737C62.1249 91.1518 62.1595 90.5298 62.2027 89.9079H62.2372C62.2372 89.473 62.2372 89.0076 62.2372 88.5597C62.2113 87.9638 62.086 87.8856 61.5416 88.1987C60.9972 88.5118 60.3794 88.938 59.7875 89.2947C59.2561 89.6035 59.3252 90.0906 59.3511 90.5777H59.3554ZM59.3554 88.7119C59.6017 88.9076 59.7875 88.6641 59.9949 88.5423C60.6084 88.1552 61.2133 87.7551 61.8181 87.355C62.0169 87.2245 62.2502 87.081 62.194 86.7939C62.1162 86.4199 61.762 86.4982 61.52 86.4764C61.2781 86.4547 60.967 86.4764 60.6948 86.4764C59.3338 86.4764 59.3339 86.4764 59.269 87.8203C59.269 87.9247 59.2431 88.0247 59.2345 88.1291C59.2215 88.3379 59.2042 88.5814 59.3684 88.7162L59.3554 88.7119ZM58.2926 81.6446C58.1703 82.9534 58.2476 84.2734 58.5216 85.5588C58.546 85.7132 58.6302 85.8515 58.7557 85.9436C58.8812 86.0357 59.0378 86.074 59.1913 86.0502H61.6713C61.7569 86.0628 61.8442 86.0559 61.9268 86.03C62.0094 86.0041 62.0852 85.9599 62.1486 85.9007C62.212 85.8415 62.2614 85.7687 62.2932 85.6877C62.325 85.6067 62.3383 85.5195 62.3323 85.4326C62.3841 84.602 62.4403 83.7713 62.5094 82.7188C62.5094 82.3491 62.5094 81.762 62.5094 81.1749C62.5094 80.4181 62.423 80.3268 61.6885 80.305C61.0361 80.2789 60.3924 80.2833 59.727 80.305C59.3643 80.3011 59.0141 80.4382 58.7493 80.6877C58.4845 80.9373 58.3256 81.28 58.3055 81.6446H58.2926ZM58.4741 73.5943C58.4741 75.6036 58.4741 77.6173 58.4741 79.6831C58.8111 79.5787 58.9061 79.2482 59.1092 79.0264C60.1461 77.684 61.1773 76.3357 62.2027 74.9817C62.4543 74.7429 62.6187 74.4258 62.6693 74.0814C62.6909 73.1855 62.7341 73.0855 61.8354 73.0985C60.9367 73.1116 59.9733 73.0985 59.04 73.0637C58.6642 73.0507 58.4827 73.1898 58.487 73.5943H58.4741ZM62.6088 72.3766C61.9716 72.2077 61.3018 72.2077 60.6646 72.3766C61.3064 72.5436 61.9799 72.5436 62.6218 72.3766H62.6088ZM58.5345 68.4188C58.5345 69.3539 58.5345 70.2933 58.5345 71.2284C58.5345 71.933 58.5821 71.9677 59.2172 71.9286C60.2152 71.8677 61.2133 71.7807 62.2113 71.7329C62.5915 71.7329 62.7859 71.5763 62.7946 71.1805C62.832 69.3075 62.8723 67.433 62.9156 65.5571C62.9156 65.1483 62.7168 65.0178 62.3409 65.0135C61.3083 65.0135 60.2714 64.983 59.2388 64.9439C58.8067 64.9439 58.6944 65.1179 58.6987 65.5006C58.6987 66.4704 58.6987 67.4446 58.6987 68.4145L58.5345 68.4188ZM62.6563 64.2872C62.0359 64.1315 61.383 64.171 60.7855 64.4002C61.4013 64.5987 62.0686 64.5584 62.6563 64.2872ZM58.7679 60.373C58.7679 61.308 58.7679 62.2431 58.7679 63.1825C58.7679 63.8784 58.8154 63.9349 59.4505 63.8958C60.4485 63.8349 61.4423 63.7392 62.4403 63.6826C62.8205 63.6826 62.9933 63.5261 63.0149 63.1303C63.123 61.2602 63.1402 59.3857 63.1489 57.5112C63.1489 57.1285 63.0279 56.9458 62.6218 56.9415C61.5546 56.9415 60.4874 56.8893 59.4159 56.8458C59.0444 56.8458 58.9363 57.0285 58.9363 57.3547C58.9363 58.3608 58.9363 59.3669 58.9363 60.373H58.7679ZM63.0409 56.3587C62.3798 56.0499 62.2415 56.0456 60.9583 56.3239C61.64 56.4536 62.3389 56.4624 63.0236 56.35L63.0409 56.3587ZM59.1524 49.1739C59.1524 50.2134 59.1524 51.2528 59.1524 52.2923H59.0098C59.0098 53.1925 59.0098 54.0928 59.0098 54.9931C59.0098 55.8151 59.0098 55.8325 59.7961 55.7933C60.7596 55.7455 61.7188 55.6498 62.6779 55.5976C63.0149 55.5976 63.1834 55.4715 63.1877 55.1149C63.2137 53.1751 63.2454 51.2354 63.2828 49.2957C63.2828 48.9521 63.1575 48.7825 62.8119 48.7695C61.7447 48.7347 60.6775 48.6955 59.6147 48.652C59.1999 48.6303 59.1178 48.8478 59.1178 49.1652L59.1524 49.1739ZM63.1402 47.7387C62.3582 47.7779 61.5762 47.8257 60.7942 47.9301C61.6295 48.1504 62.5027 48.183 63.3519 48.0258C63.1791 47.8257 63.1402 47.73 63.1057 47.73L63.1402 47.7387ZM64.1556 78.2696C64.6956 78.1957 65.2271 78.0609 65.7714 77.9782C66.3893 77.8826 67.0287 76.269 66.6053 75.8602C65.7412 75.0252 65.5079 73.9683 65.3091 72.8637C65.2561 72.7219 65.188 72.5863 65.106 72.4592C64.6092 73.0724 64.2031 73.5856 63.7883 74.0858C63.6101 74.2982 63.5148 74.5688 63.5204 74.8469C63.5204 75.7819 63.4988 76.7213 63.4513 77.6564C63.4081 78.1783 63.6587 78.3262 64.121 78.2609L64.1556 78.2696ZM65.2314 70.4847C65.2919 69.9324 65.3696 69.38 65.4301 68.8277C65.5248 67.6792 65.9036 66.5728 66.5318 65.6093C66.6144 65.5296 66.674 65.4289 66.7045 65.3179C66.7349 65.2069 66.7349 65.0897 66.7047 64.9787H64.1728C63.8272 64.9787 63.6933 65.1744 63.6889 65.5093C63.6414 67.9709 63.5852 70.4368 63.5291 72.9376C63.9568 72.6618 64.3249 72.3021 64.6115 71.8799C64.898 71.4577 65.0971 70.9817 65.1968 70.4803L65.2314 70.4847ZM63.6933 63.7174C63.7581 64.1741 63.8315 64.4351 64.35 64.3785C64.6248 64.3635 64.9003 64.3635 65.1752 64.3785V64.3524H65.3826C66.6787 64.3046 66.6787 64.3002 66.9034 63.0477C67.0028 62.504 67.2015 61.9778 67.2879 61.4298C67.3916 60.7774 67.2879 60.66 66.6399 60.5121C66.372 60.4499 66.1008 60.4034 65.8276 60.373C65.5122 60.3382 65.2184 60.3512 65.0585 60.7252C64.9585 60.9082 64.8217 61.0682 64.6567 61.1949C64.2815 61.4852 63.9908 61.8717 63.8152 62.3141C63.6396 62.7564 63.5855 63.2381 63.6587 63.7087L63.6933 63.7174ZM64.8512 58.8769C65.5036 58.8769 66.1473 58.7681 66.8083 58.7594C67.3182 58.7594 67.4694 58.4985 67.4391 58.0418C67.4391 57.8331 67.4391 57.6069 67.4391 57.4199C67.452 57.351 67.448 57.2801 67.4278 57.2131C67.4075 57.146 67.3714 57.0849 67.3226 57.035C67.2738 56.985 67.2138 56.9477 67.1476 56.9261C67.0813 56.9045 67.0109 56.8993 66.9423 56.911H65.7023C65.3912 56.911 65.0845 56.911 64.7734 56.911C63.9093 56.9502 63.879 56.811 63.8661 57.8374C63.8531 58.8638 63.7926 58.8942 64.8123 58.8682L64.8512 58.8769ZM66.817 48.452C66.0609 48.539 65.3048 48.6042 64.5444 48.6477C64.1123 48.6738 63.9222 48.8347 63.9222 49.2827C63.9222 51.4398 63.9021 53.597 63.8618 55.7542C63.8618 56.263 64.0562 56.4283 64.5401 56.3848C65.3322 56.3181 66.1257 56.2703 66.9207 56.2413C67.3527 56.2413 67.4391 56.0021 67.4348 55.6411C67.4348 54.5277 67.4348 53.4143 67.4348 52.301H67.4867C67.4867 51.2224 67.4867 50.1264 67.4867 49.0652C67.4867 48.539 67.2836 48.3954 66.817 48.452ZM175.962 97.8494C176.316 97.9582 176.697 97.8494 177.086 97.9538C176.882 97.6102 176.351 97.5928 176.407 97.1275C176.45 96.7665 176.628 96.4229 176.437 96.0619C176.276 96.0653 176.118 96.1063 175.976 96.1818C175.834 96.2573 175.71 96.3652 175.617 96.4968C175.509 96.5923 175.429 96.716 175.387 96.8543C175.344 96.9925 175.341 97.1399 175.377 97.28C175.412 97.4201 175.486 97.5475 175.589 97.648C175.693 97.7485 175.822 97.8182 175.962 97.8494ZM129.033 91.491C129.897 91.8346 129.802 92.6174 129.897 93.3263C129.923 93.5655 129.944 93.8091 129.962 94.0483C129.996 94.4832 130.199 94.6746 130.627 94.6354C131.292 94.5789 131.876 94.6354 131.858 95.5357C131.858 95.714 132.035 95.8227 132.23 95.8184C132.334 95.827 132.437 95.7946 132.517 95.728C132.598 95.6615 132.65 95.566 132.662 95.4617C132.714 95.1225 132.735 94.7746 132.757 94.431C132.809 93.5322 132.855 92.6334 132.895 91.7345C132.925 91.0126 132.921 91.0039 132.182 90.93C131.668 90.8778 131.154 90.8604 130.64 90.8299V90.8169C130.208 90.8169 129.745 90.8169 129.3 90.8169C129.136 90.8169 128.942 90.8169 128.903 91.043C128.864 91.2692 128.851 91.4301 129.033 91.491ZM127.611 81.4489C127.827 83.1885 128.073 84.963 128.311 86.7157C128.311 86.82 128.346 86.9201 128.367 87.0244C128.48 87.5637 128.298 88.2639 128.726 88.6075C129.154 88.9511 129.793 88.751 130.342 88.7902C131.247 88.9087 132.16 88.9509 133.072 88.9163C133.054 88.5245 133.015 88.134 132.956 87.7464C132.524 85.7414 132.092 83.7408 131.694 81.7315C131.582 81.1575 131.34 80.8922 130.757 80.8617C129.966 80.8139 129.18 80.6878 128.389 80.6182C127.507 80.5399 127.482 80.5573 127.59 81.4489H127.611ZM126.203 70.4499C126.484 72.7245 126.743 75.0034 127.015 77.278C127.045 77.5172 127.123 77.7521 127.153 77.9956C127.154 78.0647 127.168 78.1331 127.195 78.1967C127.221 78.2603 127.26 78.318 127.309 78.3665C127.358 78.4149 127.416 78.4532 127.48 78.4791C127.544 78.5051 127.612 78.5181 127.68 78.5175C128.639 78.6176 129.603 78.735 130.562 78.8568C130.994 78.9133 131.102 78.748 130.994 78.3262C130.47 75.8443 129.959 73.3595 129.46 70.8718C129.445 70.6986 129.369 70.5367 129.245 70.4154C129.121 70.2941 128.959 70.2215 128.786 70.2107C128.104 70.1107 127.421 70.0019 126.626 69.8802C126.259 69.7845 126.125 69.9671 126.181 70.4499H126.203ZM126.79 68.0579C127.499 68.1883 128.212 68.3014 128.951 68.4232C129.013 68.3155 129.05 68.1946 129.058 68.07C129.067 67.9455 129.046 67.8207 128.998 67.7056C128.467 65.3745 127.922 63.0433 127.408 60.7078C127.283 60.1381 127.049 59.7554 126.427 59.7206C126.29 59.7074 126.155 59.6841 126.021 59.651C124.967 59.4292 124.95 59.4292 125.066 60.5208C125.291 62.6606 125.527 64.7989 125.775 66.9358C125.857 67.8883 125.879 67.8926 126.769 68.0579H126.79ZM126.816 58.0897L125.451 51.6095C125.399 51.3703 125.356 51.1354 125.313 50.8962C125.101 49.7828 125.101 49.7828 123.813 49.5915C123.718 50.744 123.991 51.8617 124.077 52.9925C124.172 54.2363 124.379 55.4715 124.509 56.711C124.574 57.3373 124.816 57.7461 125.481 57.8287C125.861 57.8679 126.25 57.9766 126.795 58.0897H126.816ZM109.802 94.6006C109.802 95.0355 109.949 95.2399 110.398 95.2312C111.534 95.2312 112.671 95.2312 113.807 95.2312C114.209 95.2312 114.351 95.0355 114.347 94.6572C114.347 93.7873 114.347 92.9175 114.347 92.0477H114.408C114.408 91.2866 114.408 90.5211 114.408 89.76C114.408 88.9989 114.408 88.9815 113.686 88.9728C112.619 88.9728 111.552 88.9728 110.485 88.9728C110.027 88.9728 109.785 89.0859 109.793 89.6122C109.789 91.2518 109.789 92.9349 109.78 94.5963L109.802 94.6006ZM109.776 85.1413C109.776 85.9763 109.776 86.807 109.776 87.642C109.776 88.0378 109.94 88.2117 110.325 88.2117C111.496 88.2117 112.671 88.2117 113.842 88.2117C114.218 88.2117 114.421 88.0726 114.421 87.6681C114.421 86.0357 114.434 84.4034 114.459 82.771C114.459 82.3665 114.269 82.2186 113.889 82.2186C112.718 82.2186 111.543 82.2186 110.372 82.2186C109.94 82.2186 109.754 82.3926 109.763 82.8362C109.767 83.6104 109.754 84.3715 109.754 85.1369L109.776 85.1413ZM109.776 80.8356C109.776 81.2705 109.91 81.4706 110.368 81.4619C111.539 81.4619 112.71 81.4619 113.881 81.4619C114.261 81.4619 114.451 81.3184 114.451 80.9183C114.451 79.2873 114.451 77.6564 114.425 76.0298C114.425 75.6732 114.235 75.5471 113.902 75.5471C112.695 75.5471 111.49 75.5471 110.286 75.5471C109.854 75.5471 109.772 75.7819 109.776 76.1473C109.776 76.9084 109.776 77.6738 109.776 78.4349C109.763 79.2351 109.776 80.0354 109.759 80.8139L109.776 80.8356ZM109.754 72.4679C109.754 73.0594 109.754 73.6509 109.754 74.2423C109.754 74.6425 109.919 74.8034 110.307 74.8034C111.483 74.8034 112.658 74.8034 113.833 74.8034C114.304 74.8034 114.421 74.5729 114.416 74.1597C114.416 73.2551 114.423 72.3505 114.438 71.4458C114.453 71.3614 114.451 71.2746 114.433 71.1909C114.414 71.1071 114.378 71.0281 114.328 70.9586C114.278 70.8891 114.214 70.8305 114.141 70.7864C114.068 70.7423 113.987 70.7137 113.902 70.7021C112.733 70.3913 111.533 70.2119 110.325 70.1672C109.862 70.1672 109.72 70.3586 109.733 70.7891C109.75 71.3502 109.737 71.9069 109.737 72.4635L109.754 72.4679ZM110.217 69.4539C111.455 69.5089 112.684 69.6837 113.889 69.9758C114.179 70.0541 114.351 69.9323 114.321 69.6062C114.321 69.5366 114.321 69.467 114.321 69.3974C114.321 67.6882 114.464 67.9317 112.93 67.91H112.001C111.418 67.91 110.83 67.91 110.247 67.91C109.746 67.91 109.703 68.2188 109.724 68.5972C109.746 68.9755 109.59 69.4061 110.199 69.4496L110.217 69.4539ZM109.72 64.0958C109.72 64.9265 109.72 65.7615 109.72 66.5922C109.72 67.0663 109.845 67.2881 110.359 67.275C111.496 67.2489 112.632 67.275 113.768 67.275C114.148 67.275 114.334 67.1402 114.33 66.7357C114.33 64.9671 114.33 63.1984 114.33 61.4298C114.33 61.0297 114.17 60.8688 113.781 60.8731C112.61 60.8731 111.439 60.8731 110.269 60.8731C109.811 60.8731 109.677 61.0732 109.685 61.5037C109.716 62.3562 109.703 63.226 109.703 64.0915L109.72 64.0958ZM110.294 60.2164C111.431 60.2164 112.567 60.1946 113.703 60.2164C114.179 60.2164 114.39 60.0859 114.369 59.5727C114.334 58.8116 114.369 58.0505 114.369 57.2851C114.369 56.524 114.369 55.7585 114.369 54.9974C114.369 54.5625 114.265 54.2842 113.738 54.2929C112.602 54.319 111.465 54.2929 110.329 54.2929C109.897 54.2929 109.724 54.4755 109.729 54.9104C109.729 56.4703 109.729 58.0288 109.729 59.5858C109.69 60.025 109.819 60.2207 110.277 60.212L110.294 60.2164ZM114.304 45.2728C114.304 44.1985 114.304 43.0982 114.278 42.0414C114.278 41.8326 114.278 41.6065 114.278 41.4151C114.278 41.2237 114.187 40.9802 113.937 40.9802C113.686 40.9802 113.647 41.128 113.561 41.2716C113.513 41.3647 113.472 41.4605 113.436 41.5586C112.792 43.0547 112.139 44.5465 111.504 46.0469C111.262 46.621 111.314 46.6862 111.936 46.721H112.87C114.511 46.6993 114.269 46.8211 114.287 45.2684L114.304 45.2728ZM113.258 53.697C112.269 53.0316 111.15 53.0186 110.035 52.9838C109.828 52.9838 109.728 53.1056 109.724 53.3013C109.715 53.3521 109.718 53.4044 109.732 53.4539C109.747 53.5034 109.773 53.5487 109.808 53.5861C109.844 53.6235 109.888 53.6518 109.936 53.6688C109.984 53.6859 110.036 53.6911 110.087 53.684H111.111L113.258 53.697ZM109.664 51.492C109.72 51.9661 109.741 52.2401 110.342 52.2575C111.699 52.3236 113.035 52.6176 114.295 53.1273C114.295 51.2876 114.295 49.6219 114.295 47.9562C114.295 47.5865 114.179 47.3647 113.764 47.3691C112.934 47.3691 112.105 47.3691 111.275 47.3691C111.171 47.3559 111.065 47.3789 110.976 47.4342C110.886 47.4896 110.818 47.574 110.783 47.6735C110.364 48.9391 109.474 50.0394 109.651 51.4877L109.664 51.492ZM110.96 40.2887C110.178 40.8671 109.664 42.2545 109.854 43.4548C110.312 42.3154 110.865 41.4107 110.938 40.2843L110.96 40.2887ZM109.664 33.4779C109.664 33.6823 109.664 33.9389 109.893 33.9998C110.122 34.0607 110.51 34.0651 110.653 33.8085C110.999 33.1735 111.275 32.5037 111.582 31.8383C111.582 31.8079 111.608 31.747 111.582 31.7383C110.826 31.2599 111.582 30.7032 111.509 30.1639C110.99 29.9943 110.493 30.1987 109.988 30.2335C109.651 30.2552 109.642 30.5162 109.638 30.7641C109.62 31.6571 109.616 32.5603 109.625 33.4736L109.664 33.4779ZM109.927 29.929C110.479 29.9161 111.03 29.8726 111.578 29.7986C111.949 29.742 111.984 29.3636 112.083 29.081L112.446 29.0288C112.723 29.1244 112.926 29.0549 112.921 28.733C112.989 28.1308 112.961 27.5216 112.839 26.9281L112.649 26.5498C112.99 25.8974 112.787 25.1928 112.831 24.5144C112.831 24.1969 112.641 24.1099 112.351 24.1403C111.595 24.223 110.843 24.31 110.083 24.3708C110.014 24.365 109.945 24.3747 109.881 24.3992C109.817 24.4238 109.759 24.4626 109.712 24.5127C109.665 24.5628 109.629 24.623 109.608 24.6888C109.587 24.7545 109.581 24.8243 109.59 24.8927C109.59 26.4236 109.59 27.9371 109.59 29.4811C109.59 29.7116 109.672 29.929 109.927 29.929ZM109.707 22.3615C109.726 22.7437 109.707 23.1269 109.651 23.5054C109.56 24.0229 109.811 24.1142 110.23 24.0708C110.778 24.0142 111.327 23.9359 111.876 23.9011C113.276 23.8098 113.107 23.7054 113.137 25.0232C113.137 25.4929 113.025 25.9844 113.397 26.4671C113.829 25.3059 114.218 24.1403 114.101 22.8791C114.066 22.5051 113.5 22.1528 112.995 22.118C112.027 22.0484 111.915 21.944 111.815 21.0699C111.815 20.9263 111.785 20.7654 111.932 20.7176C112.015 20.6873 112.106 20.6903 112.186 20.726C112.267 20.7616 112.33 20.8272 112.364 20.9089C112.844 21.8831 112.895 21.9005 113.721 21.4439C114.153 21.2047 114.174 20.8654 113.721 20.6001C113.285 20.3216 112.818 20.0954 112.329 19.926C110.925 19.5287 109.466 19.3598 108.009 19.4259C107.577 19.4259 107.369 19.5911 107.4 20.0435C107.4 20.287 107.4 20.5306 107.4 20.7741C107.4 21.7875 108.061 22.2615 109.011 21.944C109.59 21.7396 109.69 21.7962 109.707 22.3485V22.3615ZM104.565 22.8747C104.021 22.6921 103.606 23.0748 103.135 23.2009C102.833 23.1183 102.5 22.9748 102.5 23.5184C102.5 25.1131 102.51 26.7078 102.53 28.3025C102.53 28.5808 102.496 28.9853 102.509 29.268C102.509 30.7902 102.466 32.3124 102.461 33.8389C102.461 34.6783 102.461 34.6783 103.325 34.587C103.468 34.5645 103.613 34.5514 103.758 34.5478C104.19 34.5478 104.712 34.5 105.131 34.4869C105.551 34.4739 105.702 34.2782 105.702 33.8954C105.702 33.0604 105.732 32.2297 105.702 31.3947C105.702 30.9598 105.654 29.7638 105.767 29.6202C105.788 27.8371 105.866 26.0496 105.723 24.2665C105.782 24.0456 105.782 23.8132 105.723 23.5924C105.775 22.6399 105.443 22.7312 104.565 22.8617V22.8747ZM105.378 53.0708C105.235 53.0708 105.157 53.1447 105.149 53.3056C105.145 53.3302 105.148 53.3553 105.155 53.3789C105.163 53.4025 105.176 53.4241 105.193 53.4421C105.21 53.46 105.23 53.4739 105.253 53.4827C105.277 53.4914 105.301 53.4948 105.326 53.4926C105.412 53.4926 105.555 53.4404 105.576 53.3796C105.624 53.2317 105.564 53.1012 105.378 53.0577V53.0708ZM105.659 52.6054C105.707 52.6236 105.76 52.623 105.808 52.6037C105.856 52.5844 105.895 52.5478 105.918 52.501C106.229 51.8095 106.531 51.118 106.825 50.4178C106.841 50.3866 106.85 50.3522 106.851 50.3171C106.852 50.282 106.844 50.2472 106.83 50.2153C106.815 50.1834 106.794 50.1553 106.767 50.1331C106.74 50.1109 106.708 50.0952 106.674 50.0873C106.606 50.0734 106.536 50.0854 106.477 50.1207C106.418 50.1561 106.374 50.2124 106.354 50.2786C106.06 50.9397 105.775 51.5834 105.49 52.2749C105.477 52.307 105.472 52.3416 105.474 52.3761C105.476 52.4106 105.486 52.4442 105.502 52.4746C105.519 52.5049 105.542 52.5312 105.569 52.5515C105.597 52.5719 105.629 52.5858 105.663 52.5924L105.659 52.6054ZM106.523 21.0264C106.592 20.935 106.661 20.8828 106.661 20.8307C106.661 20.4305 106.864 19.8434 106.527 19.6738C106.039 19.4302 105.503 19.7216 105.036 20.1087C105.458 20.5192 105.966 20.8284 106.523 21.0133V21.0264ZM106.497 22.766C106.466 22.7581 106.434 22.758 106.403 22.7656C106.372 22.7731 106.343 22.7882 106.32 22.8095C106.201 23.0651 106.156 23.3492 106.191 23.6292C106.225 23.9092 106.337 24.1738 106.514 24.3926C106.613 24.1099 106.683 24.0142 106.674 23.9229C106.639 23.5271 106.847 23.0965 106.492 22.766H106.497ZM106.596 24.7405C106.596 24.7034 106.588 24.6668 106.572 24.6333C106.557 24.5997 106.534 24.5702 106.505 24.5468C106.476 24.5235 106.443 24.5068 106.407 24.4982C106.371 24.4896 106.334 24.4892 106.298 24.497C106.065 24.6318 106.129 24.9014 106.121 25.1276C106.078 26.4802 106.052 27.8328 106.03 29.1853C106.02 29.3924 106.036 29.5999 106.078 29.8029C106.096 29.8702 106.137 29.929 106.194 29.9694C106.251 30.0097 106.319 30.0293 106.389 30.0247C106.562 30.0247 106.609 29.8768 106.609 29.7377C106.609 28.072 106.609 26.4062 106.596 24.7405ZM106.246 30.4596C106.017 30.4596 106.034 30.6901 106.03 30.8554C106.03 31.3729 106.03 31.8905 106.03 32.408C106.03 32.9256 106.03 33.4431 106.03 33.9607C106.03 34.1477 106.091 34.313 106.315 34.2912C106.384 34.2815 106.446 34.245 106.488 34.1897C106.53 34.1343 106.549 34.0646 106.54 33.9955C106.54 33.4431 106.54 32.8908 106.566 32.3428C106.566 31.8601 106.566 31.3773 106.566 30.8945C106.566 30.6858 106.531 30.4422 106.246 30.4553V30.4596ZM105.637 38.2881V45.0466C105.978 44.9205 106.009 44.6117 106.112 44.3899C106.644 43.1939 107.162 41.9892 107.702 40.7932C107.848 40.4421 107.955 40.076 108.022 39.7015C108.064 39.567 108.054 39.4214 107.993 39.2944C107.932 39.1674 107.825 39.0688 107.694 39.0187C107.037 38.7534 106.454 38.275 105.637 38.2924V38.2881ZM108.864 44.603C108.385 45.7686 107.568 46.8037 107.568 48.1345C108.411 47.2516 109.046 45.5076 108.864 44.603ZM107.97 54.4886C108.164 54.7408 108.463 54.6756 108.73 54.6234C109.098 54.5538 109.072 54.2537 109.072 53.9797C109.072 53.8754 109.072 53.7753 109.072 53.6709C109.072 53.5666 109.072 53.3969 109.072 53.2621C109.074 53.1927 109.053 53.1245 109.013 53.0685C108.972 53.0124 108.914 52.9719 108.847 52.9533C108.78 52.935 108.709 52.9406 108.646 52.9692C108.583 52.9978 108.532 53.0475 108.501 53.1099C108.363 53.3449 108.24 53.589 108.134 53.8406C108.043 54.0493 107.789 54.2537 107.97 54.4929V54.4886ZM108.519 38.0271C108.817 38.1185 108.951 37.8836 108.985 37.6227C109.042 37.2965 108.864 37.1877 108.575 37.2095C108.212 37.2443 107.849 37.2965 107.335 37.3574C107.479 37.5435 107.658 37.699 107.862 37.8148C108.066 37.9305 108.29 38.0042 108.523 38.0315L108.519 38.0271ZM108.493 30.6684C108.493 30.39 108.268 30.3553 108.061 30.3857C107.758 30.4205 107.413 30.3857 107.417 30.8641C107.421 31.3425 107.417 31.8383 107.417 32.3254H107.43C107.43 32.8125 107.43 33.2996 107.43 33.7867C107.43 34.0042 107.49 34.2216 107.771 34.1955C108.052 34.1694 108.48 34.2434 108.493 33.7954C108.527 32.7603 108.51 31.7165 108.493 30.6727V30.6684ZM107.391 29.6246C107.391 29.9725 107.525 30.1465 107.879 30.103L108.493 30.0247C108.493 30.0247 109.232 29.9769 109.279 29.7725C109.321 29.5342 109.335 29.292 109.322 29.0505C109.322 27.8719 109.322 26.6933 109.322 25.519C109.359 25.1112 109.277 24.7015 109.085 24.3404C108.972 24.1534 109.383 23.6924 109.301 23.2923C109.271 23.1313 108.579 22.4877 107.503 22.5094C107.43 23.0724 107.43 23.6426 107.503 24.2056V24.6405C107.274 26.3062 107.43 27.9676 107.395 29.6289L107.391 29.6246ZM109.119 30.3553C108.804 30.8641 108.73 32.669 109.003 34.1477C109.391 33.3127 109.417 31.1946 109.128 30.3639L109.119 30.3553ZM109.067 62.2213C109.067 60.1729 109.067 58.1245 109.067 56.076C109.067 55.7324 109.214 55.2932 108.609 55.2062C107.676 55.0888 107.538 55.1105 107.27 55.7237C106.955 56.4544 106.67 57.2024 106.35 57.9287C106.228 58.2159 106.168 58.5256 106.173 58.8377C106.134 62.0648 106.086 65.2962 106.056 68.5232C106.056 69.4583 106.056 69.4583 106.972 69.3931C107.404 69.367 107.866 69.3626 108.316 69.3409C109.037 69.3061 109.054 69.3017 109.059 68.558C109.059 66.44 109.059 64.322 109.059 62.2039L109.067 62.2213ZM109.067 70.5499C109.046 70.1802 108.843 70.0889 108.532 70.0802C107.605 70.0234 106.675 70.0819 105.762 70.2542C106.582 70.6922 107.453 71.0267 108.355 71.2501C108.929 71.3589 109.093 71.1458 109.059 70.5586L109.067 70.5499ZM100.763 78.6393C101.044 82.3491 101.481 86.0328 101.887 89.7426C102.09 91.5736 102.319 93.4046 102.483 95.2399C102.526 95.6749 102.664 95.8575 103.109 95.8662C104.769 95.8923 106.428 95.9315 108.082 95.9967C108.648 96.0184 108.804 95.7575 108.808 95.2573C108.808 94.1788 108.851 93.0828 108.86 92.0216C108.923 85.8284 108.984 79.6367 109.042 73.4464C109.042 73.2725 109.042 73.0985 109.042 72.9246C109.042 72.0547 109.08 71.9982 108.177 71.859C107.127 71.6442 106.103 71.3161 105.123 70.8805C105.003 70.853 104.893 70.7899 104.809 70.6994C104.725 70.6088 104.669 70.495 104.65 70.3724C104.63 70.2499 104.647 70.1243 104.699 70.0118C104.751 69.8992 104.836 69.8049 104.941 69.741C105.08 69.6444 105.193 69.514 105.268 69.3619C105.344 69.2099 105.38 69.041 105.373 68.8712C105.43 66.1921 105.503 63.5174 105.568 60.8383C105.593 60.735 105.588 60.6267 105.554 60.5259C105.521 60.4251 105.459 60.3359 105.378 60.2686C104.514 61.9386 103.874 63.6218 103.17 65.2788C102.466 66.9358 101.748 68.5972 101.04 70.2585C100.946 70.4208 100.888 70.6021 100.872 70.7893C100.855 70.9765 100.88 71.1651 100.945 71.3415C101.809 73.5639 101.329 75.6123 100.038 77.6086C100.604 77.7216 100.725 78.1087 100.763 78.6393ZM105.036 54.0928C105 54.0646 104.957 54.0462 104.911 54.0393C104.866 54.0323 104.819 54.0371 104.776 54.0532C104.733 54.0693 104.695 54.0961 104.665 54.1312C104.635 54.1662 104.614 54.2084 104.604 54.2537C104.172 55.2584 103.719 56.2674 103.278 57.2981C103.258 57.3632 103.245 57.4303 103.239 57.4982C103.269 57.5547 103.291 57.6547 103.325 57.6591C103.421 57.6767 103.519 57.6692 103.611 57.6374C103.669 57.6029 103.713 57.549 103.736 57.4851C104.188 56.4819 104.637 55.4773 105.084 54.4712C105.157 54.3364 105.196 54.1841 105.036 54.0972V54.0928ZM100.517 64.9961C101.252 63.3608 101.96 61.7125 102.677 60.0642C102.744 59.906 102.799 59.7432 102.842 59.5771C102.872 59.4596 102.794 59.3857 102.699 59.3335C102.604 59.2813 102.496 59.3335 102.431 59.4161C102.364 59.4946 102.309 59.5825 102.267 59.6771C101.213 61.9212 100.297 64.2219 99.45 66.5792C99.9443 66.161 100.314 65.613 100.517 64.9961ZM95.1597 64.2785C95.4016 65.244 95.6522 66.2095 95.8898 67.1446C96.3219 67.1924 96.3478 66.8923 96.4515 66.7096C96.9484 65.7485 97.2378 64.7003 97.6958 63.7218C97.9118 63.2521 97.5359 62.7867 97.4884 62.3083C97.4279 61.6864 94.261 61.2515 94.4641 61.6342C94.6023 62.1343 94.7276 62.6389 94.8961 63.1347C94.922 63.3521 95.1208 64.148 95.1553 64.2872L95.1597 64.2785ZM88.761 64.0132C88.826 64.0676 88.9034 64.1052 88.9862 64.1227C89.0691 64.1401 89.1549 64.1369 89.2362 64.1132C90.2472 63.7435 91.1934 64.235 92.1699 64.3568C92.5069 64.4003 92.4982 64.6438 92.4852 64.896C92.4593 65.444 92.1007 66.079 92.4464 66.5096C92.7315 66.8706 93.3753 66.8706 93.7987 67.2054C94.0847 67.423 94.439 67.5296 94.7967 67.5055C94.5246 65.8529 94.0666 64.3307 93.6993 62.7867C93.587 62.3127 93.4747 61.843 93.3667 61.3689C93.0729 60.0859 92.4291 59.5945 91.107 59.7467C90.0398 59.8685 88.9727 59.9206 87.9055 59.9424C87.3914 59.9424 87.1235 60.1425 87.171 60.6861C87.1799 60.8309 87.1799 60.9762 87.171 61.121C87.0803 63.039 87.0803 63.0346 88.7567 64.0132H88.761ZM80.9408 61.4689C82.0395 61.41 83.1412 61.5007 84.2158 61.7386C84.6781 61.8473 84.8638 61.7081 84.8552 61.2471C84.8552 61.0384 84.8552 60.8122 84.8552 60.6252C84.8552 60.2642 84.6997 60.1251 84.3583 60.1512L82.1981 60.3077C81.3488 60.3078 80.5008 60.3746 79.6619 60.5078C80.0767 61.495 80.0767 61.5037 80.9365 61.4689H80.9408ZM74.2051 22.0658C73.9026 22.0658 73.6391 22.1441 73.665 22.5007C73.6909 22.8573 74.0063 22.7443 74.1489 22.7921C74.4686 22.7921 74.7063 22.7704 74.6976 22.4137C74.689 22.0571 74.4514 22.0702 74.1965 22.0702L74.2051 22.0658ZM81.6191 24.9319C80.7205 24.684 79.8175 24.4535 78.9058 24.2665C77.9553 24.1065 77.0503 23.7416 76.253 23.1966C75.6742 24.472 75.3484 25.8489 75.2939 27.25C74.9353 34.0216 74.5075 40.7888 74.11 47.5561C74.0798 48.0693 73.9372 48.6129 74.5421 48.9304C74.5786 48.9627 74.6074 49.0031 74.6261 49.0483C74.6448 49.0935 74.653 49.1424 74.6501 49.1913C74.5335 50.4221 74.9137 51.5964 75.039 52.7968C75.1124 53.4926 75.1772 54.1885 74.6069 54.8409C76.05 55.4367 76.9875 56.4892 77.8084 57.6634C77.8995 57.8055 78.0297 57.9178 78.1832 57.9866C78.3367 58.0553 78.5067 58.0775 78.6725 58.0505C80.5649 57.9114 82.4616 57.7591 84.3583 57.6547C84.9762 57.62 84.9805 57.2198 85.0064 56.8067C85.1144 54.8278 85.2009 52.849 85.3218 50.8701C85.6099 46.1151 85.9152 41.3615 86.2378 36.6093C86.3933 34.2521 86.5618 31.8905 86.713 29.5333C86.8064 28.8464 86.7353 28.1471 86.5056 27.4935C86.3893 27.0572 86.3412 26.6052 86.3631 26.154C86.3026 25.2842 86.2982 25.1972 85.3866 25.3233C84.1149 25.4601 82.8288 25.3282 81.6105 24.9362L81.6191 24.9319ZM115.406 19.3824C114.58 19.1301 113.751 18.8909 112.921 18.6604C109.694 17.7515 106.462 16.8816 103.239 16.0118L85.6156 11.1103C85.3175 11.0277 85.0107 10.9668 84.7083 10.8885C84.2762 10.7798 83.9608 10.8233 83.7708 11.2713C83.6662 11.4549 83.6318 11.6706 83.674 11.878C83.7161 12.0853 83.832 12.2701 83.9997 12.3977C84.1337 12.5064 84.2849 12.5934 84.4318 12.7065C85.0386 13.1581 85.4442 13.8323 85.5606 14.5829C85.6771 15.3334 85.4951 16.1 85.054 16.7164C84.4923 17.5862 84.6781 18.53 84.6824 19.4433C84.6824 19.9608 88.3807 21.2569 89.435 21.3873C89.6639 21.4178 89.7504 21.5961 89.8411 21.8223C90.1086 22.4684 90.1778 23.1803 90.0398 23.8663C89.8713 24.9667 89.8713 26.1279 89.4868 27.1456C88.5406 29.6507 88.8517 32.2689 88.6227 34.8262C88.1906 39.9886 88.0222 45.1684 87.6981 50.3395C87.5685 52.4184 87.3698 54.4973 87.3136 56.5849C87.2877 57.5112 87.3136 57.5678 88.2252 57.4112C90.8564 56.9502 93.371 57.5939 95.8941 58.1636C96.3262 58.268 96.6589 58.6942 97.1903 58.642C97.4625 58.6159 97.4409 58.9812 97.4712 59.2248C97.6461 60.2358 97.8769 61.2362 98.1624 62.2213C98.5945 62.117 98.5945 61.7864 98.6895 61.5472C100.755 56.7835 102.804 52.0284 104.838 47.2821C105.044 46.8426 105.153 46.3633 105.157 45.8773C105.157 43.5462 105.157 41.215 105.157 38.8882C105.157 38.075 105.157 38.0706 104.354 37.8358C103.991 37.727 103.628 37.6139 103.256 37.527C102.742 37.4095 102.332 37.2225 102.44 36.5658C102.449 36.5145 102.447 36.4617 102.433 36.4113C102.42 36.3609 102.396 36.3142 102.362 36.2744C101.593 35.7656 101.874 35.1175 102.068 34.4478C102.124 34.1394 102.138 33.825 102.111 33.5127C102.155 30.1755 102.195 26.8412 102.232 23.5097C102.232 22.6399 102.232 22.666 103.066 22.5877L105.127 22.3876C105.369 22.3659 105.633 22.3876 105.702 22.0658C105.745 21.932 105.744 21.788 105.701 21.6544C105.657 21.5208 105.573 21.4044 105.46 21.3221C105.291 21.2003 105.118 21.0872 104.959 20.9481C104.812 20.8529 104.695 20.7188 104.62 20.5605C104.545 20.4023 104.515 20.2261 104.533 20.0517C104.551 19.8772 104.617 19.7113 104.724 19.5725C104.83 19.4336 104.973 19.3271 105.136 19.265C105.502 19.0726 105.898 18.9418 106.307 18.8779C109.137 18.4691 111.889 18.6169 114.421 20.1565C114.628 20.2827 114.853 20.4088 115.051 20.5132C115.337 20.6523 115.661 21.0046 115.915 20.5523C116.144 20.2218 115.786 19.4911 115.406 19.3824ZM87.5555 25.4407C87.5555 25.8756 87.8969 25.7582 88.1259 25.7887C88.3548 25.8191 88.6141 25.7278 88.6054 25.3972C88.6054 24.9623 88.29 25.0319 88.0265 25.0319C87.7629 25.0319 87.5555 25.145 87.5555 25.4407ZM116.404 37.1834C116.404 37.5009 116.585 37.6183 116.87 37.5835C117.155 37.5487 117.419 37.5357 117.691 37.5183C117.769 37.5286 117.849 37.5199 117.923 37.4927C117.996 37.4656 118.063 37.4208 118.116 37.3623C118.169 37.3038 118.207 37.2332 118.227 37.1566C118.247 37.08 118.249 36.9997 118.231 36.9224C118.205 36.4875 117.933 36.5267 117.652 36.5354H117.35C117.242 36.5354 117.035 36.5354 116.827 36.5745C116.447 36.6267 116.391 36.8876 116.395 37.1834H116.404ZM117.449 32.1906C117.37 32.302 117.307 32.4234 117.259 32.5516C117.173 32.8038 116.961 33.0213 117.039 33.3214C118.128 33.4257 118.335 33.2779 118.21 32.4211C118.21 32.2515 118.188 32.0645 117.985 31.9862C117.886 31.9485 117.777 31.9485 117.679 31.9861C117.58 32.0238 117.498 32.0965 117.449 32.1906ZM117.838 31.6687C117.838 31.6991 117.968 31.7165 118.015 31.6948C118.331 31.5252 118.188 31.2381 118.249 30.8771C117.799 31.0946 117.683 31.3295 117.838 31.6687ZM119.674 41.6238C119.527 40.367 119.527 40.367 118.257 40.4583C118.05 40.4583 117.825 40.4583 117.635 40.4931C117.327 40.4881 117.019 40.5306 116.723 40.6192C116.421 40.754 116.624 41.1194 116.564 41.3759C116.503 41.6325 116.352 41.7326 116.132 41.676C115.911 41.6195 115.548 41.4934 115.211 41.389C115.088 41.6048 115.038 41.8552 115.069 42.1023C115.069 45.612 115.103 49.1261 115.069 52.6358C115.042 52.8837 115.102 53.1332 115.238 53.3412C115.375 53.5493 115.579 53.7028 115.816 53.7753C115.977 53.8346 116.133 53.9059 116.283 53.9884C116.35 54.0368 116.402 54.1034 116.432 54.1805C116.463 54.2575 116.471 54.3418 116.456 54.4233C116.417 54.6278 116.252 54.6625 116.075 54.706C115.777 54.7713 115.41 54.606 115.19 54.8626C114.969 55.1192 115.082 55.5976 115.082 55.9716C115.082 60.4222 115.096 64.8714 115.125 69.3191C115.125 70.2368 114.965 70.389 116.028 70.6239C116.261 70.6717 116.529 70.7543 116.52 71.0588C116.52 71.4589 116.179 71.4111 115.911 71.4589C115.151 71.5894 115.142 71.5937 115.142 72.3548C115.142 79.7599 115.155 87.1651 115.181 94.5702C115.181 95.54 115.181 95.5487 116.153 95.5531C119.033 95.5531 121.899 95.5531 124.751 95.5531C125.641 95.5531 125.615 95.5531 125.663 94.605C125.758 92.7175 125.447 90.8604 125.231 88.9989C124.729 84.4758 124.22 79.9528 123.675 75.434C122.897 68.9842 122.271 62.5171 121.437 56.076C120.824 51.2746 120.258 46.4557 119.67 41.6152L119.674 41.6238ZM123.191 40.841C123.131 40.5801 123.191 40.0973 122.729 40.1799C122.362 40.2495 122.548 40.6496 122.573 40.8932C122.733 42.3762 122.915 43.855 123.092 45.338C123.135 45.7164 123.183 46.0948 123.23 46.4731C123.355 47.4865 123.394 47.5213 124.617 47.6561C124.362 46.4514 124.116 45.2728 123.87 44.0985C123.641 43.0025 123.416 41.9109 123.187 40.8323L123.191 40.841ZM160.849 24.8536L153.66 22.8921C152.908 22.6877 152.904 22.6921 152.618 23.414C152.333 24.136 152.065 24.8406 151.806 25.5582C151.547 26.2758 151.543 26.3062 152.32 26.528C154.342 27.1021 156.369 27.6675 158.395 28.2416C158.862 28.372 159.324 28.5069 159.786 28.6417C160.123 28.7417 160.382 28.7113 160.525 28.3199C160.897 27.2804 161.29 26.2497 161.661 25.245C161.437 25.0341 161.153 24.8975 160.849 24.8536ZM172.35 26.6672C172.303 26.6451 172.249 26.6418 172.199 26.6579C172.15 26.6741 172.108 26.7084 172.082 26.7542C171.971 26.9323 171.878 27.1218 171.806 27.3196C171.112 29.2709 170.422 31.2236 169.736 33.1778C169.68 33.3388 169.637 33.5084 169.589 33.6649C169.589 33.8128 169.589 33.9781 169.78 33.9911C169.827 33.9853 169.872 33.969 169.913 33.9434C169.953 33.9179 169.987 33.8837 170.013 33.8433C170.075 33.7196 170.124 33.5899 170.16 33.4562C170.886 31.444 171.606 29.4303 172.32 27.4152C172.378 27.2528 172.427 27.0873 172.467 26.9194C172.483 26.8703 172.479 26.817 172.458 26.7702C172.436 26.7235 172.398 26.6866 172.35 26.6672ZM172.203 40.2234C171.382 40.4713 170.527 40.6148 169.693 40.8106C168.859 41.0063 168.829 41.0193 168.829 41.8978C168.829 42.037 168.829 42.1762 168.829 42.3328C168.937 43.7462 169.058 45.1945 169.153 46.6471C169.183 47.1125 169.283 47.4256 169.818 47.5169C170.354 47.6083 170.773 47.7561 171.192 47.2168C172.35 45.7527 173.398 44.2046 174.329 42.585C174.653 42.0109 174.977 41.4412 175.293 40.8671C175.444 40.5931 175.375 40.3713 175.064 40.3365C174.113 40.2365 173.184 39.932 172.203 40.2234ZM179.548 24.2056C179.527 22.6094 179.47 21.009 179.479 19.4215C179.479 18.8735 179.207 18.6952 178.762 18.5952C178.317 18.4952 177.898 18.2212 177.487 18.7909C176.749 19.839 175.932 20.8263 175.15 21.8353C175.007 22.0223 174.839 22.1919 175.094 22.4529C175.798 23.1835 178.261 24.5318 179.414 24.7797C179.583 24.6318 179.535 24.41 179.531 24.2099L179.548 24.2056ZM179.077 29.3245C179.151 28.8896 179.077 28.6591 178.602 28.6025C178.127 28.546 177.785 28.459 177.379 28.3894C176.973 28.3199 176.809 28.5069 176.684 28.8461C176.015 30.6321 175.341 32.4153 174.662 34.1955C174.515 34.5783 174.662 34.774 175.025 34.9001C175.673 35.1306 176.321 35.3741 176.956 35.6351C177.345 35.796 177.509 35.6655 177.634 35.2872C178.251 33.3382 178.728 31.3469 179.06 29.3289L179.077 29.3245ZM178.001 85.4283C177.746 84.737 177.735 83.9781 177.971 83.2798C178.091 82.8797 178.142 82.462 178.122 82.0447C178.023 75.8907 177.833 69.7366 177.842 63.5783C177.842 63.0433 177.95 63.0477 177.155 63.0346C176.882 63.0346 176.77 62.7737 176.766 62.504C176.762 62.2344 176.541 57.0546 176.917 56.6588C177.397 56.1543 177.526 55.9934 177.539 55.5367C177.574 54.1233 177.906 52.7402 177.915 51.3181C177.915 48.813 178.006 46.3122 177.915 43.8071C177.915 43.5375 177.868 43.2678 177.837 42.9938C177.453 42.9938 177.431 43.2852 177.323 43.4679C175.163 47.2995 172.311 50.6092 169.248 53.7362C168.781 54.1997 168.273 54.6203 167.732 54.9931C166.893 55.5889 166.751 51.1832 166.747 50.9092C166.716 46.8732 166.677 42.8416 166.66 38.8056C166.705 38.1841 166.527 37.567 166.159 37.066C165.429 36.1657 165.191 35.0088 164.699 33.9868C164.599 33.7589 164.448 33.558 164.256 33.4007C164.065 33.2435 163.839 33.1343 163.597 33.0822C159.16 31.8209 154.731 30.5292 150.294 29.268C142.727 27.1166 135.158 24.9725 127.585 22.8356C127.314 22.7814 127.048 22.7043 126.79 22.6051C125.87 22.1702 125.239 22.853 124.716 23.3184C124.284 23.688 124.319 24.4883 124.31 25.1015C124.28 27.363 124.198 29.6289 124.366 31.8774C124.492 33.5475 124.98 35.1871 125.313 36.8442C125.524 37.901 125.745 38.9491 125.961 40.0103C126.086 40.6844 126.393 41.3151 126.484 41.9892C126.846 44.1637 127.309 46.3079 127.78 48.4607C128.773 53.1838 129.724 57.92 130.748 62.6345C131.18 64.5438 131.508 66.4704 131.936 68.3754C132.364 70.2803 132.753 72.2504 133.176 74.1858C133.599 76.1212 134.04 77.9826 134.433 79.8875C134.826 81.7924 135.215 83.7713 135.673 85.6979C136.105 87.4376 136.282 89.2381 136.801 90.9473C137.203 92.2521 137.665 93.5568 138.028 94.9051C138.217 95.7865 138.307 96.6867 138.296 97.5885C138.339 98.4583 138.136 99.3281 138.482 100.163C138.603 100.402 138.749 100.385 138.914 100.207L140.37 100.315C140.547 100.602 140.754 100.585 140.983 100.381L142.651 100.511C142.781 100.789 143.048 100.759 143.277 100.772C145.511 100.889 147.741 101.076 149.966 101.237C153.236 101.477 156.503 101.32 159.769 101.394H160.287C161.583 101.394 161.795 101.124 161.614 99.7413C161.702 99.4971 161.872 99.291 162.094 99.158C162.316 99.0249 162.577 98.9728 162.832 99.0106C164.072 99.0106 165.312 99.0106 166.548 98.9672C167.503 98.9672 167.572 98.9671 167.65 98.0277C167.701 97.4102 168.185 97.4145 168.514 97.2188C168.514 96.8056 168.181 96.6534 168.008 96.4099C167.716 96.0198 167.532 95.5589 167.474 95.074C167.416 94.589 167.487 94.0973 167.679 93.6489C167.872 93.2004 168.178 92.8112 168.569 92.5208C168.959 92.2304 169.418 92.0491 169.9 91.9955C170.302 91.939 170.765 92.0955 171.071 91.7215C171.732 90.8517 172.674 90.8212 173.612 90.7255C173.992 90.6864 174.385 90.7255 174.428 91.1605C174.506 91.8911 174.977 91.8389 175.47 91.8172C175.634 91.8172 175.807 91.7258 175.958 91.8694C176.04 92.3826 175.599 92.6479 175.405 93.0306C175.301 93.2393 175.064 93.4655 175.28 93.6786C175.496 93.8917 175.785 94.2005 176.144 94.0787C176.431 93.9669 176.727 93.881 177.029 93.8221C177.215 93.796 177.366 93.7351 177.258 93.4916C177.215 93.4151 177.195 93.3277 177.199 93.2399C177.204 93.152 177.233 93.0673 177.284 92.9958C177.716 92.5 177.621 91.1344 177.444 90.9169C177.267 90.6994 177.483 89.2164 178.079 88.3335C178.188 88.1565 178.241 87.9501 178.23 87.742C178.288 86.9705 178.203 86.1949 177.98 85.4544L178.001 85.4283ZM181.41 97.4623C181.462 97.459 181.51 97.436 181.546 97.3981C181.581 97.3601 181.601 97.31 181.6 97.2579C181.607 97.2241 181.606 97.1891 181.597 97.1558C181.588 97.1224 181.572 97.0916 181.55 97.0655C181.527 97.0395 181.499 97.019 181.467 97.0056C181.436 96.9922 181.401 96.9863 181.367 96.9883C181.342 96.9846 181.316 96.9864 181.291 96.9936C181.266 97.0008 181.243 97.0133 181.223 97.0302C181.204 97.0471 181.188 97.068 181.177 97.0915C181.166 97.115 181.16 97.1406 181.16 97.1666C181.161 97.2367 181.184 97.3047 181.225 97.3615C181.266 97.4182 181.323 97.461 181.389 97.4841L181.41 97.4623ZM181.454 87.6072C180.914 87.5028 180.378 87.3767 179.838 87.268C179.38 87.1723 179.051 87.355 179.06 87.8334C179.06 88.5292 178.995 89.2512 179.574 89.8383C179.742 90.0369 179.857 90.2752 179.909 90.5308C179.96 90.7864 179.946 91.0509 179.868 91.2996C179.674 92.1042 180.101 92.8523 179.976 93.6351C179.976 93.7699 180.093 93.8874 180.235 93.9178C180.378 93.9482 180.581 93.9439 180.745 93.9917C181.341 94.157 181.566 94.3397 181.579 94.7398C181.721 93.9091 182.011 93.0784 181.423 92.2564C181.346 92.1477 181.423 92.0738 181.449 91.9824C182.015 90.7647 181.881 89.4599 181.942 88.1726C181.946 88.1033 181.936 88.0338 181.912 87.9685C181.889 87.9032 181.852 87.8435 181.805 87.793C181.758 87.7424 181.7 87.7022 181.637 87.6747C181.574 87.6473 181.505 87.6332 181.436 87.6333L181.454 87.6072ZM188.513 72.8593C188.375 72.8593 188.237 72.8593 188.081 72.8593C186.975 72.681 186.353 73.3682 185.813 74.1641C185.771 74.2189 185.748 74.2862 185.748 74.3554C185.748 74.4247 185.771 74.492 185.813 74.5468C185.917 74.6903 186.059 74.6338 186.185 74.5859C187.014 74.2554 187.766 73.7422 188.63 73.4943C188.794 73.4464 188.967 73.3682 188.958 73.1551C188.932 72.8854 188.699 72.8941 188.492 72.8811L188.513 72.8593ZM259.647 36.8876C259.468 35.6571 259.21 34.4396 258.873 33.2431C258.866 33.157 258.839 33.0737 258.794 33.0002C258.749 32.9267 258.687 32.8649 258.614 32.82C258.541 32.775 258.458 32.7482 258.372 32.7416C258.287 32.735 258.201 32.7489 258.121 32.7821C257.711 32.8777 257.279 32.9517 257.318 33.5258C257.357 34.0998 257.408 34.6957 257.46 35.2654C257.506 35.7815 257.557 36.2962 257.612 36.8094C257.707 37.6792 257.741 37.7227 258.623 37.6792C258.761 37.6792 258.899 37.6792 259.055 37.6574C259.621 37.6357 259.729 37.5226 259.647 36.8876ZM256.38 43.9289C256.956 44.9959 257.542 46.0571 258.139 47.1125C258.214 47.2317 258.327 47.3217 258.46 47.3675C258.592 47.4133 258.737 47.4124 258.869 47.3647C259.004 47.3331 259.126 47.2593 259.216 47.1538C259.307 47.0483 259.362 46.9166 259.374 46.7776C259.659 45.5242 259.833 44.2478 259.893 42.9634C259.893 42.5807 259.94 42.2023 259.932 41.8196C259.937 41.7654 259.931 41.7107 259.912 41.6595C259.894 41.6083 259.864 41.5619 259.826 41.5239C259.787 41.4858 259.741 41.457 259.689 41.4397C259.638 41.4224 259.584 41.4169 259.53 41.4238C259.093 41.4887 258.672 41.6363 258.29 41.8587C257.698 42.2936 257.145 42.7285 256.562 43.1982C256.501 43.2344 256.447 43.2826 256.405 43.3398C256.363 43.3971 256.332 43.4623 256.315 43.5316C256.298 43.6009 256.295 43.6729 256.307 43.7434C256.318 43.8138 256.343 43.8814 256.38 43.9419V43.9289ZM256.734 30.0117C256.873 30.0117 257.011 30.0117 257.167 30.0117C257.517 30.0117 257.702 29.8116 257.547 29.4724C257.089 28.4677 256.609 27.4718 256.13 26.4758C256.07 26.349 255.968 26.2467 255.843 26.1865C255.717 26.1263 255.574 26.1117 255.438 26.1453C255.274 26.1375 255.112 26.1929 254.986 26.3002C254.86 26.4075 254.779 26.5589 254.76 26.7237C254.613 27.5066 254.462 28.2851 254.328 29.0679C254.306 29.1337 254.298 29.2036 254.306 29.2727C254.314 29.3417 254.336 29.4082 254.373 29.4673C254.409 29.5264 254.458 29.5766 254.516 29.6143C254.574 29.652 254.64 29.6763 254.708 29.6855C255.367 29.878 256.045 29.9948 256.73 30.0334L256.734 30.0117ZM254.328 38.3272C254.34 38.3778 254.37 38.4223 254.412 38.4526C254.454 38.4829 254.505 38.4971 254.557 38.4925C254.607 38.481 254.652 38.451 254.681 38.4084C254.711 38.3657 254.723 38.3135 254.717 38.262C254.648 36.7398 254.44 35.2176 254.259 33.7215C254.259 33.5562 254.19 33.3562 253.974 33.3692C253.758 33.3822 253.775 33.5649 253.788 33.6954C253.961 35.2393 254.064 36.7963 254.328 38.3272ZM241.09 36.718C241.133 37.1921 241.194 37.5879 241.202 38.0228C241.202 38.5969 241.518 38.7143 242.014 38.6447C243.548 38.4229 245.078 38.2098 246.616 38.0054C246.71 38.0105 246.805 37.9932 246.891 37.9547C246.978 37.9162 247.054 37.8577 247.114 37.784C247.173 37.7102 247.215 37.6233 247.235 37.5302C247.255 37.4372 247.253 37.3407 247.229 37.2486C247.039 34.8392 247.147 35.1784 245.229 35.4611C244.071 35.6307 242.917 35.8091 241.772 35.9656C241.271 36.0178 241.012 36.244 241.107 36.718H241.09ZM226.828 96.0358C226.828 96.6273 226.936 97.1623 227.718 97.1449C228.15 97.1449 228.033 97.7494 228.534 97.8146C228.724 96.8749 228.795 95.9149 228.746 94.9573C228.743 94.8963 228.728 94.8366 228.701 94.7816C228.675 94.7267 228.638 94.6775 228.592 94.6371C228.547 94.5966 228.494 94.5656 228.437 94.5459C228.379 94.5262 228.318 94.5182 228.258 94.5223C227.568 94.4165 226.866 94.4165 226.175 94.5223C226.504 95.079 226.832 95.4835 226.828 96.0358ZM206.638 76.9214C206.966 76.8953 207.07 76.5996 207.152 76.3647C207.684 75.1209 208.193 73.864 208.703 72.6114C208.769 72.4519 208.81 72.2832 208.824 72.1113C208.82 72.0625 208.805 72.0152 208.781 71.9725C208.757 71.9297 208.725 71.8926 208.686 71.8634C208.664 71.8489 208.639 71.839 208.613 71.8342C208.587 71.8295 208.561 71.8299 208.535 71.8356C208.509 71.8412 208.485 71.852 208.463 71.8672C208.442 71.8824 208.423 71.9018 208.409 71.9242C208.3 72.0563 208.208 72.2026 208.137 72.3592C207.599 73.7161 207.067 75.0745 206.543 76.4343C206.494 76.5123 206.476 76.6063 206.494 76.6969C206.512 76.7875 206.563 76.8679 206.638 76.9214ZM190.63 73.1029C190.616 73.1903 190.636 73.2798 190.686 73.3527C190.736 73.4257 190.812 73.4764 190.898 73.4943C191.901 73.7291 192.812 74.2815 193.949 73.5726C194.713 73.0942 195.763 73.403 196.653 73.7335C196.748 73.7683 196.826 73.8509 196.917 73.8944C198.157 74.4772 198.416 74.2945 198.368 72.9333C198.368 72.4287 198.148 72.2461 197.673 72.2896C197.198 72.3331 196.64 72.3679 196.126 72.4027L191.685 72.681C191.444 72.6947 191.204 72.7238 190.967 72.768C190.881 72.7747 190.799 72.8119 190.736 72.8731C190.674 72.9343 190.635 73.0156 190.626 73.1029H190.63ZM191.248 56.6544C191.202 56.634 191.15 56.6297 191.1 56.6423C191.051 56.6549 191.007 56.6837 190.976 56.724C190.816 56.9154 190.976 57.0241 191.097 57.1285C191.218 57.2329 191.317 57.2198 191.386 57.0676C191.456 56.9154 191.447 56.7327 191.248 56.6544ZM192.83 57.4242C192.715 57.3878 192.592 57.3936 192.482 57.4407C192.372 57.4878 192.282 57.5729 192.229 57.6808C191.964 58.0909 191.814 58.566 191.797 59.0552C191.529 62.2445 191.254 65.4339 190.972 68.6233C190.929 69.1452 190.855 69.6627 190.825 70.1803C190.777 70.9544 190.825 71.0066 191.615 71.0109H192.134V70.9848C193.962 70.85 195.789 70.7239 197.612 70.5847C198.476 70.5151 198.52 70.5064 198.606 69.6018C198.904 66.5183 199.172 63.4347 199.47 60.3556C199.531 59.7423 199.284 59.1943 199.194 58.6159C199.146 58.3158 198.887 58.268 198.632 58.2723C196.669 58.25 194.718 57.9648 192.83 57.4242ZM210.626 45.7729C210.312 45.6497 209.963 45.6497 209.649 45.7729C209.07 45.8599 208.491 45.5946 207.921 45.7729L206.694 45.9469C206.603 45.8425 206.521 45.8469 206.456 45.973L205.242 46.1513C205.147 46.0469 205.068 46.0571 205.005 46.1817L203.791 46.3601C203.7 46.2557 203.618 46.2644 203.557 46.3905L202.343 46.5688C202.248 46.4644 202.171 46.4775 202.106 46.5993L200.887 46.7819C200.795 46.6804 200.717 46.6906 200.654 46.8124L199.44 46.9863C199.345 46.882 199.263 46.8906 199.202 47.0168L198.183 47.1733C198.152 47.145 198.116 47.1236 198.077 47.1107C198.037 47.0978 197.996 47.0937 197.955 47.0987C197.914 47.1036 197.874 47.1175 197.839 47.1395C197.804 47.1614 197.773 47.1907 197.751 47.2255L196.524 47.3995C196.424 47.2995 196.346 47.3125 196.29 47.443C195.971 47.5387 195.716 47.6952 195.763 48.091C195.779 48.2481 195.845 48.3956 195.952 48.5111C196.059 48.6265 196.201 48.7035 196.355 48.7303C196.967 48.8715 197.5 49.2496 197.837 49.7828L198.049 51.5225C197.931 51.8651 197.757 52.1856 197.535 52.4706C197.301 52.6402 197.319 52.8142 197.535 52.9881L197.669 53.5622C197.608 54.0406 197.984 54.3842 198.062 54.8235C198.018 55.2845 198.062 55.6933 198.554 55.9151C199.051 56.2413 199.621 55.7455 200.123 56.0543C200.456 56.3072 200.849 56.4676 201.263 56.5196C201.455 56.8997 201.565 57.316 201.587 57.7417L201.445 58.2941C201.416 58.3055 201.39 58.3239 201.37 58.3476C201.35 58.3713 201.336 58.3996 201.329 58.43C201.322 58.4605 201.323 58.4922 201.331 58.5223C201.339 58.5524 201.354 58.5801 201.376 58.6029L201.259 59.1378C201.196 59.1698 201.146 59.2216 201.115 59.2852C201.085 59.3489 201.076 59.4209 201.09 59.4901C200.936 59.8351 200.852 60.2078 200.844 60.5861C200.655 61.0945 200.614 61.6469 200.727 62.1778L200.624 63.0477C200.459 63.4184 200.429 63.8353 200.537 64.2263L200.421 65.5658C200.344 65.6749 200.298 65.8027 200.287 65.9358C200.277 66.069 200.302 66.2026 200.36 66.3226L200.222 68.0622C200.143 68.176 200.096 68.3085 200.083 68.4466C200.071 68.5846 200.095 68.7235 200.153 68.8494C200.153 69.3104 199.997 69.7714 200.153 70.2281L200.218 70.2629C200.16 70.5018 200.138 70.7481 200.153 70.9935C200.092 71.3784 200.036 71.7641 199.984 72.1504C199.859 72.1504 199.812 72.233 199.855 72.4027L199.777 73.042C199.658 73.2936 199.611 73.574 199.643 73.8509C199.643 74.9512 199.423 75.26 200.827 75.3818C201.035 75.3797 201.238 75.4437 201.408 75.5648C201.578 75.6858 201.706 75.8577 201.773 76.0559V76.9258C201.738 77.0867 201.812 77.1258 201.955 77.0823L202.935 77.6042C202.954 77.6427 202.981 77.6764 203.014 77.703C203.047 77.7296 203.086 77.7484 203.128 77.758C203.169 77.7676 203.212 77.7677 203.253 77.7584C203.295 77.7491 203.334 77.7306 203.367 77.7042C203.519 77.6173 205.229 75.7123 205.307 74.7947C205.515 74.5413 205.662 74.2439 205.739 73.9249C205.832 73.9003 205.913 73.8428 205.967 73.7628C206.021 73.6829 206.045 73.5859 206.033 73.4899L206.297 72.8463C206.367 72.8147 206.423 72.7567 206.452 72.6844C206.481 72.6122 206.481 72.5314 206.452 72.4592L207.156 70.6978C207.299 70.6456 207.316 70.5456 207.264 70.4194L207.571 69.6844C207.602 69.6716 207.63 69.6527 207.654 69.6289C207.677 69.605 207.696 69.5766 207.708 69.5454C207.721 69.5142 207.727 69.4808 207.726 69.4472C207.726 69.4135 207.719 69.3803 207.705 69.3496L207.99 68.6711C208.056 68.639 208.107 68.583 208.134 68.5144C208.16 68.4459 208.16 68.3698 208.133 68.3014L208.409 67.6447C208.523 67.5452 208.611 67.4198 208.666 67.2792C208.722 67.1385 208.744 66.9865 208.729 66.8358C209.161 65.7746 209.593 64.7047 210.025 63.6479C210.358 62.8433 210.708 62.0517 210.609 61.1428C210.574 60.8166 210.609 60.5121 211.066 60.486C211.308 60.486 211.386 60.2425 211.464 60.0511C211.762 59.3161 212.06 58.5768 212.328 57.8374C212.471 57.4677 212.363 57.2329 211.931 57.1981C211.581 57.1676 211.295 56.711 210.885 57.0372C210.846 57.0676 210.717 57.0372 210.708 57.0372C210.397 56.3587 209.667 56.4544 209.135 56.1934C208.955 56.0975 208.798 55.9622 208.676 55.7974C208.554 55.6326 208.47 55.4425 208.431 55.241V55.154H208.375C208.28 55.0076 208.22 54.8407 208.202 54.6669C208.183 54.493 208.205 54.3172 208.267 54.1537L208.82 54.1276C209.2 54.432 209.416 53.9754 209.714 53.9232C209.973 53.9884 210.228 54.1233 210.492 53.9232L210.639 53.8319C210.82 53.871 211.002 53.9101 211.149 53.7405C211.332 52.9127 211.332 52.0546 211.149 51.2267C211.357 50.7883 211.448 50.3024 211.412 49.8176C211.412 48.6433 211.412 47.4691 211.412 46.2948C211.425 45.6511 211.404 45.6381 210.626 45.7686V45.7729ZM200.032 58.2984C199.989 58.5159 200.144 58.5985 200.317 58.6464C200.36 58.6538 200.403 58.6528 200.445 58.6433C200.488 58.6338 200.527 58.616 200.563 58.591C200.598 58.5659 200.628 58.5341 200.651 58.4973C200.674 58.4606 200.69 58.4196 200.697 58.3767C200.732 58.1723 200.602 58.0549 200.408 58.0331C200.366 58.0237 200.322 58.023 200.28 58.0312C200.237 58.0394 200.197 58.0562 200.161 58.0807C200.126 58.1052 200.096 58.1367 200.073 58.1734C200.05 58.2101 200.034 58.2512 200.028 58.2941L200.032 58.2984ZM209.191 70.6282C209.941 69.6502 210.384 68.4688 210.462 67.2359C209.641 68.4754 209.096 69.9845 209.187 70.6239L209.191 70.6282ZM210.876 65.8703C210.876 66.0703 210.941 66.3052 211.136 66.2356C211.499 66.1095 211.568 65.7398 211.568 65.4006C211.568 65.2657 211.499 65.1092 211.334 65.1309C210.889 65.1874 210.915 65.5702 210.872 65.8659L210.876 65.8703ZM211.922 63.1694C211.862 63.2934 211.82 63.4252 211.797 63.5609C211.794 63.6093 211.803 63.6576 211.82 63.7027C211.838 63.7477 211.866 63.7883 211.9 63.8218C211.945 63.8493 211.999 63.8578 212.05 63.8456C212.101 63.8334 212.145 63.8014 212.173 63.7566C212.252 63.6434 212.317 63.5207 212.367 63.3913C212.972 61.8401 213.572 60.2874 214.169 58.7333C214.207 58.6665 214.226 58.5898 214.222 58.5127C214.218 58.4355 214.192 58.3611 214.147 58.2984C213.832 58.3202 213.788 58.555 213.715 58.7333C213.106 60.2033 212.514 61.6777 211.918 63.1651L211.922 63.1694ZM212.851 56.2369C212.816 55.9629 212.579 55.9934 212.384 55.9803C212.19 55.9673 211.995 55.9803 212.065 56.2456C212.134 56.5109 212.35 56.5153 212.553 56.537C212.594 56.546 212.636 56.5445 212.677 56.5326C212.717 56.5207 212.754 56.4988 212.783 56.4689C212.813 56.439 212.835 56.4021 212.846 56.3616C212.858 56.3211 212.86 56.2782 212.851 56.2369ZM215.685 45.151C215.568 44.8553 211.922 45.5424 211.887 45.9121C211.882 46.1402 211.893 46.3685 211.922 46.5949C211.891 46.6562 211.875 46.724 211.875 46.7928C211.875 46.8616 211.891 46.9294 211.922 46.9907C211.751 48.2483 211.74 49.5229 211.892 50.7831L211.918 51.1789C211.719 51.853 211.853 52.5358 211.836 53.2186C211.836 53.6535 212.099 53.7188 212.44 53.7014C212.827 53.7821 213.226 53.7895 213.616 53.7231C213.944 53.871 213.992 53.6014 214.112 53.4056C214.588 52.6402 216.139 47.9214 216.087 47.6604C216.165 47.2255 216.247 46.7906 216.312 46.3296C216.376 46.0898 216.347 45.8342 216.231 45.6151C216.114 45.396 215.919 45.23 215.685 45.151ZM217.845 55.8716C217.845 56.2587 218.178 56.2195 218.442 56.2369C218.705 56.2543 219.038 56.2369 218.995 55.802C218.964 55.4932 218.71 55.4584 218.459 55.4758C218.208 55.4932 217.858 55.4976 217.85 55.8629L217.845 55.8716ZM218.921 51.8617C218.865 52.2183 218.442 52.3488 218.36 52.6924C218.321 52.8533 218.208 53.0229 218.39 53.1534C218.479 53.1991 218.58 53.2158 218.679 53.2012C218.722 53.2024 218.765 53.1948 218.805 53.1789C218.845 53.1629 218.881 53.1389 218.911 53.1084C218.941 53.0778 218.965 53.0414 218.981 53.0013C218.997 52.9612 219.005 52.9182 219.003 52.8751C219.008 52.5445 218.96 52.1922 218.926 51.853L218.921 51.8617ZM221.427 71.5154L221.047 67.9839C221.168 67.8796 221.159 67.7882 221.012 67.7186L220.926 66.9271C220.979 66.7848 220.998 66.6319 220.982 66.4807C220.965 66.3296 220.914 66.1845 220.831 66.0573L220.498 63.0129C220.556 62.8955 220.578 62.7637 220.562 62.6339C220.545 62.504 220.492 62.3818 220.407 62.2822L220.291 61.3428C220.347 61.2248 220.369 61.0934 220.354 60.9635C220.34 60.8336 220.289 60.7104 220.209 60.6078L220.101 59.6727C220.101 59.1726 220.382 58.5942 219.729 58.268H219.155C218.974 58.1937 218.778 58.169 218.585 58.1966C218.392 58.2241 218.21 58.3028 218.057 58.4245L217.902 58.9508L217.47 59.09C217.38 59.0611 217.285 59.0551 217.193 59.0725C217.101 59.09 217.015 59.1304 216.942 59.19C216.759 59.1182 216.6 58.9943 216.484 58.8334C216.333 58.6333 216.143 58.4811 215.957 58.8334C215.514 59.9178 215.07 61.0021 214.627 62.0865C214.571 62.1734 214.537 62.2727 214.528 62.3758C214.519 62.4789 214.535 62.5826 214.575 62.678L214.523 63.2434C214.387 63.2635 214.26 63.324 214.159 63.4169C214.057 63.5098 213.985 63.6311 213.953 63.7653L213.348 65.4006C213.259 65.5485 213.201 65.7134 213.179 65.8848C213.157 66.0563 213.17 66.2305 213.218 66.3965C213.296 67.175 213.313 67.175 212.618 67.3794L212.311 67.9057C211.974 68.171 212.198 68.5841 212.056 68.8973C211.455 69.48 211.352 70.2933 211.071 71.024C211.005 71.0748 210.953 71.1409 210.918 71.2167C210.883 71.2925 210.868 71.3756 210.872 71.4589C210.902 71.7146 210.864 71.9735 210.763 72.2101C210.662 72.4466 210.502 72.6524 210.297 72.8071C210.245 72.8531 210.207 72.913 210.187 72.9799C210.167 73.0469 210.166 73.1182 210.185 73.1855C209.36 75.2383 208.543 77.2954 207.709 79.3439C207.498 79.8147 207.467 80.3476 207.623 80.84C207.931 82.0249 207.788 83.2831 207.221 84.3671C207.109 84.6107 206.871 84.802 207.1 85.1152V85.1587H207.139C207.55 85.9459 207.39 86.82 207.502 87.6507C207.381 87.7333 207.381 87.8116 207.502 87.8769L207.705 89.9036C207.689 89.9561 207.678 90.01 207.671 90.0645C207.671 90.0645 207.709 90.0993 207.731 90.1167L207.874 91.4519C207.799 91.5652 207.764 91.7007 207.775 91.8365C207.786 91.9722 207.842 92.1003 207.934 92.1999L208.072 93.3263C207.999 93.4422 207.967 93.5796 207.981 93.7162C207.995 93.8527 208.055 93.9805 208.15 94.0787L208.293 95.4139C208.085 96.2402 208.574 96.9535 208.664 97.732C208.69 97.9538 208.945 98.0364 209.157 98.0408C210.159 98.0625 211.162 98.1104 212.181 98.0712C212.808 98.0451 217.491 97.8103 217.837 97.8103C219.625 97.8103 221.414 97.8103 223.199 97.8103C223.92 97.8103 223.976 97.7146 224.002 96.9405C224.063 95.166 223.7 93.4264 223.618 91.665C223.618 91.491 223.587 91.3214 223.57 91.1474C223.704 91.0126 223.713 90.8865 223.536 90.7821L222.08 77.3346C222.205 77.2563 222.205 77.191 222.058 77.1432L221.457 71.7068C221.583 71.6242 221.587 71.5546 221.436 71.5067L221.427 71.5154ZM223.255 63.0738C222.939 61.4515 222.62 59.825 222.261 58.0114C222.12 58.1335 222.016 58.2924 221.96 58.4705C221.903 58.6486 221.897 58.8389 221.941 59.0204C222.068 60.1946 222.201 61.3689 222.339 62.5432C222.373 62.852 222.373 63.1781 222.697 63.3608C222.752 63.4026 222.817 63.4297 222.885 63.4396C222.953 63.4494 223.022 63.4418 223.086 63.4173C223.153 63.3909 223.208 63.3401 223.24 63.2749C223.272 63.2098 223.279 63.1349 223.259 63.0651L223.255 63.0738ZM224.551 69.9497C224.3 68.558 224.024 67.1663 223.76 65.7746C223.76 65.705 223.734 65.6398 223.721 65.5702C223.652 65.1353 223.428 64.8221 222.974 64.8917C222.52 64.9613 222.818 65.4049 222.706 65.605C222.87 67.0402 223.026 68.4145 223.181 69.7888C223.192 69.9273 223.216 70.0642 223.255 70.1976C223.342 70.4039 223.494 70.5758 223.688 70.6873C223.881 70.7987 224.105 70.8437 224.326 70.8152C224.875 70.6586 224.633 70.2455 224.577 69.941L224.551 69.9497ZM226.137 77.6912C225.811 76.0559 225.464 74.4235 225.095 72.7941C225.009 72.5293 224.83 72.3051 224.591 72.1635C224.353 72.0218 224.071 71.9724 223.799 72.0243C223.41 72.1243 223.553 72.4592 223.523 72.7419C223.682 74.238 223.855 75.7602 224.006 77.2824C223.998 77.4928 224.073 77.6979 224.215 77.8528C224.357 78.0076 224.554 78.0997 224.763 78.1087C225.035 78.1435 225.303 78.2261 225.579 78.2566C226.154 78.3044 226.27 78.2044 226.167 77.6825L226.137 77.6912ZM227.281 84.0583C227.074 82.9319 226.849 81.8055 226.625 80.6791C226.43 79.6962 226.426 79.6961 225.463 79.5265C225.324 79.5048 225.19 79.4743 225.052 79.4569C224.404 79.3787 224.343 79.4352 224.365 80.1354C224.529 81.6924 224.698 83.2798 224.862 84.8716C224.862 84.9755 224.882 85.0784 224.922 85.1742C224.962 85.2701 225.021 85.357 225.094 85.4298C225.168 85.5027 225.255 85.5601 225.351 85.5987C225.447 85.6372 225.549 85.6562 225.653 85.6545C227.999 85.9415 227.675 86.0328 227.312 84.0496L227.281 84.0583ZM228.733 91.6345C228.508 90.4429 228.254 89.2555 228.042 88.0595C227.951 87.5463 227.731 87.2506 227.178 87.2288C226.746 87.2288 226.288 87.1288 225.843 87.0766C225.398 87.0244 225.182 87.2114 225.238 87.6681C225.437 89.2164 225.644 90.7647 225.838 92.313C225.842 92.3998 225.863 92.485 225.901 92.5631C225.939 92.6412 225.992 92.7106 226.058 92.767C226.124 92.8234 226.2 92.8654 226.283 92.8906C226.366 92.9157 226.453 92.9234 226.538 92.9132C226.884 92.9132 227.225 92.9566 227.571 92.9784C228.975 93.0523 229.018 92.9914 228.759 91.6302L228.733 91.6345ZM259.456 97.6015C259.434 97.5583 259.402 97.5212 259.362 97.4939C259.322 97.4665 259.276 97.4497 259.227 97.445C258.852 97.5145 258.7 97.8451 258.528 98.1321C258.445 98.2442 258.407 98.3836 258.422 98.5224C258.438 98.6612 258.505 98.789 258.61 98.8802C258.679 98.957 258.766 99.0152 258.864 99.0494C258.961 99.0835 259.065 99.0927 259.167 99.0759C259.392 99.028 259.474 98.8236 259.508 98.6149C259.534 98.48 259.543 98.3452 259.56 98.18C259.54 97.9848 259.506 97.7914 259.456 97.6015ZM259.456 99.5978C259.085 99.5978 258.519 100.072 258.562 100.341C258.623 100.711 258.951 100.668 259.197 100.715C259.599 100.715 259.906 100.585 259.927 100.141C259.945 99.8283 259.806 99.5891 259.443 99.5978H259.456ZM261.405 90.295C260.904 90.295 261.172 90.9169 261.051 91.1953C261.133 91.5693 260.96 92.0912 261.383 92.126C261.928 92.1651 261.815 91.5997 261.815 91.2561C261.815 90.9126 261.984 90.2732 261.392 90.295H261.405ZM262.593 94.518C262.891 94.518 263.004 94.3092 263.025 94.0439C263.025 93.6569 262.68 93.1741 262.429 93.2219C262.092 93.3176 262.122 93.6264 262.105 93.8874C262.088 94.1483 262.161 94.5267 262.58 94.5223L262.593 94.518ZM262.308 92.0129C262.714 92.0694 262.619 91.578 262.675 91.3083C262.731 91.0387 262.973 90.756 262.904 90.4385C262.898 90.3521 262.863 90.2701 262.806 90.205C262.749 90.1399 262.673 90.0952 262.589 90.0775C262.501 90.0561 262.408 90.0682 262.328 90.1116C262.248 90.1549 262.187 90.2265 262.157 90.3124C262.061 90.6126 262.025 90.9287 262.049 91.2431C262.105 91.4997 261.954 91.9694 262.295 92.0129H262.308ZM262.909 88.5118C262.719 88.518 262.538 88.5911 262.396 88.7183C262.255 88.8456 262.162 89.0188 262.135 89.2077C262.119 89.2745 262.118 89.344 262.132 89.4112C262.146 89.4785 262.175 89.5417 262.216 89.5963C262.258 89.6509 262.311 89.6956 262.371 89.7269C262.432 89.7582 262.499 89.7755 262.567 89.7774C262.999 89.8079 263.172 89.5295 263.224 89.1468C263.267 88.8598 263.237 88.5945 262.896 88.5118H262.909ZM284.641 96.4447C284.706 96.81 284.788 97.2144 284.852 97.6233C284.935 98.1452 285.285 98.28 285.743 98.2669C286.127 98.2669 286.326 98.0756 286.261 97.6842C286.179 97.1753 286.071 96.6708 285.963 96.162C285.939 96.0518 285.892 95.9482 285.825 95.8581C285.758 95.7681 285.672 95.6938 285.573 95.6405C285.474 95.5872 285.366 95.556 285.254 95.5492C285.142 95.5423 285.03 95.56 284.926 95.6009C284.541 95.7357 284.645 96.1011 284.641 96.4447ZM284.14 92.3173C284.14 92.4565 284.161 92.5913 284.174 92.7261C284.239 93.2002 284.287 93.683 284.373 94.1527C284.381 94.2485 284.411 94.3413 284.46 94.4239C284.509 94.5065 284.575 94.5769 284.655 94.6297C284.735 94.6824 284.826 94.7162 284.921 94.7285C285.016 94.7408 285.112 94.7313 285.202 94.7006C285.635 94.6137 285.591 94.2657 285.539 93.9613C285.453 93.4524 285.345 92.948 285.237 92.4478C285.224 92.3447 285.188 92.2456 285.134 92.1571C285.08 92.0686 285.007 91.9928 284.922 91.9346C284.839 91.8724 284.741 91.8335 284.639 91.8221C284.536 91.8106 284.433 91.8269 284.338 91.8694C284.14 91.965 284.14 92.1216 284.14 92.3173ZM283.669 88.9033C283.733 89.4165 283.785 89.8949 283.859 90.3733C283.884 90.5414 283.946 90.7018 284.04 90.843C284.105 90.9458 284.204 91.0225 284.319 91.0599C284.434 91.0972 284.559 91.0928 284.671 91.0474C284.913 90.9604 284.926 90.7342 284.887 90.5298C284.766 89.9253 284.632 89.3208 284.481 88.7206C284.412 88.4466 284.269 88.1552 283.928 88.2465C283.587 88.3379 283.66 88.6728 283.66 88.9033H283.669ZM279.08 95.6662C279.633 95.6662 279.845 95.3791 279.823 94.6702C279.823 94.0309 279.586 93.7656 279.076 93.7656C278.566 93.7656 278.316 94.07 278.333 94.7702C278.35 95.4704 278.549 95.6662 279.076 95.6662H279.08ZM279.793 92.7392C279.795 92.6363 279.775 92.5342 279.735 92.4399C279.694 92.3456 279.633 92.2613 279.556 92.1931C279.48 92.1248 279.39 92.0741 279.292 92.0445C279.194 92.0148 279.091 92.007 278.99 92.0216C278.895 92.0151 278.801 92.0309 278.714 92.0677C278.627 92.1046 278.55 92.1614 278.488 92.2337C278.427 92.306 278.383 92.3917 278.361 92.484C278.338 92.5763 278.338 92.6726 278.359 92.7653C278.393 93.2002 278.653 93.3829 279.145 93.3568C279.53 93.335 279.789 93.1741 279.789 92.7392H279.793ZM279.072 90.6734C279.599 90.6429 279.836 90.2863 279.823 89.5513C279.823 88.9163 279.612 88.6814 279.089 88.6814C278.566 88.6814 278.29 88.9641 278.303 89.7296C278.316 90.495 278.523 90.7038 279.067 90.6734H279.072ZM278.562 88.1857C278.723 88.2886 278.912 88.3374 279.102 88.3248C279.293 88.3123 279.474 88.2392 279.62 88.1161C279.761 87.8993 279.853 87.6548 279.892 87.399C279.931 87.1432 279.915 86.882 279.845 86.633C279.668 86.1981 279.292 86.1459 278.903 86.172C277.732 86.2416 277.097 86.8853 277.058 88.0856C277.028 88.9815 277.058 89.8818 277.058 90.7821C277.058 91.0604 277.119 91.3692 277.49 91.3649C277.862 91.3605 277.922 91.0604 277.944 90.7777C277.974 90.3646 277.979 89.9514 277.983 89.5339C277.991 88.9859 278.411 88.1074 278.557 88.1857H278.562ZM279.27 83.8583C279.134 83.8627 279 83.8945 278.876 83.9519C278.753 84.0093 278.642 84.0911 278.55 84.1925C278.458 84.2939 278.387 84.4127 278.342 84.5421C278.296 84.6714 278.277 84.8086 278.285 84.9455C278.285 85.3805 278.657 85.6805 279.21 85.6762C279.698 85.6762 279.867 85.4674 279.884 84.8629C279.901 84.2584 279.707 83.8974 279.27 83.8583ZM279.672 81.9925C279.401 82.2734 279.2 82.6146 279.085 82.9884C279.003 83.1928 279.011 83.3973 279.266 83.4799C279.314 83.499 279.364 83.5081 279.416 83.5065C279.467 83.5049 279.517 83.4927 279.563 83.4707C279.609 83.4486 279.651 83.4172 279.684 83.3784C279.718 83.3396 279.743 83.2942 279.759 83.245C279.834 83.0429 279.865 82.8268 279.85 82.6115C279.835 82.3962 279.774 82.1866 279.672 81.9968V81.9925ZM275.382 96.7795C275.416 96.9839 275.447 97.1927 275.49 97.3928C275.502 97.4821 275.534 97.5675 275.584 97.6427C275.633 97.718 275.698 97.7812 275.775 97.8277C276.328 98.1452 277.732 97.5406 277.784 96.91C277.879 95.701 277.905 94.4875 277.948 93.2785C277.963 93.0626 277.897 92.8489 277.764 92.6792C277.63 92.5096 277.439 92.396 277.227 92.3608C276.648 92.1869 276.518 91.8389 276.635 91.2518C276.807 90.641 276.751 89.9877 276.475 89.4165C275.892 90.5472 275.261 91.591 275.291 92.9697C275.334 94.2353 275.162 95.5139 275.378 96.7882L275.382 96.7795ZM269.152 88.8206C269.186 88.8224 269.22 88.8174 269.252 88.8058C269.284 88.7943 269.314 88.7766 269.339 88.7535C269.364 88.7305 269.385 88.7027 269.399 88.6716C269.414 88.6406 269.422 88.607 269.424 88.5727C269.428 88.5382 269.425 88.5032 269.415 88.4699C269.405 88.4365 269.389 88.4056 269.366 88.3791C269.344 88.3526 269.317 88.3309 269.286 88.3156C269.255 88.3003 269.221 88.2916 269.186 88.29C268.934 88.2341 268.673 88.2311 268.419 88.2812C268.166 88.3313 267.925 88.4335 267.713 88.5814C268.153 88.815 268.655 88.9018 269.147 88.8293L269.152 88.8206ZM267.674 75.8602L267.043 75.7123C266.546 75.3166 266.443 75.3514 266.352 75.9602L266.248 77.004C266.089 77.2689 265.996 77.5688 265.977 77.8779C265.958 78.1869 266.014 78.496 266.14 78.7785L265.993 80.1267C265.708 80.8962 265.674 81.7375 265.898 82.5274C265.898 83.1581 265.937 86.1894 266.028 86.4156C266.495 87.542 268.447 88.003 269.484 87.2332C269.484 87.2332 269.484 87.168 269.484 87.1332L269.575 86.072C269.843 85.6979 270.336 77.1302 269.921 76.3691C269.545 76.1342 269.096 76.2603 268.702 76.1125C268.59 75.9511 268.423 75.837 268.232 75.792C268.042 75.7471 267.841 75.7745 267.67 75.8689L267.674 75.8602ZM279.646 73.7726L270.271 71.1284C270.043 71.0487 269.807 70.9976 269.566 70.9761C269.204 70.9761 269 71.2327 269.221 71.5111C269.7 72.1113 269.653 72.7027 269.424 73.3682C269.281 73.8031 269.424 74.1249 269.977 74.2815C271.156 74.6207 271.351 74.9556 271.13 76.1864C270.526 79.5526 270.612 82.971 270.327 86.3634C270.249 87.2897 270.396 88.3422 270.327 88.6641C270.289 88.8177 270.299 88.9793 270.356 89.1271C270.412 89.2748 270.512 89.4016 270.642 89.4904C270.845 89.6426 273.572 90.7951 273.762 90.0993C274.09 88.9033 274.838 87.9247 275.317 86.8287C276.034 85.1761 276.613 83.4581 277.413 81.849C277.793 81.1053 277.659 80.8965 276.89 80.6269C276.519 80.5441 276.17 80.3792 275.87 80.1441C275.559 79.8397 275.637 79.47 276.06 79.3656C276.625 79.2203 277.205 79.1401 277.788 79.1264C278.557 79.1264 278.696 78.9916 278.838 78.2566C278.968 77.5999 279.767 74.5294 280.26 74.2119C280.126 73.8553 279.871 73.8553 279.646 73.7726ZM282.187 86.433C282.135 85.6248 282.019 84.822 281.841 84.0322C282.005 83.3364 281.772 82.6666 281.681 81.9968C281.612 81.4967 281.301 81.3749 280.86 81.5967C280.66 81.6646 280.486 81.7928 280.36 81.964C280.235 82.1351 280.165 82.341 280.16 82.5535C280.16 83.0667 280.039 83.5843 280.268 84.0801C280.268 84.7498 280.061 85.437 280.463 86.0763C280.562 86.2372 280.463 86.3982 280.359 86.546C280.214 86.8576 280.187 87.2115 280.281 87.542C280.07 88.9869 280.103 90.4575 280.381 91.8911C280.427 92.0194 280.435 92.1586 280.402 92.2912C280.048 93.0697 280.26 93.8613 280.286 94.6528C280.312 95.3443 280.286 96.0402 280.286 96.736C280.286 97.2579 280.242 97.7798 280.255 98.2974C280.299 100.385 280.48 100.555 282.528 100.442C283.392 100.394 283.535 100.259 283.535 99.3586C283.535 98.3148 283.535 97.271 283.431 96.2359C283.137 93.1915 282.671 90.1689 282.45 87.1027C282.464 86.9779 282.447 86.8518 282.401 86.7351C282.355 86.6184 282.281 86.5147 282.187 86.433ZM283.172 85.2326C283.172 85.3022 283.172 85.3718 283.172 85.5849C283.241 85.9893 283.323 86.5373 283.444 87.0766C283.449 87.1382 283.468 87.1979 283.498 87.2518C283.528 87.3057 283.569 87.3526 283.618 87.3892C283.668 87.4258 283.725 87.4514 283.785 87.4642C283.845 87.4771 283.907 87.4769 283.967 87.4637C284.23 87.4028 284.209 87.1462 284.17 86.9462C284.053 86.3329 283.915 85.7284 283.772 85.1195C283.733 84.9542 283.66 84.7542 283.453 84.7672C283.167 84.7803 283.185 85.0282 283.172 85.2326ZM295.874 75.8167C295.249 75.6341 294.623 75.4586 293.995 75.2905C293.532 75.1687 293.286 75.4035 293.165 75.8298C293.044 76.256 293.273 76.4821 293.64 76.5952C294.297 76.7953 294.937 76.9823 295.481 77.1345C295.577 77.1511 295.674 77.1477 295.769 77.1245C295.863 77.1012 295.951 77.0587 296.028 76.9995C296.105 76.9403 296.169 76.8657 296.216 76.7804C296.264 76.6952 296.293 76.601 296.302 76.5039C296.327 76.4304 296.335 76.3522 296.326 76.275C296.318 76.1978 296.292 76.1235 296.251 76.0577C296.21 75.9918 296.155 75.936 296.09 75.8943C296.024 75.8526 295.951 75.8261 295.874 75.8167ZM300.558 81.301C299.521 81.1879 299.037 81.6446 299.084 82.8232C299.089 82.9895 299.106 83.1553 299.136 83.319C299.253 83.8235 299.568 83.9148 299.931 83.5364C300.374 83.0953 300.732 82.5765 300.99 82.0055C301.184 81.5706 301.037 81.3532 300.558 81.301ZM302.757 74.7512C302.783 74.0423 302.614 73.7552 302.273 73.7813C302.037 73.8788 301.827 74.03 301.659 74.2233C301.491 74.4165 301.37 74.6463 301.305 74.8947C301.37 75.1106 301.499 75.3017 301.674 75.4429C301.849 75.5841 302.062 75.6689 302.286 75.6862C302.938 75.6602 302.765 75.1209 302.778 74.7512H302.757ZM302.234 77.2476C301.901 77.1432 301.724 77.3563 301.616 77.6347C301.456 78.0696 301.292 78.4697 301.158 78.8916C301.126 79.0215 301.144 79.1588 301.208 79.2763C301.272 79.3938 301.377 79.4829 301.503 79.526C301.629 79.5692 301.766 79.5632 301.888 79.5094C302.01 79.4555 302.107 79.3577 302.161 79.2351C302.34 78.8103 302.461 78.3624 302.519 77.9043C302.549 77.5912 302.532 77.3346 302.251 77.2476H302.234Z" fill="#F0F1F2"/>
</svg>
