<svg width="16" height="9" viewBox="0 0 16 9" fill="none" xmlns="http://www.w3.org/2000/svg">
<path d="M15.6341 0.605454C15.7464 0.261818 15.6341 0 15.0986 0H13.3538C12.9046 0 12.7059 0.220909 12.5937 0.466364C12.5937 0.466364 11.704 2.52 10.4429 3.86182C10.0283 4.24636 9.84689 4.36909 9.62231 4.36909C9.51003 4.36909 9.32863 4.24636 9.32863 3.89455V0.605454C9.32863 0.188182 9.22498 0 8.85357 0H6.09816C5.82176 0 5.65764 0.196363 5.65764 0.384545C5.65764 0.777273 6.30547 0.875454 6.34865 1.99636V4.43455C6.34865 4.97455 6.245 5.07273 6.02906 5.07273C5.4417 5.07273 3.99058 3.00273 3.13546 0.646364C2.96271 0.188182 2.79859 0 2.34943 0H0.595996C0.103652 0 4.11874e-08 0.220909 4.11874e-08 0.466364C4.11874e-08 0.908182 0.595996 3.08455 2.76404 5.96455C4.20652 7.93636 6.245 9 8.10209 9C9.21634 9 9.35455 8.76273 9.35455 8.35364V6.86455C9.35455 6.39818 9.4582 6.3 9.81234 6.3C10.0715 6.3 10.512 6.42273 11.5485 7.36364C12.7405 8.49273 12.9305 9 13.6043 9H15.3491C15.85 9 16.1005 8.76273 15.9623 8.29636C15.8069 7.83 15.2368 7.15091 14.4853 6.34909C14.0793 5.89909 13.4661 5.40818 13.276 5.15455C13.0169 4.84364 13.0946 4.70455 13.276 4.41818C13.276 4.41818 15.4095 1.57909 15.6341 0.605454Z" fill="currentColor"/>
</svg>
