<svg width="48" height="48" viewBox="0 0 48 48" fill="none" xmlns="http://www.w3.org/2000/svg">
<g clip-path="url(#clip0)">
<path d="M40.1189 30.9182L34.0647 29.5726V27.6596C36.4043 25.9711 37.9357 23.2281 37.9357 20.129V16.0018C38.0959 15.8431 38.2469 15.6735 38.3762 15.4839H39.4841H40.2583H41.8067V13.9355H40.2583V12.3871C40.2583 6.84774 36.258 2.064 30.8665 1.01342C30.6482 0.423484 30.0846 0 29.4196 0H27.8712C27.2061 0 26.6425 0.423484 26.4242 1.01342C21.0327 2.064 17.0325 6.84774 17.0325 12.3871V13.9355H15.4841V15.4839H17.0325H17.8067H18.9145C19.0446 15.6735 19.1948 15.8439 19.355 16.0026V20.129C19.355 23.2281 20.8864 25.9711 23.226 27.6596V29.5726L17.1718 30.9182C12.5313 31.9494 9.29053 35.9892 9.29053 40.7427V48H48.0002V40.7427C48.0002 35.9892 44.7594 31.9494 40.1189 30.9182ZM17.0325 46.4516H10.8389V40.7427C10.8389 36.8857 13.3636 33.5907 17.0325 32.5564V46.4516ZM34.4394 31.2418L31.5478 35.0981L29.4366 32.9868L33.3912 31.0095L34.4394 31.2418ZM28.6454 31.6506L24.7744 29.7151V28.5639C25.9543 29.1074 27.2627 29.4194 28.6454 29.4194C30.0281 29.4194 31.3365 29.1074 32.5163 28.5639V29.7151L28.6454 31.6506ZM20.0472 14.3636L19.8335 13.9355H18.5809V12.3871C18.5809 7.72258 21.8518 3.66735 26.3228 2.60671V6.19355H27.8712V1.54839H29.4196V6.19355H30.9679V2.60671C35.4389 3.66735 38.7099 7.72258 38.7099 12.3871V13.9355H37.4572L37.2436 14.3636C36.8975 15.0542 36.203 15.4839 35.4304 15.4839H21.8603C21.0869 15.4839 20.3925 15.055 20.0472 14.3636ZM20.9034 16.8991C21.21 16.9843 21.5305 17.0323 21.8603 17.0323H35.4296C35.7594 17.0323 36.0799 16.9835 36.3865 16.8991V19.6506L35.3522 20.1677C34.3907 20.6485 33.313 20.9032 32.2376 20.9032H30.9679C30.8387 20.9032 30.7248 20.8204 30.6838 20.6981L30.3989 19.8434C30.1458 19.0885 29.4412 18.5806 28.6454 18.5806C27.8495 18.5806 27.145 19.0885 26.891 19.8449L26.6077 20.6973C26.5659 20.8204 26.4521 20.9032 26.3228 20.9032H25.0531C23.977 20.9032 22.9001 20.6485 21.9378 20.1677L20.9034 19.6506V16.8991ZM21.0234 21.4421L21.2449 21.5528C22.4216 22.1412 23.7385 22.4516 25.0531 22.4516H26.3228C27.1187 22.4516 27.8232 21.9437 28.0771 21.1874L28.3605 20.335C28.4433 20.0888 28.8482 20.0895 28.9295 20.3342L29.2144 21.1889C29.4676 21.9437 30.1721 22.4516 30.9679 22.4516H32.2376C33.5522 22.4516 34.8691 22.1412 36.0459 21.5528L36.2673 21.4421C35.641 25.0862 32.466 27.871 28.6454 27.871C24.8247 27.871 21.6498 25.0862 21.0234 21.4421ZM23.8996 31.0088L27.8541 32.9861L25.7429 35.0973L22.8513 31.241L23.8996 31.0088ZM27.8712 46.4516H18.5809V44.9032H27.8712V46.4516ZM27.8712 43.3548H18.5809V32.191L21.1922 31.6111L27.8712 40.5159V43.3548ZM26.6812 36.3484L28.6454 34.385L30.6095 36.3492L28.6454 38.9675L26.6812 36.3484ZM38.7099 46.4516H29.4196V44.9032H38.7099V46.4516ZM38.7099 43.3548H29.4196V40.5159L36.0985 31.6103L38.7099 32.191V43.3548ZM46.4518 46.4516H40.2583V32.5564C43.9272 33.5907 46.4518 36.8865 46.4518 40.7427V46.4516Z" fill="#282828"/>
<path d="M36.3872 12.3869H31.7219C32.2135 11.7381 32.5162 10.9392 32.5162 10.0643C32.5162 7.92988 30.7797 6.19336 28.6453 6.19336C26.5108 6.19336 24.7743 7.92988 24.7743 10.0643C24.7743 10.9392 25.077 11.7381 25.5686 12.3869H20.9033V13.9353H36.3872V12.3869ZM28.6453 12.3869C27.3647 12.3869 26.3227 11.3448 26.3227 10.0643C26.3227 8.78381 27.3647 7.74175 28.6453 7.74175C29.9258 7.74175 30.9678 8.78381 30.9678 10.0643C30.9678 11.3448 29.9258 12.3869 28.6453 12.3869Z" fill="#282828"/>
<path d="M37.1613 40.2578H30.9678V41.8062H37.1613V40.2578Z" fill="#282828"/>
<path d="M11.613 23.9998V23.869C11.613 23.3069 11.4605 22.7557 11.1717 22.2757L8.51621 17.8496L5.86072 22.2749C5.57195 22.7564 5.41943 23.3069 5.41943 23.869V23.9998C5.41943 25.7077 6.80834 27.0966 8.51621 27.0966C10.2241 27.0966 11.613 25.7077 11.613 23.9998ZM6.96782 23.9998V23.869C6.96782 23.5879 7.04447 23.3131 7.18847 23.0723L8.51621 20.8597L9.84395 23.0731C9.98795 23.3131 10.0646 23.5879 10.0646 23.869V23.9998C10.0646 24.8537 9.37014 25.5482 8.51621 25.5482C7.66227 25.5482 6.96782 24.8537 6.96782 23.9998Z" fill="#282828"/>
<path d="M10.8387 31.7412V29.7887C11.0694 29.7074 11.2947 29.6138 11.5146 29.5092L12.8957 30.8896L16.1799 27.6047L14.7995 26.2236C14.904 26.0037 14.9977 25.7776 15.079 25.5477H17.0323V20.9025H15.0797C14.9985 20.6726 14.904 20.4465 14.8003 20.2267L16.1806 18.8455L12.8965 15.5606L11.5154 16.941C11.2955 16.8365 11.0702 16.7428 10.8395 16.6615V14.709H6.19355V16.6615C5.96284 16.7428 5.73755 16.8365 5.51768 16.941L4.13652 15.5606L0.852387 18.8455L2.23277 20.2267C2.12826 20.4465 2.03458 20.6726 1.95252 20.9025H0V25.5477H1.95252C2.03381 25.7776 2.12826 26.0037 2.232 26.2236L0.851613 27.6047L4.13574 30.8896L5.5169 29.5092C5.73755 29.613 5.96284 29.7067 6.19355 29.7887V31.7412H10.8387ZM5.76852 27.8896L5.25135 27.5838L4.13652 28.6987L3.04181 27.6032L4.15664 26.4883L3.85161 25.972C3.59535 25.5384 3.40103 25.0692 3.27406 24.5784L3.12464 23.9993H1.54839V22.4509H3.12464L3.27406 21.8703C3.40103 21.3794 3.59535 20.9103 3.85161 20.4767L4.15664 19.9603L3.04181 18.8455L4.13652 17.75L5.25135 18.8649L5.76852 18.559C6.20129 18.3036 6.66968 18.11 7.16129 17.983L7.74194 17.8344V16.2574H9.29032V17.8344L9.87097 17.9838C10.3626 18.1108 10.831 18.3043 11.2637 18.5598L11.7809 18.8656L12.8957 17.7508L13.9905 18.8463L12.8756 19.9611L13.1806 20.4775C13.4369 20.911 13.6312 21.3802 13.7582 21.871L13.9076 22.4509H15.4839V23.9993H13.9076L13.7582 24.58C13.6312 25.0708 13.4369 25.54 13.1806 25.9735L12.8756 26.4899L13.9905 27.6047L12.8957 28.7002L11.7809 27.5854L11.2637 27.8912C10.831 28.1467 10.3626 28.3402 9.87097 28.4672L9.29032 28.6158V30.1929H7.74194V28.6158L7.16129 28.4664C6.66968 28.3387 6.20129 28.1451 5.76852 27.8896Z" fill="#282828"/>
</g>
<defs>
<clipPath id="clip0">
<rect width="48" height="48" fill="white"/>
</clipPath>
</defs>
</svg>
